<svg width="373" height="275" viewBox="0 0 373 275" fill="none" xmlns="http://www.w3.org/2000/svg">
<g clip-path="url(#clip0_377_1874)">
<path opacity="0.1" d="M247.328 264.825C305.2 264.825 352.115 260.106 352.115 254.286C352.115 248.466 305.2 243.748 247.328 243.748C189.455 243.748 142.54 248.466 142.54 254.286C142.54 260.106 189.455 264.825 247.328 264.825Z" fill="#F37F27"/>
<path opacity="0.1" d="M216.714 38.672C192.804 37.9799 170.027 31.5712 148.282 24.5568C126.536 17.5425 104.991 9.77948 81.6507 6.06268C66.6376 3.67354 49.4728 3.33414 37.3756 10.0191C25.7389 16.4478 21.9756 27.5516 19.9538 37.8501C18.4325 45.5999 17.5384 53.7588 21.7054 61.0128C24.6012 66.0506 29.739 70.2831 33.2921 75.108C45.6595 91.8985 36.9186 112.599 23.5169 128.99C17.2315 136.68 9.94183 144.017 5.09096 152.202C0.240091 160.388 -1.99852 169.775 2.24183 178.117C6.44881 186.392 16.4708 192.608 27.3302 196.98C49.3827 205.861 75.3719 208.404 100.727 209.841C156.806 213.032 213.188 211.648 269.447 210.267C290.262 209.758 311.15 209.239 331.644 206.567C343.014 205.083 354.754 202.727 363.005 197.04C373.487 189.82 376.083 177.598 369.06 168.544C357.283 153.36 324.715 149.577 316.481 133.296C311.95 124.328 316.604 114.329 323.19 106.01C337.316 88.1684 360.996 72.5126 362.244 52.1051C363.101 38.0964 351.718 24.0677 334.116 17.4394C315.667 10.4916 290.078 11.3667 276.47 22.8665C262.457 34.7256 237.829 39.281 216.714 38.672Z" fill="#F37F27"/>
<path opacity="0.5" d="M57.4862 208.374C54.8439 207.199 57.0792 194.438 62.8242 174.766C66.494 162.145 71.6251 146.679 77.8372 129.609C78.2842 128.384 78.7379 127.156 79.1917 125.915C79.7032 124.524 80.2215 123.122 80.7463 121.709L80.7931 121.593C80.8665 121.39 80.9432 121.19 81.0166 120.991C83.005 115.667 85.0834 110.22 87.252 104.649C87.292 104.536 87.3354 104.426 87.3788 104.317L87.4889 104.034C88.0093 102.703 88.5364 101.372 89.0669 100.018C89.1236 99.8777 89.177 99.7313 89.2337 99.5916C89.3104 99.3953 89.3872 99.2056 89.4606 99.0126C89.4873 98.9527 89.5073 98.8895 89.534 98.8363C89.5773 98.7198 89.6241 98.6067 89.6674 98.5035C90.2012 97.1725 90.7317 95.8249 91.2621 94.5105C92.1296 92.3587 92.9903 90.228 93.8444 88.1184C93.9934 87.748 94.1435 87.3819 94.2948 87.0203C94.724 85.9578 95.1544 84.903 95.5859 83.8559C95.7527 83.4566 95.9195 83.054 96.0796 82.658C96.2064 82.3552 96.3299 82.0491 96.4533 81.7496C97.8078 78.482 99.1534 75.2777 100.49 72.1365C100.493 72.1257 100.493 72.1141 100.49 72.1032C105.578 60.1476 110.499 49.1702 115.069 39.5737C115.096 39.5238 115.116 39.4706 115.143 39.4207L115.627 38.4025C127.357 13.8756 136.585 -1.26116 139.704 0.136383C142.914 1.56055 138.917 20.1479 130.159 47.4732C130.046 47.8359 129.929 48.1919 129.809 48.5546C129.791 48.6257 129.768 48.6957 129.742 48.7643C129.297 50.1795 128.829 51.6215 128.338 53.09C128.311 53.1765 128.281 53.263 128.251 53.3495C127.139 56.7436 125.956 60.2485 124.701 63.8644C124.531 64.3502 124.368 64.846 124.187 65.3385C122.252 70.9253 120.184 76.7417 117.965 82.7379C117.832 83.1072 117.695 83.4733 117.558 83.8459C115.34 89.852 113.001 96.0345 110.552 102.343C110.395 102.743 110.239 103.145 110.085 103.548C110.052 103.634 110.018 103.718 109.982 103.804C109.37 105.368 108.755 106.939 108.137 108.516C107.96 108.955 107.803 109.394 107.616 109.83C107.176 110.945 106.736 112.06 106.282 113.158C106.245 113.258 106.205 113.357 106.165 113.454C106.125 113.55 106.102 113.61 106.068 113.687C105.995 113.88 105.918 114.069 105.841 114.259C105.635 114.775 105.431 115.291 105.224 115.8C104.867 116.692 104.51 117.573 104.153 118.462L104.043 118.728C104.044 118.74 104.044 118.752 104.043 118.765C102.593 122.338 101.147 125.851 99.7061 129.303C99.2213 130.467 98.7375 131.624 98.2549 132.773C97.8979 133.622 97.5442 134.467 97.1873 135.302C94.5383 141.548 91.9361 147.527 89.4005 153.194C74.0672 187.411 61.2695 210.057 57.4862 208.374Z" fill="#F37F27"/>
<path opacity="0.5" d="M63.7488 184.619C62.1207 183.92 64.1425 174.843 68.7264 160.741C71.6623 151.697 75.6558 140.583 80.4032 128.291L81.4408 125.629C81.83 124.629 82.2259 123.619 82.6285 122.601C82.6411 122.573 82.6522 122.544 82.6619 122.515L82.8353 122.082C84.35 118.238 85.9302 114.311 87.5761 110.303C87.6061 110.22 87.6395 110.143 87.6729 110.063C87.7062 109.983 87.7262 109.927 87.7563 109.86C88.1499 108.895 88.547 107.934 88.9473 106.962L89.0774 106.653L89.2476 106.237C89.2676 106.193 89.2843 106.147 89.3009 106.107C89.3176 106.067 89.371 105.944 89.4044 105.864C89.8092 104.892 90.2106 103.928 90.6087 102.972C91.2626 101.419 91.911 99.8811 92.5538 98.3571L92.8874 97.5651C93.221 96.7965 93.5346 96.0378 93.8582 95.2792L94.2285 94.414C94.3253 94.1944 94.4154 93.9748 94.5088 93.7485C95.5252 91.3904 96.5339 89.0745 97.5347 86.8007C97.5367 86.7931 97.5367 86.7851 97.5347 86.7774C101.338 78.126 104.995 70.1866 108.351 63.2288C108.371 63.1922 108.387 63.1523 108.408 63.1157L108.761 62.377C117.389 44.5849 123.981 33.5144 125.903 34.3429C127.881 35.1948 124.458 48.4481 117.595 68.067L117.322 68.8456C117.305 68.8955 117.289 68.9454 117.269 68.9954C116.913 70.0113 116.547 71.044 116.171 72.0932L116.104 72.2796C115.23 74.7197 114.31 77.2386 113.345 79.8363C113.215 80.189 113.085 80.5451 112.948 80.8978C111.453 84.914 109.855 89.1034 108.167 93.4224L107.857 94.2177C106.162 98.5434 104.383 102.987 102.519 107.548C102.402 107.837 102.286 108.127 102.165 108.416C102.139 108.479 102.112 108.539 102.089 108.602L100.691 112L100.297 112.948C99.9635 113.753 99.6299 114.559 99.2963 115.354C99.2696 115.427 99.2396 115.497 99.2095 115.567C99.1795 115.637 99.1628 115.68 99.1361 115.737L98.966 116.146C98.8092 116.518 98.6557 116.891 98.4989 117.261L97.7149 119.197L97.6315 119.39V119.417C96.5372 121.999 95.4518 124.536 94.3753 127.027C94.0128 127.87 93.6492 128.706 93.2844 129.536C93.0175 130.152 92.7506 130.762 92.4837 131.366C90.502 135.878 88.5636 140.207 86.682 144.306C75.2888 169.109 66.0808 185.624 63.7488 184.619Z" fill="#F37F27"/>
<path d="M171.082 117.287C171.082 116.359 170.171 116.838 170.044 116.878C169.678 116.578 169.28 116.32 168.857 116.109C166.825 115.054 163.755 114.412 161.31 114.036C161.301 114.033 161.292 114.033 161.283 114.036C159.128 113.703 157.467 113.59 157.467 113.59L156.196 113.607H155.722C155.888 113.36 156.132 113.177 156.416 113.085C156.769 113.041 154.921 112.905 154.044 112.845H154.007L153.6 112.818C151.672 113.271 148.059 110.799 148.059 110.799L147.638 108.689C149.066 107.148 148.859 103.298 148.859 103.298C148.859 103.298 148.979 102.007 150.194 100.23C151.408 98.4536 149.99 97.3289 149.99 97.3289L152.089 95.0962C151.998 94.7111 151.986 94.312 152.051 93.9219C152.116 93.5318 152.258 93.1585 152.469 92.8235C152.597 92.6343 152.756 92.4678 152.939 92.331V92.3144L152.973 92.2845C154.344 91.2363 155.502 87.596 155.502 87.596C155.502 87.596 155.235 86.9472 156.736 85.1869V85.167C156.936 84.934 157.17 84.6845 157.44 84.405C157.44 84.3817 157.48 84.3617 157.5 84.3384C159.909 81.9293 158.961 80.5983 158.961 80.5983L156.035 77.0512C156.726 75.8999 151.181 67.6378 151.181 67.6378C151.181 67.6378 150.474 65.9374 150.874 64.3103C150.986 63.927 150.998 63.5214 150.908 63.1324C150.855 62.9127 150.747 62.71 150.594 62.5434C150.5 62.4431 150.386 62.3627 150.26 62.3071L150.06 62.2905L150.297 62.1175C150.394 62.0543 150.487 61.9844 150.584 61.9178C150.791 61.9977 150.998 62.0676 151.208 62.1308C153.244 62.7869 155.413 62.9217 157.516 62.5228C159.618 62.124 161.586 61.2042 163.238 59.8481C163.322 59.7849 163.402 59.715 163.479 59.6452C163.555 59.5753 163.689 59.4655 163.792 59.369C163.839 59.3257 163.886 59.2858 163.926 59.2425C163.966 59.1993 164.082 59.0895 164.159 59.0096C164.183 59.0828 164.206 59.1527 164.233 59.2259C164.337 59.5208 164.463 59.8077 164.61 60.0844C164.622 60.1099 164.637 60.1344 164.653 60.1576C164.652 60.1675 164.652 60.1776 164.653 60.1875C164.676 60.2374 164.706 60.284 164.733 60.3306C164.923 60.6478 165.154 60.9386 165.42 61.1958C165.485 61.26 165.554 61.32 165.627 61.3754C165.731 61.464 165.843 61.5431 165.961 61.6117C165.978 61.6269 165.997 61.6403 166.017 61.6516C166.037 61.6669 166.059 61.6802 166.081 61.6916C166.168 61.5385 166.251 61.3821 166.331 61.2257C167.04 59.8472 167.452 58.3366 167.542 56.7902C167.546 56.6019 167.562 56.4141 167.589 56.2278C167.607 56.0855 167.649 55.9472 167.712 55.8185C167.836 55.5656 168.035 55.3574 168.283 55.2229C168.683 55.0198 169.103 54.8592 169.537 54.7438L169.641 54.7072L169.767 54.6639L170.014 54.5674L170.054 54.5474C170.128 54.5175 170.194 54.4809 170.264 54.4476C170.285 54.4324 170.308 54.419 170.331 54.4077C170.411 54.3632 170.487 54.312 170.558 54.2546L170.591 54.228C170.656 54.179 170.716 54.1244 170.772 54.065C170.798 54.0383 170.815 54.0051 170.842 53.9784C170.879 53.9381 170.912 53.8947 170.942 53.8487L171.022 53.7322C171.039 53.6953 171.059 53.6597 171.082 53.6257C171.337 53.1098 171.452 52.5361 171.415 51.962C171.369 51.1368 171.125 50.3382 171.135 49.5096C171.165 47.5298 172.596 45.6398 172.47 43.6732C172.356 41.9696 171.099 40.6452 169.801 39.5871C168.503 38.5289 167.062 37.5407 166.351 36.0267C165.821 34.892 165.747 33.571 165.27 32.413C164.269 29.9873 161.333 28.6197 158.681 29.3417C157.093 29.7776 155.712 30.8258 154.167 31.4081C153.146 31.7908 152.075 31.9638 151.058 32.3531C149.856 32.8163 148.779 33.5523 147.912 34.5027C147.758 34.6691 147.615 34.8354 147.475 35.0218L147.345 35.1981C147.248 35.3312 147.151 35.4643 147.064 35.6041C147.024 35.664 146.988 35.7205 146.951 35.7838C146.829 35.9763 146.718 36.1751 146.617 36.3794C146.521 36.569 146.437 36.762 146.354 36.9584C145.89 38.0764 145.603 39.2676 145.046 40.3324C144.922 40.5749 144.782 40.8084 144.626 41.0312C144.409 41.3407 144.159 41.6302 143.912 41.923C143.845 42.0028 143.778 42.0827 143.711 42.1559C143.684 42.1947 143.654 42.2315 143.621 42.2657C143.575 42.3289 143.521 42.3888 143.471 42.452C143.421 42.5153 143.411 42.5286 143.384 42.5652C143.358 42.6018 143.284 42.7016 143.241 42.7715C143.198 42.8414 143.191 42.8347 143.168 42.8713C143.101 42.9745 143.041 43.0809 142.981 43.1874V43.2107C142.794 43.569 142.691 43.965 142.681 44.3687C142.677 44.5684 142.706 44.7675 142.767 44.9576C142.783 45.0064 142.802 45.0542 142.824 45.1007C142.874 45.2078 142.941 45.3065 143.021 45.3935C142.981 45.5033 142.934 45.6165 142.897 45.7263C142.811 45.9792 142.731 46.2387 142.657 46.4949C142.61 46.6713 142.574 46.8277 142.534 47.0107C142.378 47.6846 142.279 48.3702 142.237 49.0604L142.023 49.1702C141.648 49.3563 141.261 49.5196 140.866 49.6594H140.826C140.492 49.7326 138.19 50.2117 137.383 50.072L134.503 49.5695C134.503 49.5695 133.836 49.2933 133.106 48.944C132.554 48.7036 132.04 48.3866 131.578 48.0023C131.027 47.41 127.22 44.9676 126.42 44.9709C126.093 44.92 125.795 44.7549 125.579 44.5051C125.337 44.21 125.114 43.8999 124.912 43.5767C124.912 43.5767 124.835 43.5368 124.715 43.4636C124.565 43.254 124.471 43.0976 124.471 43.0976C124.471 43.0976 123.34 42.4787 122.189 41.7666L121.699 42.7648C121.672 42.8147 121.649 42.868 121.622 42.9212C116.978 52.4711 111.901 63.3753 106.609 75.2178C106.611 75.2288 106.611 75.2401 106.609 75.2511C105.215 78.3567 103.808 81.53 102.389 84.771L101.999 85.6694L101.478 86.854L100.12 89.9818L99.6466 91.0699C98.7458 93.1529 97.8383 95.2603 96.9242 97.3922C96.3637 98.6987 95.801 100.018 95.2361 101.349C95.1927 101.458 95.1427 101.571 95.096 101.681C95.0693 101.738 95.0459 101.798 95.0192 101.858C94.9425 102.047 94.8591 102.237 94.779 102.43C94.719 102.566 94.6589 102.713 94.5989 102.849C94.0384 104.18 93.4812 105.511 92.9308 106.816L92.6772 106.945L92.814 107.095C92.7673 107.205 92.7206 107.311 92.6772 107.428C90.3752 112.912 88.1511 118.285 86.0047 123.55L85.7645 124.142L85.7145 124.258C85.1496 125.649 84.5935 127.03 84.0464 128.401C83.5571 129.625 83.0711 130.839 82.5885 132.041C75.8793 148.852 70.2044 164.028 65.9841 176.367C65.7839 176.503 65.5704 176.66 65.3535 176.836C65.5704 176.673 65.7806 176.503 65.9741 176.387C66.141 176.273 66.3148 176.17 66.4945 176.077C66.8872 175.869 67.2479 175.606 67.5654 175.295C67.7089 175.162 67.849 175.026 67.9858 174.883C68.7684 174.008 69.478 173.071 70.1076 172.081C70.2092 171.961 70.3208 171.849 70.4413 171.748L70.6181 171.588L70.6448 171.565C70.7415 171.482 70.8449 171.389 70.9617 171.292L70.9817 171.276L71.1552 171.133L71.1752 171.116L71.3621 170.96C71.9326 170.494 72.6298 169.945 73.2937 169.426L73.5339 169.243L74.3446 168.617L74.745 168.314L75.6291 167.649C75.6372 167.635 75.6461 167.622 75.6558 167.609C75.7359 167.506 75.9193 167.276 76.1762 166.96C76.181 166.952 76.188 166.947 76.1962 166.943C76.2265 166.902 76.2587 166.862 76.293 166.823C76.6466 166.411 77.107 165.895 77.6275 165.383C77.6909 165.323 77.7543 165.256 77.8243 165.196L78.0145 165.013L78.3248 164.737C78.6299 164.467 78.9507 164.215 79.2856 163.982C79.7141 163.673 80.1241 163.34 80.5133 162.984L80.5967 162.91C80.6534 162.854 80.7168 162.794 80.7836 162.737C80.8316 162.697 80.8772 162.653 80.9203 162.608L81.0638 162.474L81.3007 162.251L81.4508 162.108L81.8044 161.776L82.2015 161.383L82.2615 161.323C82.465 161.117 82.6719 160.907 82.882 160.701L83.1256 160.455C83.2257 160.352 83.3258 160.245 83.4258 160.145C83.596 159.975 83.7595 159.812 83.933 159.629L84.3033 159.243C84.4234 159.114 84.5435 158.994 84.6569 158.874C84.8404 158.684 85.0139 158.505 85.1774 158.328L85.2141 158.288L85.6378 157.843C85.6378 157.843 85.6378 157.843 85.6578 157.819C85.7612 157.716 85.8513 157.62 85.938 157.523L86.0214 157.433C86.1048 157.353 86.1782 157.27 86.2416 157.204C86.4918 156.941 86.6353 156.784 86.6353 156.784L89.6379 153.374L92.6972 149.81L92.834 149.657C92.834 149.657 93.6147 148.486 94.412 147.517L94.5188 147.388C94.791 147.047 95.096 146.734 95.4296 146.453C95.6983 146.228 95.9452 145.978 96.1669 145.707C96.1836 145.707 96.1969 145.671 96.2169 145.651C97.1177 144.599 98.2821 142.965 98.6557 142.43L98.7792 142.257C99.0895 141.999 99.3754 141.714 99.6332 141.405C99.9465 141.043 100.199 140.633 100.381 140.19C100.557 139.793 100.781 139.419 101.048 139.076C101.049 139.07 101.049 139.064 101.048 139.059L101.101 138.986L101.291 138.739C101.527 138.785 101.766 138.814 102.005 138.826C103.102 138.868 104.197 138.728 105.248 138.413C105.279 138.405 105.309 138.395 105.338 138.383C105.612 138.32 105.819 138.26 105.929 138.227L106.025 138.197L108.097 135.169L108.147 135.099C108.147 135.099 109.242 134.064 110.289 132.956C110.403 132.837 110.513 132.717 110.623 132.6C111.37 131.795 112.031 131.003 112.161 130.584C112.494 129.536 114.333 127.406 114.333 127.406C114.333 127.406 117.485 123.386 118.716 121.869C118.766 121.806 118.817 121.743 118.86 121.693L119.027 121.49C119.064 121.516 119.1 121.545 119.133 121.576C119.226 121.668 119.31 121.768 119.384 121.876C119.39 121.89 119.398 121.903 119.407 121.916L119.51 121.769C119.581 121.676 119.677 121.533 119.807 121.357C119.908 121.451 119.996 121.557 120.071 121.673L120.101 121.716C120.101 121.716 127.074 112.113 128.161 109.404C128.412 108.839 128.727 108.305 129.099 107.811C130.523 105.844 132.925 103.575 134.053 102.546L134.387 102.25C134.56 102.091 134.664 102.004 134.664 102.004L134.784 102.264C134.784 102.284 134.784 102.304 134.807 102.327C135.094 102.976 135.674 104.413 135.364 104.809C134.967 105.328 133.903 110.569 133.903 110.569C133.903 110.569 132.452 112.872 133.393 116.409C134.333 119.946 138.263 121.18 139.141 121.107C139.705 121.057 144.636 123.104 148.129 124.604L148.989 124.974L149.857 125.343L151.208 125.932L151.285 125.965C151.395 126.019 151.508 126.068 151.618 126.112L151.688 126.019L151.722 125.969L152.055 126.125L151.722 125.935C151.859 125.742 152.095 125.393 152.389 124.917C152.403 124.884 152.421 124.853 152.442 124.824L152.536 124.668L152.693 124.401C152.709 124.365 152.729 124.335 152.746 124.305L152.906 124.019C152.916 124.005 152.925 123.991 152.933 123.975C153.153 123.576 153.383 123.13 153.6 122.644C153.633 122.581 153.667 122.511 153.697 122.445L154.558 122.372L155.151 122.322L155.485 122.295L155.919 122.252L156.122 122.292L164.343 122.884L164.943 122.931C165.726 122.999 166.515 122.904 167.258 122.651C168.002 122.398 168.685 121.993 169.263 121.462C169.841 120.931 170.301 120.285 170.614 119.566C170.927 118.847 171.087 118.071 171.082 117.287Z" fill="url(#paint0_linear_377_1874)"/>
<path d="M150.954 126.311C150.954 126.311 157.206 117.859 152.933 113.181L142.794 116.252L143.328 119.962C143.328 119.962 147.722 125.024 150.954 126.311Z" fill="#0B6662"/>
<path opacity="0.1" d="M142.794 116.252L143.328 119.962C143.328 119.962 146.43 123.523 149.333 125.433C149.847 125.778 150.393 126.072 150.964 126.311C150.964 126.311 151.001 126.268 151.064 126.175C151.072 126.164 151.079 126.153 151.084 126.142C151.84 125.049 152.501 123.893 153.06 122.688C153.266 122.232 153.47 121.743 153.657 121.247C154.324 119.354 154.738 117.211 154.157 115.314C153.948 114.611 153.598 113.958 153.13 113.394C153.09 113.347 153.05 113.297 153.003 113.251C152.985 113.226 152.965 113.203 152.943 113.181L152.719 113.248L149.29 114.286L142.794 116.252Z" fill="black"/>
<path d="M100.467 90.3179L99.6162 91.0732L100.09 89.9851L100.467 90.3179Z" fill="#0B6662"/>
<path opacity="0.1" d="M100.467 90.3179L99.6162 91.0732L100.09 89.9851L100.467 90.3179Z" fill="black"/>
<path d="M154.034 113.976C154.034 113.976 149.623 118.771 152.299 121.809C152.299 121.809 153.587 122.182 155.485 122.531C159.859 123.33 167.456 123.995 169.891 119.623C173.374 113.361 156.753 113.926 156.753 113.926L155.495 113.95L154.034 113.976Z" fill="#FBBEBE"/>
<path opacity="0.1" d="M154.034 113.976C154.034 113.976 149.623 118.771 152.299 121.809C152.299 121.809 153.587 122.182 155.485 122.531L156.046 122.481C155.315 122.222 154.65 121.806 154.097 121.264C153.39 120.535 152.89 119.44 153.47 117.903C153.794 117.024 154.171 116.166 154.601 115.334C154.849 114.842 155.149 114.378 155.495 113.95L154.034 113.976Z" fill="black"/>
<path d="M146.584 123.247L148.065 123.12L153.05 122.688L155.592 122.465C154.862 122.206 154.198 121.79 153.647 121.247C152.94 120.515 152.436 119.423 153.016 117.886C153.341 117.007 153.719 116.148 154.147 115.314C154.861 113.983 155.412 113.477 155.715 113.437C156.019 113.397 154.238 113.264 153.38 113.208H153.347C153.103 113.188 152.943 113.181 152.943 113.181L152.71 113.248L149.387 114.206L149.28 114.282C148.466 114.871 143.562 118.695 146.584 123.247Z" fill="#E7EFFD"/>
<path d="M108.18 125.083L103.049 136.78C103.049 136.78 102.158 137.711 101.358 138.693C101.345 138.712 101.33 138.73 101.314 138.746L101.121 138.996C101.1 139.017 101.081 139.041 101.064 139.066C101.065 139.071 101.065 139.077 101.064 139.082C100.72 139.494 100.433 139.949 100.21 140.436C100.067 140.785 99.8774 141.113 99.6461 141.411C99.3567 141.786 99.0291 142.129 98.6686 142.436C98.6532 142.452 98.6364 142.467 98.6185 142.48C98.6185 142.48 97.284 144.386 96.2298 145.657C96.2098 145.677 96.1964 145.701 96.1797 145.714C95.911 146.049 95.6129 146.36 95.289 146.642C95.0135 146.869 94.7599 147.12 94.5316 147.394L94.4249 147.524C93.5875 148.522 92.7101 149.817 92.7101 149.817L89.6541 153.287L86.5414 156.798L86.2445 157.13L86.0243 157.36L85.9409 157.45L85.6606 157.746C85.6606 157.746 85.6439 157.746 85.6406 157.769L85.2169 158.215L85.1802 158.255C85.0134 158.425 84.8466 158.608 84.6598 158.801C84.5463 158.921 84.4262 159.04 84.3061 159.17L83.9358 159.556C83.769 159.726 83.6022 159.889 83.4287 160.072C83.3286 160.172 83.2285 160.278 83.1284 160.381L82.8849 160.628C82.6747 160.834 82.4679 161.044 82.2643 161.25L82.2043 161.31L81.8073 161.702L81.4536 162.035L81.3035 162.178L81.0666 162.401L80.9232 162.534C80.8801 162.58 80.8344 162.623 80.7864 162.664C80.723 162.727 80.6596 162.784 80.5996 162.837L80.5162 162.91C80.1173 163.288 79.6938 163.64 79.2484 163.962C78.8162 164.267 78.405 164.6 78.0173 164.96L77.8272 165.143C77.7571 165.203 77.6937 165.27 77.6303 165.329C77.1132 165.842 76.6528 166.358 76.2958 166.77C76.2616 166.808 76.2293 166.848 76.1991 166.89C76.1909 166.893 76.1839 166.899 76.1791 166.907C75.9222 167.216 75.7387 167.452 75.6586 167.555L75.6153 167.609L74.7311 168.274L74.3308 168.577L73.5201 169.203L73.2799 169.386C72.6126 169.905 71.9187 170.454 71.3482 170.92L71.1614 171.076L71.1414 171.093L70.9679 171.236L70.9479 171.252C70.8311 171.349 70.7277 171.442 70.6309 171.525L70.6042 171.548L70.4274 171.708C70.3217 171.8 70.2246 171.902 70.1372 172.011C69.4999 173.012 68.7789 173.957 67.982 174.836C67.8452 174.979 67.7051 175.116 67.5616 175.249C67.2626 175.536 66.9259 175.781 66.5607 175.977C66.3632 176.075 66.1726 176.186 65.9902 176.31C70.2106 163.972 75.8855 148.795 82.5946 131.985C83.075 130.78 83.561 129.567 84.0526 128.344C84.6064 126.973 85.1624 125.593 85.7207 124.202L85.7707 124.085L86.0109 123.493C88.1461 118.236 90.3703 112.862 92.6834 107.371C92.7267 107.261 92.7734 107.155 92.8202 107.039L92.6834 106.889L92.9369 106.759C93.4907 105.428 94.0479 104.124 94.605 102.793C94.6651 102.656 94.7251 102.51 94.7852 102.373C94.8653 102.18 94.9487 101.991 95.0254 101.801C95.0521 101.741 95.0754 101.681 95.1021 101.625C95.1488 101.512 95.1989 101.398 95.2423 101.292C95.8094 99.961 96.3721 98.6422 96.9304 97.3356L102.809 103.891L103.056 104.16L107.159 108.669L107.409 108.939L108.687 110.343L109.378 111.101L109.711 111.464L113.822 115.979L113.875 116.039L114.069 116.249L108.18 125.083Z" fill="#3F3D56"/>
<path d="M137.582 51.4795L136.762 62.9626C136.762 62.9626 146.617 67.6211 146.907 65.9108C147.024 65.2453 148.308 64.1472 149.843 63.0558C152.262 61.3289 155.301 59.6085 155.301 59.6085C155.301 59.6085 145.389 44.7047 144.212 47.8193C143.781 48.9573 142.784 49.7525 141.689 50.3016C140.392 50.9111 139.006 51.3088 137.582 51.4795Z" fill="#FBBEBE"/>
<path opacity="0.1" d="M144.211 47.8193C143.781 48.9573 143.878 49.2201 142.787 49.7692C142.536 53.1432 142.543 57.1395 145.032 59.8182C146.361 61.2562 148.008 62.3649 149.843 63.0558C152.262 61.3289 155.301 59.6085 155.301 59.6085C155.301 59.6085 145.389 44.7047 144.211 47.8193Z" fill="black"/>
<path d="M145.957 41.7133C144.733 42.8427 143.744 44.2014 143.047 45.7118C142.35 47.2222 141.958 48.8548 141.893 50.5164C141.829 52.178 142.093 53.836 142.671 55.3957C143.249 56.9555 144.129 58.3864 145.261 59.6069C146.393 60.8273 147.756 61.8134 149.27 62.5088C150.785 63.2041 152.421 63.5952 154.087 63.6596C155.753 63.7241 157.416 63.4606 158.979 62.8842C160.543 62.3079 161.978 61.43 163.202 60.3006L163.332 60.1742C165.785 57.8762 167.222 54.7003 167.328 51.3452C167.433 47.9901 166.198 44.7307 163.894 42.284C161.59 39.8372 158.406 38.4036 155.042 38.2985C151.678 38.1933 148.41 39.4253 145.957 41.7233V41.7133Z" fill="#FBBEBE"/>
<path opacity="0.1" d="M108.841 121.989C108.421 122.538 107.723 122.418 106.602 120.957C106.082 120.321 105.514 119.723 104.904 119.171C104.791 119.064 104.671 118.954 104.554 118.838C103.31 117.697 101.715 116.336 99.9968 114.792L99.8867 114.695C99.1227 114.006 98.3253 113.278 97.5313 112.522L97.0575 112.07C95.9699 111.022 94.879 109.91 93.8381 108.742L93.7914 108.696C93.4077 108.27 93.0274 107.837 92.6504 107.418C92.6938 107.308 92.7405 107.202 92.7872 107.085L92.6504 106.935L92.9039 106.806C93.4578 105.475 94.0149 104.17 94.572 102.839C94.6321 102.703 94.6922 102.556 94.7522 102.42C94.8323 102.227 94.9157 102.037 94.9924 101.848C95.0191 101.788 95.0425 101.728 95.0692 101.671L95.4595 102.157C96.0934 102.949 96.7406 103.744 97.3945 104.533L97.4512 104.603C97.8215 105.045 98.1885 105.488 98.5588 105.934C98.5755 105.934 98.5889 105.971 98.6055 105.984C99.0159 106.473 99.4363 106.952 99.86 107.411L100.107 107.674C100.561 108.163 101.014 108.623 101.468 109.068C102.536 110.113 103.59 111.065 104.561 111.863C104.654 111.943 104.744 112.02 104.841 112.096C105.698 112.808 106.489 113.427 107.176 113.913L107.487 114.146L107.874 114.422C108.774 115.068 109.325 115.421 109.325 115.421C109.325 115.421 109.375 115.876 109.415 116.549C109.438 116.938 109.462 117.4 109.472 117.88C109.485 119.437 109.388 121.274 108.841 121.989Z" fill="black"/>
<path d="M108.841 121.989C108.411 122.245 107.767 121.959 106.84 120.744C106.297 120.082 105.705 119.463 105.068 118.891L105.035 118.861L104.718 118.562C103.517 117.464 102.005 116.166 100.381 114.702C100.343 114.672 100.307 114.64 100.274 114.605C99.3764 113.807 98.4489 112.942 97.5148 112.056C97.358 111.91 97.2012 111.757 97.041 111.601C96.0402 110.629 95.0393 109.604 94.0785 108.536L94.0351 108.486L92.794 107.102L92.6572 106.952L92.9108 106.822C93.4646 105.491 94.0217 104.187 94.5789 102.856C94.6389 102.719 94.699 102.573 94.759 102.437C94.8391 102.244 94.9225 102.054 94.9993 101.864C95.0259 101.804 95.0493 101.745 95.076 101.688C95.1227 101.575 95.1727 101.462 95.2161 101.355C95.9067 102.217 96.6173 103.099 97.3346 103.971C97.3429 103.977 97.3497 103.985 97.3546 103.994L97.6883 104.407C98.0719 104.869 98.4556 105.325 98.8393 105.784C99.1729 106.193 99.5332 106.589 99.8835 106.975C99.9435 107.045 100.007 107.112 100.07 107.178C100.134 107.245 100.234 107.358 100.314 107.445C101.711 108.925 103.196 110.321 104.761 111.624C104.851 111.704 104.945 111.78 105.038 111.857C105.865 112.542 106.629 113.138 107.283 113.627C107.407 113.714 107.523 113.803 107.637 113.887L108.024 114.163C108.968 114.828 109.545 115.204 109.545 115.204C109.545 115.204 109.625 115.97 109.669 116.991C109.685 117.414 109.695 117.876 109.692 118.349C109.682 119.933 109.502 121.596 108.841 121.989Z" fill="#5F5D7E"/>
<path opacity="0.1" d="M148.229 74.8418L113.822 115.973L110.85 119.53L110.413 120.052C110.207 119.471 109.966 118.902 109.692 118.349C109.619 118.202 109.542 118.046 109.455 117.886C108.942 116.859 108.248 115.933 107.407 115.151C107.283 115.044 107.156 114.945 107.03 114.855L106.819 114.715C106.617 114.589 106.403 114.483 106.179 114.399C105.416 114.05 104.722 113.568 104.13 112.975L103.864 112.729C102.408 111.257 101.069 109.675 99.8601 107.997C99.7834 107.894 99.71 107.794 99.6433 107.697C99.2496 107.162 99.0161 106.822 99.0161 106.822C99.0161 106.822 98.7625 106.516 98.3488 106.06C98.0152 105.674 97.5848 105.182 97.1211 104.683C96.4037 103.86 95.6095 103.106 94.749 102.433C94.8291 102.24 94.9125 102.051 94.9892 101.861C95.0159 101.801 95.0393 101.741 95.066 101.685C95.1127 101.571 95.1627 101.458 95.2061 101.352C95.7732 100.021 96.336 98.7021 96.8942 97.3955C97.8083 95.2659 98.7158 93.1585 99.6166 91.0733L100.09 89.9852L101.448 86.8574L101.969 85.6728L102.359 84.7744C103.78 81.54 105.187 78.3667 106.579 75.2544L128.355 55.955L130.977 54.7105L133.503 53.5193L135.311 54.0384L135.581 54.1116L137.336 54.6174H137.359L137.783 54.7405L138.654 54.99L139.084 60.7433V60.7932V60.9529L139.878 62.0909L140.372 62.8063L140.585 62.8895L141.49 63.2389L141.763 63.342L141.863 63.382L142.654 63.6881L144.899 64.5566L145.436 66.2203L145.77 67.2917L145.953 67.8674L146.13 68.2867L148.229 74.8418Z" fill="black"/>
<path d="M148.695 74.4092L113.875 116.033L110.872 119.616L110.842 119.53C110.523 118.651 110.128 117.802 109.661 116.991C109.578 116.845 109.485 116.695 109.391 116.548C108.948 115.818 108.39 115.163 107.74 114.609C107.613 114.509 107.486 114.416 107.356 114.332C107.259 114.267 107.159 114.207 107.056 114.153C106.923 114.083 106.786 114.022 106.645 113.97C105.854 113.607 105.136 113.103 104.527 112.482L104.257 112.233C103.26 111.24 102.327 110.186 101.461 109.078C100.997 108.489 100.587 107.947 100.257 107.501L100.04 107.202C99.9797 107.122 99.9263 107.045 99.8762 106.972C99.616 106.613 99.4659 106.393 99.4659 106.393C99.4659 106.393 98.465 105.175 97.3407 103.991C97.3358 103.981 97.329 103.974 97.3207 103.967C96.7409 103.326 96.1166 102.727 95.4524 102.174C95.3053 102.058 95.1491 101.955 94.9854 101.864C95.012 101.804 95.0354 101.744 95.0621 101.688C95.1088 101.575 95.1588 101.462 95.2022 101.355C95.7694 100.024 96.3321 98.7054 96.8903 97.3988C97.8045 95.2692 98.7119 93.1618 99.6127 91.0766L100.086 89.9885L101.444 86.8606L101.965 85.6761L102.355 84.7776C103.776 81.5433 105.183 78.37 106.575 75.2577C106.577 75.2467 106.577 75.2354 106.575 75.2244L128.811 55.5124L131.057 54.4476L133.959 53.0734L135.697 53.5725L135.968 53.649L137.385 54.0583L137.719 54.1515L138.113 54.2646L139.114 54.5541L139.561 60.5169L139.788 60.8497L139.824 60.9029L139.871 60.9728L140.562 61.9711L140.842 62.377L141.956 62.8096L143.344 63.3453L145.372 64.1306L146.066 66.2968L146.19 66.6828L146.37 67.2418L146.457 67.5146L146.513 67.6844L148.695 74.4092Z" fill="#E7EFFD"/>
<path opacity="0.1" d="M143.508 66.0805C143.508 66.0805 139.124 66.2901 138.65 66.7992C138.177 67.3083 137.039 68.5062 137.039 68.5062L135.317 72.9917C135.317 72.9917 132.161 77.5004 131.341 78.2591C130.52 79.0177 124.668 86.9571 124.668 86.9571L115.233 98.7131L102.796 114.04L97.201 115.294L96.9941 110.845L119.504 83.8925L123.897 78.5319C123.897 78.5319 132.285 69.408 133.239 68.5495C134.193 67.691 137.042 65.8376 137.042 65.8376C137.042 65.8376 138.917 63.1756 137.509 60.5469C136.101 57.9182 137.769 60.5968 137.769 60.5968L139.871 60.9029L140.418 62.3537C140.418 62.3537 144.022 64.4467 143.508 66.0805Z" fill="black"/>
<path d="M143.959 66.0971C143.959 66.0971 139.575 66.3068 139.101 66.8159C138.627 67.325 137.49 68.5229 137.49 68.5229L135.788 73.0083C135.788 73.0083 132.615 77.5171 131.785 78.2691C130.954 79.0211 125.112 86.9705 125.112 86.9705L115.681 98.7231L103.243 114.053L97.6484 115.304L97.4482 110.878L119.954 83.9258L124.352 78.5619C124.352 78.5619 132.739 69.4379 133.676 68.5795C134.614 67.721 137.48 65.8675 137.48 65.8675C137.48 65.8675 139.355 63.2056 137.947 60.5802C136.539 57.9548 138.21 60.6268 138.21 60.6268L140.312 60.9329L140.859 62.3837C140.859 62.3837 144.462 64.4634 143.959 66.0971Z" fill="#F37F27"/>
<path opacity="0.1" d="M149.336 63.6714C149.336 63.6714 149.39 64.2005 147.899 65.7245C146.407 67.2485 143.895 71.5908 143.895 71.5908C143.895 71.5908 142.944 64.9359 140.749 63.1923L149.336 63.6714Z" fill="black"/>
<path d="M149.799 63.2388C149.799 63.2388 149.856 63.7679 148.365 65.2886C146.873 66.8092 144.361 71.1582 144.361 71.1582C144.361 71.1582 143.41 64.5033 141.212 62.7563L149.799 63.2388Z" fill="#E7EFFD"/>
<path opacity="0.1" d="M140.298 51.433L140.605 63.0359C140.605 63.0359 132.398 60.6135 130.963 60.6335C129.529 60.6534 137.329 52.1484 137.329 52.1484L140.298 51.433Z" fill="black"/>
<path d="M140.552 50.7642L140.859 62.3671C140.859 62.3671 132.652 59.9447 131.217 59.9647C129.783 59.9846 137.579 51.4796 137.579 51.4796L140.552 50.7642Z" fill="#E7EFFD"/>
<path opacity="0.1" d="M149.133 63.4352C149.133 63.4352 150.134 63.8145 149.737 65.4317C149.34 67.0488 150.027 68.7159 150.027 68.7159C150.027 68.7159 155.485 76.8649 154.798 78.0062L157.68 81.5034C157.68 81.5034 158.611 82.8178 156.256 85.2102C153.901 87.6027 154.254 88.4446 154.254 88.4446C154.254 88.4446 153.097 92.0515 151.735 93.103C150.374 94.1545 150.838 95.8915 150.838 95.8915L133.593 102.756C133.593 102.756 128.178 107.415 127.114 110.08C126.05 112.745 119.107 122.268 119.107 122.268C119.107 122.268 118.61 121.42 118.176 121.892C117.743 122.365 113.379 127.919 113.379 127.919C113.379 127.919 111.564 130.031 111.22 131.07C110.877 132.108 107.237 135.548 107.237 135.548L105.158 138.626C105.158 138.626 100.454 140.217 98.8195 137.518C97.1847 134.82 102.242 122.525 102.242 122.525L109.402 111.058L116.985 100.287L122.857 93.7752L136.202 79.7232L144.326 69.6875C144.326 69.6875 147.945 63.5051 149.133 63.4352Z" fill="black"/>
<path d="M149.8 63.2389C149.8 63.2389 150.801 63.6149 150.404 65.2187C150.007 66.8226 150.691 68.503 150.691 68.503C150.691 68.503 156.152 76.652 155.465 77.7933L158.348 81.2905C158.348 81.2905 159.279 82.6049 156.923 84.9973C154.568 87.3898 154.921 88.2316 154.921 88.2316C154.921 88.2316 153.764 91.8386 152.403 92.8901C151.041 93.9416 151.505 95.6785 151.505 95.6785L134.253 102.53C134.253 102.53 128.865 107.218 127.781 109.88C126.697 112.542 119.774 122.065 119.774 122.065C119.774 122.065 119.277 121.217 118.843 121.689C118.41 122.162 114.046 127.716 114.046 127.716C114.046 127.716 112.231 129.829 111.887 130.87C111.544 131.912 107.904 135.345 107.904 135.345L105.822 138.427C105.822 138.427 101.121 140.014 99.4833 137.315C97.8453 134.617 102.93 122.322 102.93 122.322L110.099 110.859L117.682 100.087L123.544 93.5756L136.889 79.5236L145.013 69.4879C145.013 69.4879 148.633 63.2955 149.8 63.2389Z" fill="#0B6662"/>
<path opacity="0.1" d="M142.794 116.252L143.328 119.962C143.328 119.962 146.43 123.523 149.333 125.433L151.064 126.175L151.398 126.325L151.064 126.142C149.466 125.193 148.526 124.168 148.062 123.12C146.17 118.921 151.798 114.376 153.116 113.394C153.246 113.294 153.33 113.231 153.366 113.208H153.383H153.333C153.223 113.231 153.112 113.245 152.999 113.251C152.905 113.256 152.81 113.256 152.716 113.251L149.386 114.206L149.28 114.282L142.794 116.252Z" fill="black"/>
<path d="M150.801 94.2844L151.505 95.6653L149.42 97.8814C149.42 97.8814 150.808 98.9861 149.61 100.746C148.412 102.507 148.275 103.781 148.275 103.781C148.275 103.781 148.469 107.591 147.051 109.105L147.465 111.211C147.465 111.211 151.031 113.644 152.933 113.191C152.933 113.191 141.536 121.107 150.954 126.321C150.954 126.321 139.491 121.33 138.61 121.41C137.73 121.49 133.86 120.285 132.939 116.788C132.018 113.291 133.463 111.015 133.463 111.015C133.463 111.015 134.533 105.824 134.93 105.312C135.327 104.799 134.243 102.54 134.243 102.54L139.268 91.6689L150.801 94.2844Z" fill="#0B6662"/>
<path opacity="0.1" d="M140.548 50.7674V50.7874L140.061 51.4828L138.123 54.2613L137.789 54.7338L137.309 55.4292L136.455 56.667L132.855 60.2208L132.255 60.8131L126.52 66.4698L113.862 78.9745L104.641 84.2985C104.641 84.2985 103.323 84.964 101.972 85.6628L102.362 84.7643C103.783 81.53 105.19 78.3567 106.582 75.2444C106.584 75.2334 106.584 75.2221 106.582 75.2111C111.884 63.3686 116.961 52.4644 121.595 42.9146C121.673 42.9491 121.748 42.9903 121.819 43.0377C122.863 43.7331 124.098 44.4319 124.568 44.7014L124.765 44.8112C124.967 45.1345 125.19 45.4446 125.432 45.7396C125.816 46.2021 126.293 46.6546 126.686 46.6546C127.48 46.6546 131.237 49.0471 131.781 49.6494C132.029 49.8781 132.309 50.0707 132.612 50.2217C133.489 50.7109 134.663 51.1933 134.663 51.1933L137.406 51.6559L137.512 51.6758H137.546C138.283 51.7723 139.881 51.0769 140.372 50.8439L140.512 50.7807L140.548 50.7674Z" fill="black"/>
<path d="M140.555 50.7675L139.948 51.4929L137.746 54.1182L137.389 54.5475L137.362 54.5708L136.028 56.1647L132.104 60.0378L131.49 60.6434L127.087 64.9925L113.435 78.4754L104.213 83.7994L102.382 84.7344C103.803 81.5001 105.21 78.3268 106.602 75.2145C106.604 75.2035 106.604 75.1922 106.602 75.1812C111.903 63.3387 116.981 52.4345 121.615 42.8847C121.642 42.8314 121.665 42.7782 121.692 42.7283C122.95 43.5435 124.361 44.3088 124.361 44.3088C124.361 44.3088 124.451 44.4586 124.598 44.6682C124.854 45.0414 125.146 45.389 125.469 45.7064C125.681 45.9467 125.972 46.1046 126.289 46.1523C127.083 46.1523 130.84 48.5447 131.384 49.147C131.783 49.4913 132.233 49.7729 132.718 49.9822C133.485 50.3682 134.266 50.6876 134.266 50.6876L137.112 51.1734C137.866 51.2999 139.944 50.874 140.448 50.7641C140.476 50.767 140.504 50.767 140.532 50.7641H140.552L140.555 50.7675Z" fill="#0B6662"/>
<path opacity="0.1" d="M86.0143 124.614L85.6807 124.255L85.7307 124.139C85.814 124.304 85.9087 124.463 86.0143 124.614Z" fill="black"/>
<path opacity="0.1" d="M85.3343 128.514L82.5586 132.055C83.039 130.85 83.525 129.637 84.0165 128.414L85.3343 128.514Z" fill="black"/>
<path d="M98.8323 105.781L98.5553 105.94L98.3485 106.06L94.0648 108.549L94.0214 108.499L92.7803 107.115L92.6436 106.965L92.8971 106.836L97.1208 104.699L97.391 104.563L97.6846 104.417C98.0683 104.866 98.4486 105.322 98.8323 105.781Z" fill="#3F3D56"/>
<path opacity="0.1" d="M153.6 86.1119C153.6 86.1119 151.225 85.1137 149.767 85.7393C148.309 86.3648 153.6 86.1119 153.6 86.1119Z" fill="black"/>
<path opacity="0.1" d="M146.798 102.257C146.798 102.257 146.064 107.581 143.948 107.641C141.833 107.701 146.798 102.257 146.798 102.257Z" fill="black"/>
<path opacity="0.1" d="M103.427 99.6915C103.443 99.2389 106.429 86.4847 104.561 85.8857L103.427 99.6915Z" fill="black"/>
<path opacity="0.1" d="M145.956 41.7133C144.422 43.1287 143.262 44.9005 142.58 46.8709L142.657 46.9308C143.324 47.4033 144.302 47.0739 145.149 47.1272C145.669 47.1605 146.165 47.3552 146.568 47.684C146.972 48.0128 147.261 48.4592 147.398 48.9606C147.51 49.4913 147.472 50.0427 147.288 50.553C147.103 51.0632 146.78 51.512 146.353 51.8489C147.881 50.987 149.126 49.666 150.65 48.7976C152.175 47.9291 154.257 47.6263 155.391 48.7976C155.878 49.3033 156.235 50.0886 156.969 50.1053C157.41 50.1053 157.823 49.8224 158.264 49.7259C160.442 49.3 162.157 52.551 162.431 54.2713C162.701 55.935 162.718 58.2643 163.331 60.1576C164.546 59.0197 165.524 57.6544 166.21 56.1395C166.895 54.6246 167.275 52.9899 167.327 51.3286C167.38 49.6673 167.103 48.0121 166.514 46.4574C165.925 44.9026 165.034 43.4789 163.894 42.2674C162.753 41.0559 161.384 40.0803 159.865 39.3965C158.346 38.7127 156.707 38.3339 155.041 38.2818C153.376 38.2298 151.716 38.5054 150.157 39.0931C148.599 39.6807 147.171 40.5688 145.956 41.7067V41.7133Z" fill="black"/>
<path d="M158.498 49.5163C158.057 49.6095 157.647 49.9056 157.203 49.8956C156.473 49.8956 156.112 49.0937 155.625 48.5879C154.494 47.41 152.412 47.7095 150.888 48.5879C149.363 49.4664 148.119 50.7807 146.587 51.6426C147.015 51.3067 147.339 50.858 147.524 50.3475C147.708 49.8369 147.746 49.285 147.632 48.7543C147.495 48.2529 147.205 47.8065 146.802 47.4777C146.399 47.1489 145.903 46.9542 145.383 46.9209C144.536 46.8676 143.565 47.197 142.894 46.7212C142.224 46.2454 142.264 45.1573 142.687 44.372C143.111 43.5867 143.808 42.9678 144.322 42.2324C145.296 40.8415 145.56 39.1246 146.324 37.6139C147.249 35.788 148.817 34.3665 150.728 33.6209C151.728 33.2349 152.803 33.0586 153.81 32.6759C155.342 32.0969 156.709 31.0521 158.281 30.6195C160.91 29.8941 163.809 31.2384 164.79 33.6342C165.26 34.7755 165.324 36.0832 165.844 37.2013C166.545 38.6987 167.969 39.6736 169.244 40.7118C170.518 41.75 171.759 43.041 171.863 44.7414C171.983 46.6846 170.561 48.558 170.528 50.5145C170.528 51.3364 170.752 52.1251 170.792 52.9403C170.832 53.7555 170.628 54.6839 169.951 55.2096C169.077 55.8918 167.616 55.7786 167.128 56.7636C167.008 57.0697 166.949 57.3964 166.955 57.7252C166.85 59.4394 166.348 61.1058 165.487 62.5933C162.895 61.1093 163.105 56.7137 162.678 54.075C162.391 52.3413 160.68 49.0904 158.498 49.5163Z" fill="#7C5C5C"/>
<path opacity="0.1" d="M143.491 92.4409C143.491 92.4409 134.57 100.68 134.397 102.254C134.223 103.828 143.491 92.4409 143.491 92.4409Z" fill="black"/>
<g opacity="0.1">
<path d="M167.772 55.9284C168.239 54.9668 169.654 55.0499 170.531 54.4177C170.403 54.7227 170.2 54.9905 169.941 55.1964C169.3 55.6955 168.343 55.772 167.686 56.1613C167.707 56.081 167.736 56.0029 167.772 55.9284Z" fill="black"/>
<path d="M147.321 50.7608C148.812 49.9023 150.043 48.6112 151.541 47.7661C153.039 46.9209 155.148 46.5948 156.279 47.7661C156.766 48.2718 157.126 49.0571 157.857 49.0738C158.3 49.0738 158.711 48.7876 159.151 48.6944C161.333 48.2685 163.045 51.5195 163.321 53.2398C163.738 55.8186 163.548 60.0644 165.954 61.645C165.807 61.9777 165.653 62.2739 165.477 62.58C162.884 61.096 163.095 56.7004 162.668 54.0617C162.391 52.3413 160.666 49.0904 158.497 49.5163C158.057 49.6095 157.647 49.9056 157.203 49.8956C156.472 49.8956 156.112 49.0937 155.625 48.5879C154.494 47.41 152.412 47.7095 150.887 48.5879C149.363 49.4664 148.118 50.7808 146.587 51.6426C146.887 51.3998 147.137 51.1001 147.321 50.7608Z" fill="black"/>
<path d="M143.341 43.5402C142.917 44.3255 142.864 45.407 143.548 45.8894C144.232 46.3719 145.189 46.0359 146.037 46.0891C146.557 46.1227 147.053 46.3175 147.457 46.6462C147.861 46.9749 148.152 47.4211 148.289 47.9225C148.395 48.4277 148.365 48.952 148.201 49.4415C148.036 49.931 147.744 50.3681 147.355 50.7076C147.686 50.1096 147.785 49.4105 147.632 48.7444C147.495 48.243 147.205 47.7966 146.802 47.4678C146.399 47.139 145.903 46.9443 145.383 46.911C144.536 46.8577 143.565 47.1872 142.894 46.7113C142.224 46.2355 142.264 45.1474 142.687 44.3621C142.95 43.9124 143.26 43.4919 143.611 43.1077C143.513 43.2466 143.423 43.391 143.341 43.5402Z" fill="black"/>
<path d="M146.968 36.7821C146.214 38.2928 145.967 40.0097 144.966 41.4006C144.769 41.6835 144.546 41.9463 144.322 42.2092C145.29 40.8216 145.553 39.108 146.304 37.604C146.644 36.9267 147.077 36.3006 147.592 35.7439C147.357 36.0731 147.148 36.4203 146.968 36.7821Z" fill="black"/>
</g>
<path d="M171.084 119.375C171.155 119.375 171.213 119.317 171.213 119.246C171.213 119.175 171.155 119.117 171.084 119.117C171.013 119.117 170.955 119.175 170.955 119.246C170.955 119.317 171.013 119.375 171.084 119.375Z" fill="#E6E8EC"/>
<path d="M273.334 252.879C273.414 256.872 240.255 252.12 241.496 248.886L241.323 248.936C237.146 249.881 215.077 242.191 216.848 238.687C198.746 222.542 190.569 208.041 206.78 175.475C206.853 175.26 206.895 175.036 206.906 174.809C206.906 174.73 206.936 174.65 206.95 174.573C207.006 174.287 207.06 174.001 207.117 173.715C207.117 173.668 207.133 173.625 207.143 173.582C207.153 173.538 207.173 173.442 207.187 173.372C207.654 170.97 208.173 168.557 208.745 166.135C211.57 153.867 215.563 141.897 220.672 130.388C220.778 130.158 220.878 129.928 220.985 129.702C221.045 129.566 221.109 129.429 221.172 129.296L221.582 128.404C221.599 128.364 221.619 128.328 221.636 128.288C221.703 128.155 221.763 128.022 221.826 127.892C226.036 118.908 230.747 111.022 235.701 104.543C233.366 103.212 225.816 93.0498 227.694 85.0372C229.696 76.5322 240.642 73.2846 243.358 73.9134C246.074 74.5423 246.661 81.9526 244.672 90.4577C244.214 92.4443 243.624 94.3984 242.908 96.3074C251.582 87.7425 260.663 83.643 268.963 85.5696C275.849 87.1701 281.371 92.727 285.334 101.146C285.414 100.756 285.504 100.364 285.595 99.9676C287.596 91.4626 291.39 85.0772 294.109 85.7061C296.828 86.3349 305.979 95.7384 303.99 104.243C302.673 109.9 291.98 112.609 289.905 114.955C293.989 133.203 295.109 160.109 297.982 186.998C301.792 222.739 295.196 241.835 273.334 252.879Z" fill="#F37F27"/>
<path opacity="0.2" d="M268.81 134.43C267.302 140.879 258.607 144.463 248.769 143.029C247.915 142.904 247.055 142.743 246.19 142.543C245.478 142.376 244.783 142.189 244.105 141.981C234.393 139.009 227.967 131.842 229.499 125.293C230.646 120.368 235.998 117.111 242.844 116.489C244.332 116.36 245.828 116.35 247.318 116.459C248.934 116.579 250.538 116.827 252.115 117.201C262.971 119.706 270.444 127.426 268.81 134.43Z" fill="black"/>
<path d="M264.441 138.413C265.468 134.021 261.024 129.234 254.515 127.721C248.007 126.208 241.898 128.542 240.872 132.934C239.846 137.326 244.29 142.113 250.798 143.626C257.307 145.139 263.415 142.805 264.441 138.413Z" fill="#3F3D56"/>
<path d="M246.166 120.528C244.708 124.005 243.724 123.12 242.496 122.614C241.269 122.109 240.285 122.162 241.746 118.685C242.063 117.929 242.428 117.194 242.84 116.485C244.328 116.357 245.824 116.347 247.314 116.455C247.113 117.857 246.727 119.227 246.166 120.528Z" fill="white"/>
<path d="M248.77 143.029C247.915 142.904 247.056 142.742 246.191 142.543C245.479 142.376 244.784 142.189 244.105 141.98C244.889 138.403 246.137 138.117 247.402 138.377C248.666 138.636 249.493 139.392 248.77 143.029Z" fill="white"/>
<path opacity="0.2" d="M255.608 109.604C259.69 109.604 262.998 106.304 262.998 102.234C262.998 98.1631 259.69 94.8633 255.608 94.8633C251.527 94.8633 248.219 98.1631 248.219 102.234C248.219 106.304 251.527 109.604 255.608 109.604Z" fill="black"/>
<path opacity="0.1" d="M239.887 89.6406C240.598 86.5962 239.838 83.8175 238.189 83.4342C236.54 83.0508 234.627 85.208 233.915 88.2523C233.204 91.2967 233.964 94.0754 235.613 94.4588C237.262 94.8421 239.176 92.685 239.887 89.6406Z" fill="black"/>
<path opacity="0.12" d="M296.023 102.277C297.915 99.7854 298.356 96.9388 297.006 95.9189C295.656 94.899 293.028 96.092 291.135 98.5836C289.242 101.075 288.802 103.922 290.152 104.942C291.501 105.962 294.13 104.769 296.023 102.277Z" fill="black"/>
<path d="M255.892 98.61C255.758 98.5787 255.622 98.5554 255.485 98.5402C255.666 98.947 255.708 99.4016 255.605 99.8345C255.513 100.228 255.307 100.587 255.013 100.865C254.719 101.144 254.349 101.33 253.95 101.401C253.551 101.471 253.14 101.424 252.767 101.264C252.395 101.104 252.078 100.838 251.855 100.5C251.728 100.753 251.631 101.02 251.565 101.295C251.404 101.987 251.452 102.711 251.703 103.376C251.955 104.04 252.398 104.616 252.976 105.029C253.555 105.443 254.244 105.676 254.956 105.699C255.667 105.723 256.37 105.536 256.975 105.161C257.58 104.786 258.06 104.241 258.355 103.595C258.65 102.948 258.746 102.229 258.631 101.528C258.516 100.827 258.195 100.176 257.71 99.6567C257.224 99.1373 256.595 98.7731 255.902 98.61H255.892Z" fill="#3F3D56"/>
<path opacity="0.2" d="M245.329 111.877C245.022 113.191 244.635 112.748 244.061 112.615C243.488 112.482 242.947 112.709 243.254 111.394C243.561 110.08 245.176 107.854 245.176 107.854C245.176 107.854 245.636 110.562 245.329 111.877Z" fill="black"/>
<path opacity="0.2" d="M259.458 91.4426C259.151 92.7736 258.764 92.3144 258.19 92.1813C257.616 92.0482 257.076 92.2745 257.383 90.9601C257.69 89.6458 259.305 87.4197 259.305 87.4197C259.305 87.4197 259.765 90.1249 259.458 91.4426Z" fill="black"/>
<path opacity="0.2" d="M272.573 100.064C272.266 101.378 271.879 100.936 271.306 100.803C270.732 100.67 270.191 100.896 270.498 99.5816C270.805 98.2672 272.42 96.0411 272.42 96.0411C272.42 96.0411 272.877 98.7497 272.573 100.064Z" fill="black"/>
<path opacity="0.2" d="M276.196 112.166C275.889 113.481 275.505 113.038 274.932 112.905C274.358 112.772 273.817 112.998 274.124 111.684C274.431 110.369 276.042 108.143 276.042 108.143C276.042 108.143 276.506 110.849 276.196 112.166Z" fill="black"/>
<path opacity="0.2" d="M241.496 248.187L241.323 248.922C237.146 249.867 215.077 242.178 216.848 238.674L241.496 248.187Z" fill="black"/>
<path opacity="0.2" d="M241.496 248.873L241.322 248.922L241.496 248.187C247.835 246.34 273.333 252.879 273.333 252.879C273.413 256.858 240.255 252.12 241.496 248.873Z" fill="black"/>
<g opacity="0.1">
<path d="M244.882 137.096C243.194 144.666 236.178 154.602 225.765 163.143C220.058 167.802 213.732 171.65 206.966 174.576C207.029 174.244 207.096 173.911 207.159 173.578C207.64 171.109 208.174 168.627 208.761 166.131C211.586 153.864 215.58 141.894 220.688 130.384C220.794 130.155 220.895 129.925 221.001 129.699C221.061 129.562 221.125 129.426 221.188 129.293C228.141 126.032 234.5 124.721 238.954 125.739C240.465 126.042 241.864 126.755 242.997 127.799C243.194 127.986 243.379 128.185 243.551 128.394C244.54 129.65 245.122 131.176 245.219 132.77C245.329 134.221 245.216 135.68 244.882 137.096Z" fill="black"/>
</g>
<g opacity="0.1">
<path d="M244.329 136.23C242.641 143.801 235.625 153.736 225.209 162.278C219.724 166.757 213.665 170.489 207.193 173.375C207.66 170.973 208.18 168.56 208.751 166.138C211.576 153.871 215.57 141.9 220.678 130.391C220.785 130.161 220.885 129.932 220.992 129.705C221.052 129.569 221.115 129.432 221.179 129.299L221.589 128.408L221.833 127.895C228.318 125.034 234.21 123.922 238.404 124.88C239.916 125.184 241.315 125.898 242.447 126.943C242.644 127.13 242.829 127.327 243.001 127.536C243.997 128.79 244.586 130.318 244.689 131.915C244.791 133.363 244.67 134.819 244.329 136.23Z" fill="black"/>
</g>
<path d="M244.245 136.583C242.547 144.153 235.541 154.089 225.129 162.631C219.643 167.107 213.585 170.835 207.113 173.718C207.113 173.671 207.13 173.628 207.14 173.585C207.15 173.542 207.17 173.445 207.183 173.375C207.65 170.973 208.17 168.56 208.741 166.138C211.566 153.871 215.56 141.9 220.668 130.391C220.775 130.161 220.875 129.932 220.982 129.705C221.042 129.569 221.105 129.432 221.169 129.299L221.579 128.408C221.596 128.368 221.616 128.331 221.633 128.291C228.162 125.393 234.093 124.265 238.314 125.23C239.825 125.536 241.224 126.249 242.357 127.293C242.555 127.479 242.74 127.678 242.911 127.888C243.901 129.144 244.483 130.67 244.579 132.264C244.69 133.712 244.577 135.169 244.245 136.583Z" fill="#F37F27"/>
<path opacity="0.1" d="M272.587 211.532C277.141 192.045 265.562 172.698 246.726 168.32C227.89 163.941 208.928 176.188 204.374 195.675C199.821 215.162 211.399 234.509 230.235 238.888C249.071 243.266 268.033 231.019 272.587 211.532Z" fill="black"/>
<path d="M272.425 212.233C276.978 192.746 265.4 173.399 246.564 169.021C227.728 164.642 208.766 176.889 204.212 196.376C199.658 215.863 211.237 235.21 230.073 239.588C248.909 243.967 267.871 231.72 272.425 212.233Z" fill="#F37F27"/>
<path d="M241.213 194.621C241.145 194.912 241.02 195.187 240.846 195.429C240.672 195.672 240.451 195.878 240.197 196.036C239.684 196.355 239.064 196.457 238.475 196.32C237.887 196.183 237.376 195.819 237.057 195.307C236.738 194.795 236.635 194.177 236.772 193.59C237.059 192.365 237.907 193.22 239.131 193.503C240.355 193.786 241.49 193.4 241.213 194.621Z" fill="#0B6662"/>
<g opacity="0.1">
<path d="M265.566 85.8924C272.449 87.4929 277.974 93.0498 281.937 101.465C282.017 101.079 282.104 100.686 282.197 100.29C282.437 99.2589 282.708 98.2606 282.995 97.2957C279.248 90.9901 274.417 86.8374 268.619 85.4898C265.92 84.8806 263.12 84.867 260.415 85.4498C262.144 85.3532 263.879 85.5022 265.566 85.8924Z" fill="black"/>
<path d="M297.631 186.922C294.759 160.032 293.628 133.126 289.554 114.878C291.629 112.549 302.322 109.814 303.64 104.167C305.642 95.6619 296.47 86.2618 293.758 85.6296C293.091 85.4732 292.33 85.7527 291.563 86.3949C294.946 88.3115 302.399 96.8066 300.597 104.556C299.263 110.213 288.587 112.922 286.512 115.267C290.589 133.525 291.706 160.431 294.592 187.321C298.409 223.058 291.813 242.151 269.951 253.205C269.951 253.691 269.47 254.047 268.616 254.293C271.285 254.173 273.033 253.721 273.013 252.806C294.852 241.755 301.448 222.659 297.631 186.922Z" fill="black"/>
<path d="M239.951 74.2362C242.667 74.8651 243.254 82.2721 241.269 90.7805C240.809 92.767 240.218 94.7212 239.501 96.6302C240.88 95.2726 242.265 94.0292 243.658 92.9001C243.895 92.0849 244.118 91.2364 244.325 90.3845C246.327 81.8762 245.723 74.4692 243.01 73.8369C242.296 73.6706 241.009 73.777 239.471 74.1697C239.632 74.1777 239.793 74.2 239.951 74.2362Z" fill="black"/>
</g>
<g opacity="0.1">
<path d="M292.146 195.097C284.289 198.641 268.509 183.238 260.342 165.24C254.787 152.988 252.895 140.982 254.737 133.449C255.059 132.032 255.597 130.673 256.332 129.419C257.131 128.032 258.336 126.921 259.785 126.235C260.032 126.122 260.286 126.026 260.545 125.945C262.024 125.509 263.595 125.486 265.086 125.879C272.686 127.676 282.278 138.037 288.79 152.402C296.954 170.397 300.003 191.55 292.146 195.097Z" fill="black"/>
<g opacity="0.1">
<path d="M263.231 139.598C262.351 140.403 259.228 138.437 256.225 135.199C255.685 134.613 255.188 134.024 254.737 133.449C255.059 132.032 255.597 130.673 256.332 129.419C257.434 130.287 258.463 131.244 259.408 132.281C262.391 135.502 264.095 138.789 263.231 139.598Z" fill="black"/>
<path d="M265.086 125.879C265.858 126.553 266.593 127.269 267.288 128.022C270.271 131.256 271.959 134.53 271.092 135.342C270.224 136.154 267.088 134.184 264.106 130.947C262.438 129.153 261.186 127.346 260.546 125.955L265.086 125.879Z" fill="black"/>
</g>
</g>
<g opacity="0.1">
<path d="M293.178 193.859C285.321 197.406 269.541 182 261.374 164.005C255.815 151.75 253.924 139.744 255.765 132.211C256.088 130.794 256.627 129.435 257.363 128.181C258.162 126.794 259.367 125.682 260.816 124.997C261.063 124.887 261.316 124.791 261.574 124.711C263.053 124.271 264.626 124.248 266.118 124.644C273.714 126.438 283.306 136.803 289.822 151.164C297.985 169.159 301.031 190.312 293.178 193.859Z" fill="black"/>
</g>
<path d="M292.661 194.478C284.807 198.025 269.024 182.619 260.86 164.621C255.302 152.369 253.41 140.363 255.252 132.83C255.574 131.413 256.113 130.054 256.85 128.8C257.647 127.413 258.851 126.302 260.299 125.616C260.547 125.505 260.801 125.408 261.06 125.326C262.539 124.89 264.11 124.867 265.601 125.26C273.201 127.057 282.792 137.422 289.308 151.783C297.468 169.775 300.518 190.931 292.661 194.478Z" fill="#F37F27"/>
<path d="M347.412 204.284C347.412 204.284 349.293 206.737 346.544 210.443C343.795 214.15 341.54 217.278 342.441 219.591C342.441 219.591 346.591 212.706 349.97 212.603C353.35 212.5 351.128 208.424 347.412 204.284Z" fill="#F37F27"/>
<path opacity="0.1" d="M347.411 204.284C347.576 204.52 347.706 204.779 347.795 205.053C351.091 208.916 352.849 212.52 349.68 212.61C346.727 212.693 343.187 217.957 342.34 219.288C342.37 219.388 342.403 219.491 342.44 219.591C342.44 219.591 346.59 212.706 349.97 212.603C353.349 212.5 351.127 208.424 347.411 204.284Z" fill="black"/>
<path d="M350.911 207.412C350.911 208.277 350.815 208.976 350.694 208.976C350.574 208.976 350.478 208.277 350.478 207.412C350.478 206.547 350.598 206.956 350.718 206.956C350.838 206.956 350.911 206.547 350.911 207.412Z" fill="#FFD037"/>
<path d="M352.112 208.444C351.352 208.856 350.688 209.109 350.631 209.003C350.574 208.896 351.141 208.477 351.902 208.064C352.663 207.652 352.366 207.951 352.422 208.064C352.479 208.177 352.873 208.041 352.112 208.444Z" fill="#FFD037"/>
<path d="M337.47 204.284C337.47 204.284 335.588 206.737 338.34 210.443C341.093 214.15 343.345 217.278 342.441 219.591C342.441 219.591 338.29 212.706 334.914 212.603C331.538 212.5 333.756 208.424 337.47 204.284Z" fill="#F37F27"/>
<path opacity="0.1" d="M337.469 204.284C337.305 204.521 337.176 204.78 337.085 205.053C333.789 208.916 332.034 212.52 335.204 212.61C338.153 212.693 341.693 217.957 342.544 219.288C342.516 219.391 342.483 219.492 342.443 219.591C342.443 219.591 338.293 212.706 334.917 212.603C331.541 212.5 333.756 208.424 337.469 204.284Z" fill="black"/>
<path d="M333.959 207.412C333.959 208.277 334.056 208.976 334.176 208.976C334.296 208.976 334.393 208.277 334.393 207.412C334.393 206.547 334.273 206.956 334.152 206.956C334.032 206.956 333.959 206.547 333.959 207.412Z" fill="#FFD037"/>
<path d="M332.772 208.444C333.533 208.856 334.197 209.109 334.253 209.003C334.31 208.896 333.74 208.477 332.979 208.064C332.218 207.652 332.518 207.951 332.462 208.064C332.405 208.177 332.011 208.041 332.772 208.444Z" fill="#FFD037"/>
<path opacity="0.1" d="M342.444 238.368C353.311 238.368 362.121 237.019 362.121 235.356C362.121 233.693 353.311 232.345 342.444 232.345C331.576 232.345 322.767 233.693 322.767 235.356C322.767 237.019 331.576 238.368 342.444 238.368Z" fill="#F37F27"/>
<path d="M352.569 216.28L352.476 217.049L352.342 218.13L352.289 218.583L352.155 219.664L352.099 220.116L351.969 221.198L350.461 233.51C350.327 234.611 348.526 235.466 346.354 235.466H338.53C336.355 235.466 334.557 234.611 334.423 233.51L332.915 221.198L332.782 220.116L332.729 219.664L332.595 218.583L332.538 218.13L332.408 217.049L332.312 216.28C332.238 215.658 333.212 215.135 334.44 215.135H350.454C351.672 215.135 352.642 215.658 352.569 216.28Z" fill="#0B6662"/>
<path d="M352.476 217.048L352.345 218.13H332.542L332.408 217.048H352.476Z" fill="#9D9CB5"/>
<path d="M352.288 218.583L352.158 219.664H332.728L332.595 218.583H352.288Z" fill="#9D9CB5"/>
<path d="M352.099 220.116L351.968 221.198H332.915L332.785 220.116H352.099Z" fill="#9D9CB5"/>
<path d="M116.437 227.257C116.437 227.257 119.073 230.694 115.219 235.885C111.366 241.076 108.19 245.459 109.474 248.696C109.474 248.696 115.289 239.046 120.02 238.92C124.751 238.794 121.625 233.054 116.437 227.257Z" fill="#F37F27"/>
<path opacity="0.1" d="M116.438 227.257C116.668 227.59 116.849 227.953 116.978 228.335C121.592 233.746 124.054 238.794 119.614 238.92C115.48 239.04 110.523 246.41 109.335 248.274C109.375 248.417 109.422 248.556 109.475 248.696C109.475 248.696 115.29 239.046 120.021 238.92C124.752 238.794 121.626 233.054 116.438 227.257Z" fill="black"/>
<path d="M121.322 231.639C121.322 232.851 121.185 233.829 121.018 233.829C120.852 233.829 120.715 232.851 120.715 231.639C120.715 230.428 120.885 231.001 121.048 231.001C121.212 231.001 121.322 230.428 121.322 231.639Z" fill="#FFD037"/>
<path d="M123.004 233.084C121.939 233.663 121.002 234.012 120.929 233.866C120.855 233.719 121.649 233.13 122.713 232.535C123.778 231.939 123.357 232.378 123.437 232.535C123.517 232.691 124.068 232.505 123.004 233.084Z" fill="#FFD037"/>
<path d="M102.499 227.257C102.499 227.257 99.8599 230.694 103.713 235.885C107.567 241.076 110.743 245.459 109.458 248.696C109.458 248.696 103.647 239.046 98.9158 238.92C94.185 238.794 97.2943 233.054 102.499 227.257Z" fill="#F37F27"/>
<path opacity="0.1" d="M102.499 227.257C102.267 227.59 102.085 227.954 101.958 228.339C97.3411 233.749 94.8823 238.797 99.3194 238.923C103.453 239.043 108.414 246.414 109.602 248.277C109.562 248.42 109.514 248.561 109.458 248.7C109.458 248.7 103.647 239.05 98.9158 238.923C94.185 238.797 97.2943 233.054 102.499 227.257Z" fill="black"/>
<path d="M97.5977 231.639C97.5977 232.851 97.7311 233.829 97.9013 233.829C98.0714 233.829 98.2049 232.851 98.2049 231.639C98.2049 230.428 98.0347 231.001 97.8712 231.001C97.7078 231.001 97.5977 230.428 97.5977 231.639Z" fill="#FFD037"/>
<path d="M95.9167 233.084C96.981 233.663 97.9185 234.012 97.9885 233.866C98.0586 233.719 97.2712 233.13 96.207 232.535C95.1427 231.939 95.5631 232.378 95.4797 232.535C95.3963 232.691 94.8491 232.505 95.9167 233.084Z" fill="#FFD037"/>
<path opacity="0.1" d="M109.462 275C124.683 275 137.022 273.111 137.022 270.781C137.022 268.451 124.683 266.562 109.462 266.562C94.2407 266.562 81.9014 268.451 81.9014 270.781C81.9014 273.111 94.2407 275 109.462 275Z" fill="#F37F27"/>
<path d="M123.647 244.061L123.513 245.136L123.326 246.653L123.25 247.285L123.066 248.803L122.986 249.435L122.803 250.949L120.691 268.195C120.504 269.733 117.982 270.934 114.939 270.934H103.98C100.934 270.934 98.4182 269.733 98.228 268.195L96.1162 250.966L95.9327 249.452L95.856 248.819L95.6658 247.302L95.5891 246.67L95.4056 245.152L95.2721 244.078C95.1687 243.206 96.5299 242.474 98.2547 242.474H120.667C122.386 242.457 123.753 243.189 123.647 244.061Z" fill="#0B6662"/>
<path d="M123.514 245.136L123.33 246.653H95.5931L95.4062 245.136H123.514Z" fill="#9D9CB5"/>
<path d="M123.254 247.285L123.067 248.803H95.8567L95.6699 247.285H123.254Z" fill="#9D9CB5"/>
<path d="M122.987 249.435L122.804 250.949H96.1171L95.9336 249.435H122.987Z" fill="#9D9CB5"/>
</g>
<defs>
<linearGradient id="paint0_linear_377_1874" x1="89.7326" y1="189.477" x2="170.434" y2="33.7119" gradientUnits="userSpaceOnUse">
<stop stop-color="#808080" stop-opacity="0.25"/>
<stop offset="0.54" stop-color="#808080" stop-opacity="0.12"/>
<stop offset="1" stop-color="#808080" stop-opacity="0.1"/>
</linearGradient>
<clipPath id="clip0_377_1874">
<rect width="373" height="275" fill="white"/>
</clipPath>
</defs>
</svg>
