<svg width="60" height="60" viewBox="0 0 60 60" fill="none" xmlns="http://www.w3.org/2000/svg">
<g clip-path="url(#clip0_409_239)">
<circle cx="30.5" cy="30.5" r="22.5" fill="white"/>
<path d="M60 30C60 46.5685 46.5685 60 30 60C13.4315 60 0 46.5685 0 30C0 13.4315 13.4315 0 30 0C46.5685 0 60 13.4315 60 30Z" fill="#F37F27"/>
<path d="M26.3476 27.0401C25.4982 26.7926 24.687 26.5817 23.9141 26.4073C23.5955 25.3991 23.4347 24.3477 23.4373 23.2904C23.4373 18.6772 26.4024 14.9373 30.0601 14.9373C33.7177 14.9373 36.68 18.6737 36.68 23.2876C36.6822 24.2953 36.5362 25.2979 36.2469 26.2632C35.285 26.4648 34.2603 26.7237 33.1728 27.0401C31.6259 27.4916 30.3751 27.9387 29.7584 28.1687C29.1453 27.9387 27.8945 27.4916 26.3476 27.0401ZM17.3511 33.0125C16.584 33.0125 15.8341 33.24 15.1963 33.6662C14.5585 34.0924 14.0613 34.6981 13.7678 35.4069C13.4743 36.1156 13.3975 36.8955 13.5472 37.6478C13.6969 38.4002 14.0664 39.0913 14.6089 39.6336C15.1514 40.176 15.8425 40.5454 16.5949 40.6949C17.3473 40.8445 18.1271 40.7676 18.8358 40.4739C19.5445 40.1803 20.1502 39.6831 20.5762 39.0452C21.0023 38.4073 21.2297 37.6573 21.2295 36.8902C21.2293 35.8617 20.8206 34.8754 20.0933 34.1482C19.366 33.421 18.3796 33.0125 17.3511 33.0125ZM42.6488 33.0125C41.8817 33.0125 41.1318 33.24 40.494 33.6662C39.8562 34.0924 39.3591 34.6981 39.0656 35.4069C38.772 36.1156 38.6953 36.8955 38.845 37.6478C38.9947 38.4002 39.3641 39.0913 39.9066 39.6336C40.4491 40.176 41.1402 40.5454 41.8926 40.6949C42.645 40.8445 43.4249 40.7676 44.1335 40.4739C44.8422 40.1803 45.4479 39.6831 45.874 39.0452C46.3001 38.4073 46.5274 37.6573 46.5273 36.8902C46.5271 35.8618 46.1185 34.8756 45.3913 34.1485C44.6641 33.4213 43.6779 33.0127 42.6495 33.0125H42.6488ZM37.6461 36.8902C37.6472 35.9229 37.9283 34.9765 38.4556 34.1655C38.9829 33.3544 39.7338 32.7134 40.6175 32.3199V26.8672C36.083 26.8672 29.7584 29.3731 29.7584 29.3731C29.7584 29.3731 23.4338 26.8672 18.8994 26.8672V32.135C19.9031 32.462 20.7776 33.0982 21.3977 33.9525C22.0178 34.8067 22.3518 35.8353 22.3518 36.8909C22.3518 37.9465 22.0178 38.9751 21.3977 39.8294C20.7776 40.6836 19.9031 41.3198 18.8994 41.6469V42.1391C23.4338 42.1391 29.7584 45.0626 29.7584 45.0626C29.7584 45.0626 36.0859 42.1412 40.6175 42.1412V41.4605C39.7338 41.067 38.9829 40.426 38.4556 39.615C37.9283 38.804 37.6472 37.8576 37.6461 36.8902Z" fill="white"/>
</g>
<defs>
<clipPath id="clip0_409_239">
<rect width="60" height="60" fill="white"/>
</clipPath>
</defs>
</svg>
