<svg width="70" height="70" viewBox="0 0 70 70" fill="none" xmlns="http://www.w3.org/2000/svg">
<path d="M35 70C54.33 70 70 54.33 70 35C70 15.67 54.33 0 35 0C15.67 0 0 15.67 0 35C0 54.33 15.67 70 35 70Z" fill="white"/>
<path d="M26.2078 1.00155C19.3745 2.96043 14.7734 5.60265 10.0812 10.2948C1.06123 19.4515 -2.21876 32.7536 1.51678 45.1903C4.84232 56.2602 13.7256 65.1435 24.7956 68.469C37.3688 72.2501 50.7166 68.9246 59.8732 59.6313C63.9732 55.5313 66.8887 50.7024 68.6198 45.1903C69.7132 41.5458 69.8498 40.4069 69.8498 34.9403C69.8498 29.5648 69.6676 28.2892 68.5743 24.6903C66.8887 19.1326 64.0187 14.3948 59.8276 10.1582C53.131 3.5071 45.6144 0.318222 35.7289 0.0448914C30.9911 -0.091774 29.7155 0.0448914 26.2078 1.00155ZM43.2455 12.2082C45.7966 12.7548 48.4388 14.5315 49.6232 16.4904C51.8554 20.0892 51.7643 25.647 49.4866 29.0181L48.4388 30.5214L50.7166 32.8447C53.541 35.7147 54.6343 38.5392 54.6343 42.6847C54.5888 47.6502 52.6754 51.3858 48.6666 54.3469C44.4299 57.4446 42.3799 57.8546 31.6289 57.9002L22.0622 57.9458L21.9256 35.3958C21.88 23.0048 21.9256 12.5726 22.0622 12.2537C22.3356 11.5704 40.1477 11.4793 43.2455 12.2082Z" fill="#0C996E"/>
<path d="M28.6677 26.057C28.6677 30.4303 28.8044 34.0292 28.9411 34.0292C29.0777 34.0292 29.8066 33.6192 30.5355 33.0725C31.2644 32.5714 33.3144 31.6603 35.091 31.0681C42.6532 28.4714 45.9332 24.7359 43.9743 20.9092C42.7443 18.5404 41.2866 18.0848 34.5899 18.0848H28.6677V26.057Z" fill="#0C996E"/>
<path d="M37.5511 36.5803C33.8611 38.0381 32.0844 39.0403 30.7178 40.4069L28.8955 42.2292L28.7589 47.0125L28.5767 51.7958H33.6333C38.9633 51.7958 40.9677 51.2947 44.2021 49.1991C47.6644 46.9214 48.8032 42.2747 46.8444 38.2658C45.8877 36.307 44.0199 34.4392 43.0633 34.5303C42.7899 34.5303 40.3299 35.487 37.5511 36.5803Z" fill="#0C996E"/>
</svg>
