<svg width="70" height="70" viewBox="0 0 70 70" fill="none" xmlns="http://www.w3.org/2000/svg">
<g clip-path="url(#clip0_555_920)">
<path d="M35 0C15.6953 0 0 15.6953 0 35C0 54.3047 15.6953 70 35 70C54.3047 70 70 54.3047 70 35C70 15.6953 54.3047 0 35 0Z" fill="black"/>
<path d="M34.1261 48.3156C42.8086 48.3156 49.5195 41.812 49.5195 33.7895C49.5195 26.2733 43.2147 21.6844 39.0389 21.6844C33.2241 21.6844 28.563 25.7301 27.8989 31.7363C27.7759 32.8485 26.887 33.7813 25.7591 33.7733C23.8841 33.76 21.1577 33.7441 19.432 33.75C18.689 33.7526 18.075 33.1549 18.1116 32.4186C18.3719 27.2095 20.1287 22.3389 23.4786 18.5976C27.2008 14.4403 32.6215 12 39.0389 12C49.8212 12 60 21.7137 60 33.7895C60 47.1605 48.8262 58 34.3555 58C24.0357 58 13.6418 51.3132 10.0128 41.9647C9.99977 41.9301 9.99661 41.8926 10.0037 41.8563C10.0523 41.5797 10.1481 41.327 10.2425 41.0782C10.3798 40.7165 10.5142 40.3627 10.4947 39.9552L10.4318 38.653C10.4174 38.3378 10.4979 38.0255 10.6631 37.756C10.8283 37.4864 11.0707 37.2719 11.3593 37.1399L11.8838 36.8976C12.1777 36.7628 12.4346 36.5599 12.6332 36.3061C12.8318 36.0522 12.9661 35.7548 13.0249 35.4387C13.2008 34.4838 14.0462 33.7895 15.0332 33.7895C16.5747 33.7895 17.9148 34.8058 18.4182 36.2505C20.8414 43.2045 24.6938 48.3156 34.1261 48.3156Z" fill="#FB6970"/>
</g>
<defs>
<clipPath id="clip0_555_920">
<rect width="70" height="70" fill="white"/>
</clipPath>
</defs>
</svg>
