<svg width="380" height="344" viewBox="0 0 380 344" fill="none" xmlns="http://www.w3.org/2000/svg">
<path d="M366.894 248.8C360.795 234.92 349.083 223.337 335.014 217.636C320.359 211.698 303.533 213.86 288.097 211.871C274.692 210.143 265.019 204.155 257.014 193.508C249.345 183.306 242.468 172.008 229.928 167.29C220.019 163.561 208.754 164.594 198.906 168.48C180.759 175.639 167.053 190.862 155.51 206.028C144.971 219.874 136.374 235.036 116.88 235.531C97.3742 236.026 78.8039 224.892 59.1634 227.842C33.2056 231.741 11.5882 253.364 7.05807 279.105C2.81257 303.231 13.466 326.629 31.7681 340.377H346.352C369.414 315.897 381.516 282.08 366.894 248.8Z" fill="#F7F0E3"/>
<path d="M82.5144 340.377H83.3798C89.3898 333.768 94.0976 325.747 97.0903 316.844C101.934 302.434 101.73 287.312 96.5154 274.262C93.88 267.667 90.0745 261.521 86.3943 255.576C82.6617 249.548 78.8026 243.315 76.1831 236.635C75.1001 233.873 74.3 230.907 73.8187 227.882C73.6019 227.853 73.3848 227.83 73.1677 227.804C73.6512 230.937 74.4739 234.009 75.5943 236.866C78.2343 243.599 82.1091 249.858 85.8563 255.91C89.5221 261.831 93.3129 267.954 95.9276 274.497C101.087 287.408 101.286 302.375 96.4903 316.643C93.4609 325.656 88.6544 333.752 82.5144 340.377Z" fill="white"/>
<path d="M344.832 312.925C351.313 314.307 357.56 315.546 363.6 316.326C363.704 316.127 363.805 315.926 363.907 315.725C357.816 314.951 351.511 313.702 344.964 312.306C334.994 310.18 324.204 307.88 313.502 307.88C306.875 307.88 300.283 308.762 293.941 311.114C291.538 312.004 289.223 313.134 287.019 314.481C281.293 312.039 275.537 309.373 269.834 306.446C273.972 303.327 278.153 300.273 282.379 297.32C313.751 275.4 342.703 262.974 370.674 259.447C370.618 259.241 370.559 259.037 370.501 258.832C342.456 262.387 313.44 274.846 282.018 296.801C277.702 299.817 273.432 302.938 269.21 306.124C262.797 302.809 256.461 299.166 250.328 295.145C239.206 287.853 225.976 277.444 214.422 263.613C259.196 258.587 304.783 252.254 342.009 227.358C343.423 226.413 344.989 225.298 346.611 224.034C346.431 223.906 346.25 223.781 346.069 223.655C344.514 224.86 343.015 225.924 341.658 226.832C304.44 251.721 258.77 258.005 213.937 263.031C205.773 253.149 198.478 241.542 193.408 228.105C185.511 207.173 185.928 186.633 194.552 171.749C194.927 171.103 195.322 170.467 195.73 169.837C195.37 170.002 195.013 170.174 194.656 170.345C194.434 170.705 194.216 171.067 194.005 171.431C185.285 186.48 184.852 207.218 192.816 228.328C197.858 241.693 205.088 253.254 213.187 263.114C210.591 263.405 207.995 263.692 205.408 263.977C196.072 265.008 186.418 266.075 177.043 267.282C173.622 267.723 170.142 268.237 166.68 268.881C159.257 253.207 151.104 237.914 140.565 224.8C140.414 224.951 140.261 225.097 140.109 225.245C150.558 238.26 158.66 253.437 166.037 269.002C150.936 271.884 136.271 277.301 128.442 289.911C121.13 301.687 121.136 317.965 128.462 338.293C128.715 338.996 128.976 339.689 129.24 340.377H129.918C129.628 339.625 129.34 338.864 129.057 338.078C121.8 317.941 121.775 301.849 128.98 290.245C136.716 277.786 151.3 272.44 166.317 269.593C168.937 275.139 171.468 280.731 173.984 286.288L174.258 286.893C182.994 306.191 192.03 324.815 203.862 340.378H204.652C192.713 324.786 183.626 306.051 174.834 286.632L174.561 286.028C172.067 280.517 169.557 274.973 166.96 269.473C170.356 268.845 173.768 268.342 177.125 267.91C186.493 266.703 196.144 265.637 205.477 264.607C208.203 264.306 210.935 264.004 213.669 263.698C225.333 277.745 238.732 288.299 249.982 295.675C256.047 299.651 262.312 303.261 268.651 306.548C257.89 314.692 247.422 323.261 237.202 331.628C233.663 334.525 230.084 337.452 226.476 340.378H227.479C230.882 337.615 234.261 334.852 237.603 332.117C247.895 323.693 258.436 315.063 269.274 306.87C274.945 309.789 280.669 312.451 286.364 314.889C278.572 319.847 272.223 327.525 268.383 336.849C267.902 338.016 267.483 339.195 267.094 340.378H267.76C268.127 339.276 268.52 338.178 268.968 337.09C272.818 327.741 279.221 320.07 287.073 315.191C302.993 321.959 318.64 326.983 332.085 330.963L332.591 331.113C338.257 332.789 344.052 334.507 349.177 337.266C349.321 337.103 349.465 336.94 349.607 336.776C344.398 333.948 338.518 332.206 332.77 330.506L332.264 330.356C318.956 326.416 303.489 321.454 287.739 314.786C289.791 313.564 291.939 312.532 294.162 311.707C310.574 305.621 328.774 309.502 344.832 312.925Z" fill="white"/>
<path d="M33.3539 271.923C36.148 283.367 34.9015 295.726 29.9336 305.831C26.6798 312.451 21.9808 318.443 16.1931 323.589C16.3082 323.768 16.4259 323.946 16.5428 324.124C22.4244 318.91 27.1983 312.83 30.5014 306.111C35.5339 295.874 36.7976 283.358 33.9683 271.773C31.758 262.721 27.3146 255.053 21.1757 249.506C21.0388 249.667 20.9029 249.829 20.7678 249.991C26.8045 255.453 31.1763 263.004 33.3539 271.923Z" fill="white"/>
<path d="M176.529 126.953C182.04 132.588 184.51 142.081 181.472 150.833C178.53 159.308 172.08 166.327 164.331 170.84C158.096 174.471 149.964 176.474 143.832 172.672C139.25 169.83 136.874 164.256 136.742 158.864C136.61 153.471 138.422 148.216 140.662 143.31C143.819 136.394 148.069 129.688 154.399 125.482C163.125 119.685 171.232 121.537 176.529 126.953Z" fill="#F7F0E3"/>
<path d="M103.479 28.1566H57.8456V7.75806H103.479V28.1566ZM58.7945 27.2071H102.53V8.70754H58.7945V27.2071Z" fill="#E9DDCA"/>
<path d="M73.7922 47.6638H28.1591V27.2653H73.7922V47.6638ZM29.108 46.7143H72.8433V28.2147H29.108V46.7143Z" fill="#E9DDCA"/>
<path d="M363.122 69.3997C360.167 59.5683 354.97 50.5421 347.531 42.2899C340.076 34.0378 329.909 27.2255 317.029 21.8378C304.15 16.4497 287.785 13.756 267.936 13.756C252.102 13.756 235.965 15.8925 219.525 20.1656C203.069 24.4543 188.796 30.5543 176.689 38.4814L192.448 81.7726L184.002 88.6188L196.251 92.2207C208.342 85.8883 219.358 81.2903 229.298 78.4259C239.223 75.5771 249.768 74.1527 260.951 74.1527C272.118 74.1527 280.573 76.8467 286.315 82.2344C292.058 87.6379 294.922 94.1248 294.922 101.742C294.922 110.939 291.967 119.098 286.088 126.235C280.179 133.373 273.663 140.588 266.527 147.88C261.572 152.943 256.753 158.176 252.102 163.564C247.45 168.967 243.329 174.742 239.768 180.935C236.192 187.112 233.328 193.77 231.161 200.907C228.98 208.045 227.904 216.049 227.904 224.92C227.904 227.785 227.964 231.191 228.131 235.154C228.159 235.886 228.197 236.598 228.241 237.302H216.661L229.298 245.853H290.74C290.422 243.948 290.27 241.734 290.27 239.195C290.27 236.656 290.27 234.752 290.27 233.482C290.27 228.094 291.361 222.784 293.528 217.551C295.695 212.318 298.422 207.333 301.68 202.564C304.938 197.811 308.575 193.29 312.62 189.017C316.651 184.728 320.53 180.687 324.257 176.879C329.212 171.816 334.334 166.428 339.606 160.715C344.879 155.002 349.546 148.995 353.577 142.647C357.607 136.3 360.941 129.41 363.577 121.947C366.213 114.5 367.547 106.341 367.547 97.4541C367.546 88.5823 366.062 79.231 363.122 69.3997Z" fill="#DD7627"/>
<path d="M247.943 71.1328C236.892 71.1328 226.47 72.5112 216.661 75.2682C206.838 78.0402 195.952 82.4904 184.002 88.6188L164.67 36.6105C176.635 28.9389 190.74 23.0354 207.003 18.8847C223.25 14.7493 239.198 12.6814 254.846 12.6814C274.462 12.6814 290.635 15.2886 303.363 20.5029C316.091 25.7172 326.139 32.3099 333.507 40.2963C340.859 48.2826 345.995 57.0181 348.915 66.5327C351.82 76.0473 353.288 85.0976 353.288 93.6832C353.288 102.284 351.97 110.18 349.364 117.387C346.759 124.61 343.464 131.277 339.481 137.421C335.498 143.564 330.886 149.378 325.675 154.907C320.464 160.436 315.403 165.65 310.506 170.55C306.822 174.236 302.989 178.146 299.005 182.297C295.007 186.432 291.413 190.808 288.194 195.408C284.974 200.023 282.279 204.847 280.138 209.912C277.996 214.976 276.918 220.116 276.918 225.33C276.918 226.559 276.918 228.402 276.918 230.859C276.918 233.316 277.068 235.459 277.382 237.302H216.661C216.032 234.23 215.658 230.784 215.508 226.948C215.343 223.112 215.284 219.816 215.284 217.044C215.284 208.458 216.347 200.712 218.503 193.804C220.644 186.897 223.474 180.454 227.008 174.475C230.527 168.482 234.6 162.893 239.197 157.664C243.795 152.449 248.556 147.385 253.453 142.485C260.506 135.428 266.945 128.446 272.785 121.538C278.595 114.631 281.515 106.734 281.515 97.8338C281.515 90.4618 278.685 84.1838 273.01 78.9545C267.334 73.7399 258.979 71.1328 247.943 71.1328Z" fill="#F37F27"/>
<path d="M294.945 305.53C294.945 316.614 291.359 325.167 284.187 331.201C277.015 337.247 268.91 340.258 259.858 340.258C250.795 340.258 242.689 337.247 235.517 331.201C228.358 325.167 224.771 316.614 224.771 305.53C224.771 294.458 228.358 285.905 235.518 279.859C246.558 270.536 262.891 268.459 275.816 275.002C287.286 280.808 294.945 292.598 294.945 305.53Z" fill="#DD7627"/>
<path d="M282.926 305.53C282.926 316.614 279.34 325.167 272.168 331.201C264.996 337.247 256.89 340.258 247.839 340.258C238.776 340.258 230.67 337.247 223.498 331.201C216.338 325.167 212.752 316.614 212.752 305.53C212.752 294.458 216.338 285.905 223.498 279.859C230.67 273.825 238.775 270.802 247.839 270.802C256.89 270.802 264.996 273.825 272.168 279.859C279.34 285.905 282.926 294.458 282.926 305.53Z" fill="#F37F27"/>
<path d="M101.029 148.382C101.702 144.788 99.3361 141.328 95.7441 140.654C92.1521 139.981 88.6946 142.348 88.0214 145.943C87.3482 149.537 89.7144 152.996 93.3064 153.67C96.8984 154.344 100.356 151.976 101.029 148.382Z" fill="#D3DFFF"/>
<path d="M104.194 160.828C104.573 158.807 103.23 156.859 101.196 156.477C99.1611 156.096 97.2048 157.425 96.8262 159.447C96.4476 161.468 97.79 163.416 99.8246 163.798C101.859 164.18 103.815 162.85 104.194 160.828Z" fill="#D3DFFF"/>
<path d="M96.617 132.267C106.791 122.086 106.791 105.58 96.617 95.3995C86.4427 85.2189 69.9469 85.2189 59.7726 95.3995C49.5983 105.58 49.5983 122.086 59.7726 132.267C69.9469 142.447 86.4427 142.447 96.617 132.267Z" fill="#D3DFFF"/>
<path d="M68.1932 117.118C70.0061 117.118 71.4757 115.648 71.4757 113.834C71.4757 112.02 70.0061 110.549 68.1932 110.549C66.3804 110.549 64.9108 112.02 64.9108 113.834C64.9108 115.648 66.3804 117.118 68.1932 117.118Z" fill="white"/>
<path d="M78.1972 117.118C80.01 117.118 81.4796 115.648 81.4796 113.834C81.4796 112.02 80.01 110.549 78.1972 110.549C76.3843 110.549 74.9147 112.02 74.9147 113.834C74.9147 115.648 76.3843 117.118 78.1972 117.118Z" fill="white"/>
<path d="M88.2008 117.118C90.0136 117.118 91.4832 115.648 91.4832 113.834C91.4832 112.02 90.0136 110.549 88.2008 110.549C86.388 110.549 84.9184 112.02 84.9184 113.834C84.9184 115.648 86.388 117.118 88.2008 117.118Z" fill="white"/>
<path d="M59.5327 327.207L61.967 336.598C62.6018 339.047 64.968 340.701 67.5859 340.523C75.5676 339.98 92.1513 338.024 101.669 331.004L98.9636 317.471C85.8769 316.731 73.6381 317.459 63.0409 321.029C60.3875 321.923 58.8528 324.584 59.5327 327.207Z" fill="#093A52"/>
<path d="M74.786 334.682C74.6476 334.682 74.5205 334.591 74.4813 334.451L71.2128 322.741C71.1657 322.572 71.2642 322.398 71.4324 322.351C71.6017 322.304 71.7753 322.402 71.8224 322.57L75.0909 334.281C75.1377 334.449 75.0395 334.624 74.8712 334.671C74.8426 334.679 74.8138 334.682 74.786 334.682Z" fill="white"/>
<path d="M81.8495 333.1C81.7111 333.1 81.5841 333.008 81.5449 332.868L78.2764 321.158C78.2295 320.99 78.3277 320.815 78.496 320.768C78.6655 320.721 78.8389 320.819 78.8859 320.988L82.1544 332.698C82.2015 332.867 82.1031 333.041 81.9348 333.088C81.9062 333.096 81.8776 333.1 81.8495 333.1Z" fill="white"/>
<path d="M90.0539 276.447L59.6376 285.48L82.2261 316.449L114.655 319.03L159.385 300.104L142.388 274.511L90.0539 276.447Z" fill="#F37F27"/>
<path d="M127.553 280.748C194.349 260.962 205.084 320.034 100.864 330.787C97.1829 326.642 92.881 319.45 91.1727 313.438L146.21 287.989L127.553 280.748Z" fill="#F37F27"/>
<path d="M130.39 323.084C127.266 322.083 124.272 320.105 124.272 320.105L113.537 323.475L115.997 335.16L127.149 337.427C130.546 331.209 130.745 326.104 130.39 323.084Z" fill="#F9B384"/>
<path d="M91.4112 313.848L90.9344 313.028C102.416 306.351 131.826 290.31 156.884 285.579L157.059 286.512C132.147 291.216 102.851 307.196 91.4112 313.848Z" fill="#DD7627"/>
<path d="M90.0543 276.447C27.8799 264.619 11.7773 324.407 115.997 335.16C119.679 331.015 122.564 326.117 124.272 320.105C108.263 309.387 90.3635 299.199 70.7459 289.494L90.0543 276.447Z" fill="#F37F27"/>
<path d="M124.017 320.506C121.059 318.622 117.978 316.631 114.715 314.523C98.3365 303.942 79.7728 291.949 64.0009 285.11L64.3781 284.239C80.2219 291.109 98.8203 303.124 115.229 313.726C118.491 315.833 121.571 317.823 124.526 319.705L124.017 320.506Z" fill="#DD7627"/>
<path d="M44.4378 306.092L43.6073 305.632C45.9411 301.405 49.6792 298.553 54.7178 297.157L54.971 298.072C50.12 299.416 46.6746 302.04 44.4378 306.092Z" fill="#DD7627"/>
<path d="M174.204 302.492C171.967 298.441 168.522 295.817 163.671 294.473L163.924 293.558C168.963 294.954 172.701 297.806 175.035 302.033L174.204 302.492Z" fill="#DD7627"/>
<path d="M110.175 334.635L109.481 333.987C114.455 328.657 117.51 323.03 118.82 316.785L119.748 316.98C118.402 323.4 115.27 329.175 110.175 334.635Z" fill="#DD7627"/>
<path d="M161.398 319.603C153.432 314.679 137.99 323.188 134.113 323.618C132.983 323.743 131.675 323.496 130.39 323.084C130.745 326.104 130.546 331.209 127.149 337.427L129.044 337.812C129.044 337.812 142.139 342.615 156.031 339.82C168.853 337.239 167.66 323.474 161.398 319.603Z" fill="#093A52"/>
<path d="M150.539 335.711C150.508 335.711 150.476 335.706 150.444 335.696C150.278 335.643 150.185 335.466 150.238 335.299C151.184 332.3 151.597 326.401 148.856 322.44C148.757 322.296 148.792 322.099 148.936 322C149.079 321.9 149.277 321.935 149.376 322.079C152.246 326.228 151.825 332.372 150.841 335.489C150.798 335.624 150.674 335.711 150.539 335.711Z" fill="white"/>
<path d="M144.293 336.898C144.262 336.898 144.23 336.893 144.198 336.883C144.031 336.83 143.939 336.653 143.992 336.486C144.938 333.487 145.351 327.588 142.61 323.627C142.51 323.483 142.546 323.286 142.69 323.187C142.833 323.087 143.03 323.123 143.13 323.266C146 327.415 145.579 333.559 144.595 336.676C144.552 336.811 144.428 336.898 144.293 336.898Z" fill="white"/>
<path d="M79.0554 199.358C79.0554 199.358 94.7137 186.035 94.134 183.503C93.7195 181.694 89.284 184.347 89.284 184.347C89.284 184.347 95.5045 176.962 95.1882 176.065C94.6229 174.463 90.3207 177.45 90.3207 177.45C90.3207 177.45 93.2287 173.262 91.8385 172.579C90.4483 171.897 87.4173 174.478 87.4173 174.478C87.4173 174.478 89.1881 172.152 88.3561 171.542C87.5241 170.932 83.935 173.441 83.935 173.441C83.935 173.441 85.223 170.509 82.4869 171.62C79.7508 172.732 60.5653 190.349 60.5653 190.349L79.0554 199.358Z" fill="#F9B384"/>
<path d="M85.4622 183.555C85.386 183.555 85.3096 183.528 85.2489 183.473C82.5611 181.015 81.3761 180.419 78.4107 179.506C78.2437 179.455 78.1501 179.278 78.2015 179.111C78.2528 178.944 78.4297 178.849 78.597 178.901C81.6694 179.847 82.8963 180.464 85.676 183.005C85.805 183.123 85.8139 183.324 85.6962 183.452C85.6335 183.521 85.548 183.555 85.4622 183.555Z" fill="#E28B6D"/>
<path d="M80.7442 190.782C80.7296 190.782 80.7149 190.781 80.7002 190.779C80.5271 190.755 80.4064 190.595 80.4307 190.422C80.7384 188.219 81.4315 186.842 82.5497 186.213C83.5054 185.675 84.7491 185.73 86.2463 186.377C86.4067 186.446 86.4806 186.633 86.4113 186.793C86.3422 186.954 86.156 187.028 85.9956 186.958C84.6896 186.394 83.6347 186.329 82.8596 186.765C81.9383 187.283 81.3318 188.543 81.0573 190.509C81.035 190.667 80.8996 190.782 80.7442 190.782Z" fill="#E28B6D"/>
<path d="M80.0058 177.463C79.9218 177.463 79.8378 177.429 79.7755 177.363C79.6556 177.236 79.6616 177.036 79.7887 176.916L83.7178 173.21C83.8449 173.09 84.045 173.097 84.165 173.224C84.2849 173.351 84.2788 173.551 84.1518 173.671L80.2226 177.377C80.1616 177.435 80.0837 177.463 80.0058 177.463Z" fill="#E28B6D"/>
<path d="M83.6436 178.729C83.5646 178.729 83.4859 178.7 83.4244 178.641C83.2984 178.519 83.2944 178.319 83.4153 178.193L87.1894 174.258C87.3104 174.132 87.5105 174.128 87.6368 174.249C87.7628 174.37 87.7669 174.571 87.6459 174.697L83.8718 178.631C83.8096 178.696 83.7266 178.729 83.6436 178.729Z" fill="#E28B6D"/>
<path d="M87.36 180.944C87.2828 180.944 87.2054 180.916 87.1444 180.859C87.0166 180.74 87.0095 180.54 87.1287 180.412L90.0898 177.233C90.2092 177.106 90.4088 177.099 90.5369 177.218C90.6647 177.337 90.6718 177.537 90.5526 177.665L87.5915 180.844C87.529 180.91 87.4447 180.944 87.36 180.944Z" fill="#E28B6D"/>
<path d="M138.204 288.472L80.9538 290.688L74.6278 238.466C74.6278 238.466 93.7938 220.276 101.168 213.577L113.616 212.938C152.238 230.505 145.913 252.444 138.204 288.472Z" fill="#3A6BEA"/>
<path d="M113.616 212.938C113.616 212.938 157.802 216.719 171.732 247.011C185.362 276.652 129.348 287.206 129.348 287.206L113.616 212.938Z" fill="#3A6BEA"/>
<path d="M63.1089 219.43L81.368 197.196L64.2934 186.842C57.1708 191.797 43.3974 203.021 31.7249 215.732C29.1485 218.538 27.1361 221.814 26.1224 225.423C25.2575 228.502 25.1004 231.543 25.5864 234.521C26.8534 242.283 32.9552 248.273 41.1003 249.227C48.0566 250.042 74.628 247.961 96.1364 241.631L102.462 217.2C99.2118 215.354 75.0524 215.034 63.1089 219.43Z" fill="#3A6BEA"/>
<g opacity="0.8">
<path d="M150.491 224.96C150.586 224.938 150.681 224.916 150.776 224.894C150.577 224.776 150.376 224.661 150.176 224.545C146.938 225.29 143.597 226.053 140.304 226.45C138.324 226.689 131.711 227.126 129.779 222.717C128.817 220.524 129.545 218.085 130.632 216.372C130.474 216.326 130.316 216.282 130.159 216.237C129.045 218.05 128.33 220.595 129.345 222.908C131.408 227.617 138.299 227.17 140.361 226.921C143.749 226.513 147.176 225.724 150.491 224.96Z" fill="white"/>
<path d="M171.112 259.124C169.001 258.308 166.82 257.464 164.527 257.68C160.506 258.061 157.065 262.04 156.856 266.55C156.714 269.626 157.888 272.849 160.127 275.684C160.261 275.6 160.396 275.515 160.53 275.43C158.341 272.675 157.193 269.547 157.33 266.573C157.529 262.289 160.777 258.512 164.572 258.153C166.752 257.951 168.786 258.734 170.94 259.566C171.709 259.864 172.491 260.163 173.285 260.418C173.326 260.265 173.366 260.112 173.403 259.957C172.629 259.708 171.864 259.415 171.112 259.124Z" fill="white"/>
<path d="M59.5844 244.026C56.8257 241.743 52.5392 241.133 47.8264 242.352C43.6262 243.439 40.0224 245.592 37.5467 248.442C37.7094 248.494 37.8683 248.554 38.0333 248.602C40.4419 245.898 43.9114 243.855 47.9448 242.812C52.5084 241.63 56.6415 242.207 59.2822 244.391C60.5373 245.43 61.4247 246.778 62.0697 248.233C62.2327 248.215 62.3961 248.196 62.5601 248.177C61.885 246.612 60.944 245.15 59.5844 244.026Z" fill="white"/>
<path d="M34.6463 212.627C39.8154 211.342 44.8594 209.537 49.5118 206.855C51.2697 205.842 53.2548 204.55 54.6508 202.653C56.1359 200.635 56.6293 198.232 55.9709 196.227C55.7126 195.44 55.2553 194.749 54.6837 194.195C54.5627 194.294 54.4405 194.394 54.3188 194.495C54.8525 195.003 55.2801 195.643 55.52 196.375C56.1306 198.235 55.663 200.477 54.269 202.372C52.9251 204.198 50.9906 205.455 49.2752 206.444C44.887 208.973 40.1405 210.722 35.2649 211.986C35.0582 212.199 34.8522 212.413 34.6463 212.627Z" fill="white"/>
</g>
<path d="M117.659 201.328L117.651 202.139L117.523 214.73L117.507 216.094C117.483 218.229 116.609 220.163 115.197 221.567C113.794 222.964 111.861 223.838 109.719 223.854C105.405 223.878 101.876 220.411 101.836 216.086L101.683 200.525L117.659 201.328Z" fill="#F9B384"/>
<path d="M117.651 202.139L117.523 214.73C110.529 211.881 107.65 204.305 107.65 204.305L117.651 202.139Z" fill="#093A52"/>
<path d="M120.418 180.166C122.925 183.175 130.243 200.229 122.825 206.047C114.476 212.594 101.771 201.834 101.771 201.834L100.067 181.972L111.095 179.062L120.418 180.166Z" fill="#F9B384"/>
<path d="M94.4493 179.072C94.4493 179.072 69.9887 191.837 89.9333 228.634C92.4948 233.36 98.1687 235.423 103.022 233.117C108.229 230.644 110.201 224.279 107.374 219.253C104.111 213.454 100.962 205.986 102.306 200.429L94.4493 179.072Z" fill="#093A52"/>
<path d="M101.435 189.795C104.019 187.21 104.019 183.018 101.435 180.432C98.8514 177.847 94.6619 177.847 92.078 180.432C89.494 183.018 89.494 187.21 92.078 189.795C94.662 192.381 98.8514 192.381 101.435 189.795Z" fill="#F37F27"/>
<path d="M104.899 193.07C104.185 188.939 103.749 186.107 107.921 183.978C107.921 183.978 122.625 186.653 125.432 181.102C128.239 175.551 123.961 166.791 115.006 172.876C92.0811 168.395 89.0067 189.863 95.9575 197.019L102.818 195.965C104.198 195.753 105.137 194.447 104.899 193.07Z" fill="#093A52"/>
<path d="M116.284 194.06C116.824 194.06 117.261 193.622 117.261 193.082C117.261 192.541 116.824 192.104 116.284 192.104C115.744 192.104 115.307 192.541 115.307 193.082C115.307 193.622 115.744 194.06 116.284 194.06Z" fill="#093A52"/>
<path d="M122.9 190.799C123.44 190.799 123.878 190.361 123.878 189.821C123.878 189.281 123.44 188.843 122.9 188.843C122.361 188.843 121.923 189.281 121.923 189.821C121.923 190.361 122.361 190.799 122.9 190.799Z" fill="#093A52"/>
<path d="M122.224 196.092C122.155 196.092 122.087 196.066 122.033 196.016C121.922 195.91 121.918 195.735 122.023 195.624C122.415 195.211 122.845 194.631 122.664 194.21C122.477 193.773 121.685 193.584 121.322 193.584C120.542 193.584 120.167 192.196 120.1 191.917C120.064 191.769 120.156 191.619 120.304 191.583C120.453 191.546 120.602 191.639 120.638 191.787C120.781 192.374 121.103 193.03 121.322 193.03C121.695 193.03 122.836 193.207 123.173 193.991C123.413 194.552 123.162 195.229 122.425 196.005C122.37 196.063 122.297 196.092 122.224 196.092Z" fill="#093A52"/>
<path d="M122.274 199.803C122.221 199.803 122.167 199.788 122.12 199.756C120.279 198.513 118.421 199.555 118.402 199.566C118.27 199.642 118.101 199.597 118.024 199.464C117.948 199.331 117.993 199.162 118.126 199.086C118.214 199.035 120.305 197.863 122.429 199.297C122.556 199.383 122.589 199.555 122.504 199.682C122.45 199.761 122.363 199.803 122.274 199.803Z" fill="#093A52"/>
<path d="M115.856 188.845C116.412 189.893 115.443 190.103 114.307 190.706C113.172 191.31 112.009 191.531 111.744 191.031C111.479 190.532 112.184 189.638 113.32 189.034C114.455 188.43 115.425 188.035 115.856 188.845Z" fill="#093A52"/>
<path d="M119.996 186.955C120.241 187.89 120.937 187.48 121.951 187.215C122.964 186.95 123.783 186.44 123.666 185.994C123.549 185.548 122.633 185.402 121.62 185.667C120.607 185.933 119.807 186.231 119.996 186.955Z" fill="#093A52"/>
<path opacity="0.4" d="M113.736 199.765C114.906 198.685 114.98 196.86 113.901 195.689C112.822 194.518 110.998 194.444 109.828 195.524C108.658 196.604 108.584 198.429 109.663 199.6C110.743 200.771 112.566 200.845 113.736 199.765Z" fill="#EB5D60"/>
<path d="M104.338 200.352C105.655 198.644 105.15 196.045 103.211 194.548C101.271 193.05 98.6314 193.221 97.3143 194.929C95.9972 196.637 96.5019 199.235 98.4414 200.733C100.381 202.23 103.021 202.06 104.338 200.352Z" fill="#F9B384"/>
<path d="M102.541 199.103C102.389 199.103 102.265 198.98 102.265 198.826C102.265 198.009 101.866 197.253 101.199 196.805C100.629 196.421 99.9488 196.331 99.3805 196.562C99.2388 196.619 99.0774 196.552 99.0197 196.41C98.962 196.269 99.0298 196.107 99.1715 196.049C99.9106 195.748 100.784 195.858 101.508 196.345C102.329 196.896 102.818 197.824 102.818 198.826C102.818 198.98 102.694 199.103 102.541 199.103Z" fill="#093A52"/>
<path d="M62.8727 219.206L52.8855 230.016L53.35 230.446L63.3372 219.635L62.8727 219.206Z" fill="#093A52"/>
<path d="M133.236 265.672L133.051 265.067C140.322 262.85 147.378 260.197 153.772 252.196L154.266 252.591C147.759 260.734 140.605 263.425 133.236 265.672Z" fill="#093A52"/>
<path d="M137.656 241.16H75.8085C73.5843 241.16 71.7811 243.112 71.7811 245.519V289.704C71.7811 292.112 73.5843 294.064 75.8085 294.064H137.656C139.88 294.064 141.684 292.112 141.684 289.704V245.519C141.683 243.112 139.88 241.16 137.656 241.16Z" fill="#D3DFFF"/>
<path d="M109.997 264.819C110.232 264.819 110.423 265.025 110.423 265.28V269.944C110.423 270.199 110.232 270.405 109.997 270.405H103.468C103.233 270.405 103.042 270.199 103.042 269.944V265.28C103.042 265.025 103.233 264.819 103.468 264.819H109.997ZM109.997 263.553H103.468C102.536 263.553 101.777 264.327 101.777 265.28V269.944C101.777 270.896 102.536 271.671 103.468 271.671H109.997C110.929 271.671 111.688 270.896 111.688 269.944V265.28C111.688 264.327 110.929 263.553 109.997 263.553Z" fill="#1F3C88"/>
<path d="M377.69 339.745H4.79187V341.01H377.69V339.745Z" fill="#093A52"/>
</svg>
