<svg width="367" height="241" viewBox="0 0 367 241" fill="none" xmlns="http://www.w3.org/2000/svg">
<g clip-path="url(#clip0_486_11138)">
<path d="M239.521 105.231C239.098 107.449 238.591 109.645 237.999 111.818C237.935 112.07 237.863 112.319 237.792 112.571H229.564C228.864 112.572 228.192 112.85 227.696 113.344C227.201 113.839 226.922 114.509 226.922 115.208V138.603C226.672 139.067 226.419 139.526 226.166 139.986C224.86 142.358 223.501 144.705 222.111 147.021C199.454 184.667 167.854 216.169 130.101 238.748L132.336 233.716C131.517 233.66 130.694 233.603 129.875 233.547C112.034 232.33 94.1338 230.982 76.7126 226.982C58.4873 222.798 40.6585 215.54 26.375 203.507C12.0876 191.47 1.61394 174.281 0.160252 155.683C-0.324473 149.292 0.323567 142.865 2.07465 136.698C5.42356 124.827 12.741 114.146 23.2979 107.826C39.8807 97.9018 61.5118 99.9242 78.9932 108.18C96.4709 116.432 110.698 130.092 124.589 143.515C110.564 119.525 91.0367 99.1935 67.6095 84.1889C59.8466 79.2325 51.6081 74.8185 45.0082 68.397C38.4119 61.9794 33.545 52.9818 34.7118 43.8637C36.037 33.5217 44.5287 25.6728 53.0352 19.6205C56.4334 17.2025 59.941 14.9089 63.5582 12.7998C73.7638 6.83409 84.804 2.33343 96.4634 0.664989C112.257 -1.59852 129.316 1.83629 141.424 12.201C155.066 23.8801 160.662 42.715 160.129 60.7327C168.534 48.5452 181.496 39.2162 196.134 38.8208C211.332 38.414 225.778 47.9915 233.389 61.1206C240.997 74.246 242.364 90.3354 239.521 105.231Z" fill="#E6E6E6"/>
<path d="M143.369 155.847C152.27 155.065 160.493 154.152 169.118 151.717C177.479 149.357 185.524 145.407 191.476 138.956C197.877 132.018 201.333 123.008 203.771 114.039C205.131 109.038 206.248 103.967 207.301 98.8945C208.445 93.3908 209.461 87.8628 210.35 82.3105C212.118 71.2585 213.381 60.1413 214.138 48.9591C214.229 47.6017 214.313 46.2439 214.389 44.8856C214.436 44.0477 213.13 44.0503 213.083 44.8856C212.461 55.9081 211.343 66.8876 209.728 77.8241C208.134 88.5692 206.096 99.2678 203.509 109.82C201.317 118.76 198.48 127.839 192.859 135.281C187.588 142.26 179.975 146.82 171.756 149.547C163.391 152.321 154.572 153.429 145.832 154.253C144.76 154.354 144.442 154.45 143.369 154.544C142.538 154.617 142.531 155.921 143.369 155.847Z" fill="white"/>
<path d="M2.82831 137.659C14.0586 138.281 25.1747 140.234 35.9415 143.48C46.713 146.718 57.0639 151.212 66.7801 156.869C76.1684 162.34 84.8839 168.885 92.7494 176.373C100.383 183.644 107.186 191.736 113.035 200.5C118.911 209.287 123.78 218.702 127.551 228.571C128.011 229.779 128.454 230.993 128.88 232.213C129.156 233 130.418 232.662 130.14 231.867C126.612 221.79 121.96 212.139 116.273 203.098C110.586 194.055 103.913 185.669 96.3744 178.093C88.7153 170.4 80.1911 163.614 70.9713 157.871C51.6129 145.843 29.6702 138.566 6.94513 136.639C5.57431 136.524 4.20204 136.43 2.82832 136.356C1.98823 136.31 1.99079 137.613 2.82831 137.659Z" fill="white"/>
<path d="M63.9112 14.3274C71.0917 16.6053 77.8978 19.9229 84.1117 24.1739C90.4613 28.5474 96.2522 33.6772 101.356 39.4498C106.735 45.5224 111.516 52.0959 115.636 59.0799C120.005 66.454 123.801 74.1516 126.989 82.105C130.273 90.2703 133.034 98.635 135.257 107.149C137.517 115.763 139.283 124.499 140.544 133.315C141.8 142.036 142.56 150.822 142.82 159.629C143.083 168.051 142.833 176.481 142.073 184.872C141.378 192.701 140.108 200.468 138.273 208.112C136.644 215.016 134.349 221.745 131.419 228.207C130.74 229.674 130.02 231.12 129.258 232.546C128.863 233.286 129.99 233.945 130.386 233.204C133.624 227.032 136.21 220.54 138.101 213.835C140.223 206.37 141.762 198.751 142.702 191.049C143.745 182.692 144.253 174.278 144.222 165.857C144.204 157.01 143.676 148.171 142.641 139.385C141.606 130.489 140.07 121.658 138.039 112.934C136.013 104.196 133.442 95.5921 130.343 87.173C127.356 79.0228 123.78 71.0997 119.642 63.4663C115.702 56.1821 111.109 49.2679 105.921 42.8081C100.994 36.6574 95.3687 31.097 89.1582 26.238C83.1696 21.5669 76.552 17.7592 69.4999 14.9271C67.7766 14.2429 66.0294 13.6241 64.2585 13.0708C63.4546 12.8185 63.1107 14.0762 63.9112 14.3274Z" fill="white"/>
<path d="M141.402 241C193.012 241 234.85 239.314 234.85 237.234C234.85 235.154 193.012 233.468 141.402 233.468C89.7915 233.468 47.9531 235.154 47.9531 237.234C47.9531 239.314 89.7915 241 141.402 241Z" fill="#E6E6E6"/>
<path d="M223.965 119.271C223.918 119.474 223.888 119.681 223.874 119.889L207.655 129.222L203.713 126.959L199.51 132.447L207.944 138.443L226.448 123.882C227.202 124.16 228.024 124.203 228.804 124.004C229.583 123.806 230.284 123.375 230.812 122.769C231.341 122.164 231.671 121.412 231.761 120.614C231.851 119.817 231.695 119.011 231.314 118.304C230.933 117.597 230.346 117.022 229.629 116.656C228.913 116.29 228.102 116.15 227.304 116.255C226.507 116.36 225.76 116.705 225.163 117.244C224.567 117.783 224.149 118.49 223.965 119.271Z" fill="#FFB8B8"/>
<path d="M187.026 124.997L199.797 134.077L205.509 126.933L193.094 116.997C192.56 116.57 191.944 116.255 191.284 116.074C190.624 115.892 189.934 115.847 189.255 115.94C188.577 116.034 187.925 116.265 187.339 116.619C186.754 116.973 186.247 117.442 185.849 117.998C185.075 119.082 184.764 120.429 184.984 121.741C185.205 123.054 185.939 124.225 187.026 124.997Z" fill="#F37F27"/>
<path d="M160.664 228.594L165.142 229.765L171.798 213.094L165.19 211.366L160.664 228.594Z" fill="#FFB8B8"/>
<path d="M172.688 236.169L158.615 232.491L160.039 227.068L168.675 229.325C170.117 229.702 171.35 230.634 172.102 231.918C172.855 233.202 173.065 234.731 172.688 236.169Z" fill="#2F2E41"/>
<path d="M200.468 231.775L205.025 230.963L204.054 213.044L197.329 214.242L200.468 231.775Z" fill="#FFB8B8"/>
<path d="M214.569 233.618L200.247 236.169L199.259 230.65L208.047 229.084C208.774 228.955 209.519 228.969 210.24 229.127C210.961 229.285 211.644 229.583 212.249 230.004C212.855 230.425 213.371 230.96 213.769 231.581C214.167 232.201 214.439 232.893 214.569 233.618Z" fill="#2F2E41"/>
<path d="M191.495 99.9968C192.618 100.269 193.531 101.411 194.08 102.733C194.586 104.122 194.929 105.564 195.101 107.032C195.532 109.765 195.946 112.724 195.054 115.255C194.009 118.222 191.225 119.776 188.81 119.045C186.395 118.315 184.474 115.574 183.817 112.419C183.22 109.231 183.605 105.937 184.922 102.972C185.608 101.414 186.553 99.9761 187.81 99.2732C188.427 98.9013 189.161 98.7761 189.867 98.9227C190.572 99.0693 191.195 99.4768 191.612 100.063" fill="#2F2E41"/>
<path d="M197.849 149.48L206.524 226.987L199.359 229.701L186.144 177.727L167.746 225.249L159.903 225.683C159.903 225.683 170.664 151.74 178.638 150.06L197.849 149.48Z" fill="#2F2E41"/>
<path d="M190.562 109.888C195.683 109.888 199.835 105.747 199.835 100.638C199.835 95.5291 195.683 91.3876 190.562 91.3876C185.44 91.3876 181.288 95.5291 181.288 100.638C181.288 105.747 185.44 109.888 190.562 109.888Z" fill="#FFB8B8"/>
<path d="M194.542 113.769L184.52 112.465C184.52 112.465 177.985 120.288 178.42 133.761C178.856 147.235 177.331 151.363 177.331 151.363L198.226 151.74C195.205 147.597 207.839 123.803 194.542 113.769Z" fill="#F37F27"/>
<path d="M199.925 153.623C199.716 153.625 199.508 153.643 199.302 153.677L186.481 140.063L187.788 135.717L181.47 132.892L177.549 142.454L195.994 157.089C195.895 157.886 196.041 158.694 196.413 159.405C196.786 160.117 197.366 160.698 198.078 161.073C198.79 161.447 199.599 161.597 200.398 161.501C201.197 161.406 201.948 161.07 202.551 160.538C203.154 160.006 203.58 159.304 203.774 158.525C203.967 157.746 203.918 156.926 203.633 156.176C203.347 155.425 202.84 154.779 202.178 154.323C201.515 153.867 200.73 153.623 199.925 153.623Z" fill="#FFB8B8"/>
<path d="M185.883 119.065L179.945 133.544L188.224 137.456L195.08 123.127C195.375 122.51 195.54 121.84 195.567 121.158C195.593 120.475 195.479 119.795 195.232 119.157C194.986 118.52 194.611 117.94 194.132 117.452C193.652 116.965 193.078 116.58 192.444 116.321C191.833 116.071 191.178 115.944 190.518 115.947C189.857 115.95 189.203 116.083 188.594 116.338C187.985 116.593 187.432 116.965 186.967 117.433C186.502 117.901 186.133 118.455 185.883 119.065Z" fill="#F37F27"/>
<path d="M188.136 109.048C189.589 108.211 189.744 106.194 189.547 104.533C189.349 102.871 189.019 101.019 189.999 99.66C191.167 98.0385 193.515 98.0062 195.517 97.9532C197.518 97.9003 199.955 97.3157 200.474 95.3868C200.817 94.1122 200.083 92.7445 199.031 91.9444C197.979 91.1443 196.663 90.7906 195.384 90.4544C192.522 89.7024 189.567 88.9441 186.637 89.3574C183.735 89.7668 181.111 91.2996 179.333 93.6241C177.555 95.9487 176.766 98.8781 177.136 101.778C177.611 105.489 178.298 107.109 177.847 108.745C177.006 111.792 173.38 113.749 173.308 116.909C173.251 119.38 175.44 121.286 177.575 122.541C179.269 123.537 181.096 124.381 183.048 124.614C185 124.847 187.101 124.401 188.555 123.082C190.431 121.38 190.894 118.536 190.357 116.065C189.819 113.593 188.44 111.399 187.075 109.267" fill="#2F2E41"/>
<path d="M363.602 111.818H229.564C228.663 111.819 227.8 112.177 227.163 112.812C226.526 113.448 226.167 114.309 226.166 115.208V201.078C226.167 201.976 226.526 202.838 227.163 203.473C227.8 204.109 228.663 204.466 229.564 204.467H363.602C364.502 204.466 365.366 204.109 366.003 203.473C366.64 202.838 366.998 201.976 367 201.078V115.208C366.998 114.309 366.64 113.448 366.003 112.812C365.366 112.177 364.502 111.819 363.602 111.818ZM366.245 201.078C366.244 201.777 365.965 202.447 365.47 202.941C364.974 203.435 364.302 203.713 363.602 203.714H229.564C228.863 203.713 228.192 203.435 227.696 202.941C227.201 202.447 226.922 201.777 226.921 201.078V115.208C226.922 114.509 227.201 113.839 227.696 113.344C228.192 112.85 228.863 112.572 229.564 112.571H363.602C364.302 112.572 364.974 112.85 365.47 113.344C365.965 113.839 366.244 114.509 366.245 115.208V201.078Z" fill="#3F3D56"/>
<path d="M258.175 154.563H237.031C236.18 154.562 235.365 154.225 234.763 153.624C234.161 153.024 233.823 152.211 233.822 151.362V130.271C233.823 129.422 234.161 128.608 234.763 128.008C235.365 127.408 236.18 127.071 237.031 127.07H258.175C259.026 127.071 259.842 127.408 260.443 128.008C261.045 128.608 261.383 129.422 261.384 130.271V151.362C261.383 152.211 261.045 153.024 260.443 153.624C259.842 154.225 259.026 154.562 258.175 154.563Z" fill="#F37F27"/>
<path d="M356.621 176.976H236.554C235.903 176.976 235.279 176.718 234.818 176.259C234.358 175.8 234.1 175.177 234.1 174.528C234.1 173.878 234.358 173.256 234.818 172.797C235.279 172.338 235.903 172.08 236.554 172.08H356.621C357.272 172.08 357.896 172.338 358.357 172.797C358.817 173.256 359.075 173.878 359.075 174.528C359.075 175.177 358.817 175.8 358.357 176.259C357.896 176.718 357.272 176.976 356.621 176.976Z" fill="#CCCCCC"/>
<path d="M356.702 165.112H236.634C235.983 165.112 235.359 164.854 234.899 164.395C234.439 163.936 234.18 163.313 234.18 162.664C234.18 162.015 234.439 161.392 234.899 160.933C235.359 160.474 235.983 160.216 236.634 160.216H356.702C357.353 160.216 357.977 160.474 358.437 160.933C358.897 161.392 359.156 162.015 359.156 162.664C359.156 163.313 358.897 163.936 358.437 164.395C357.977 164.854 357.353 165.112 356.702 165.112Z" fill="#CCCCCC"/>
<path d="M297.423 148.914H279.677C279.026 148.914 278.402 148.656 277.942 148.197C277.482 147.738 277.223 147.115 277.223 146.466C277.223 145.816 277.482 145.194 277.942 144.735C278.402 144.275 279.026 144.018 279.677 144.018H297.423C298.074 144.018 298.698 144.275 299.159 144.735C299.619 145.194 299.877 145.816 299.877 146.466C299.877 147.115 299.619 147.738 299.159 148.197C298.698 148.656 298.074 148.914 297.423 148.914Z" fill="#CCCCCC"/>
<path d="M356.702 136.865H279.677C279.026 136.865 278.402 136.607 277.942 136.148C277.482 135.689 277.223 135.067 277.223 134.417C277.223 133.768 277.482 133.145 277.942 132.686C278.402 132.227 279.026 131.969 279.677 131.969H356.702C357.353 131.969 357.977 132.227 358.437 132.686C358.897 133.145 359.156 133.768 359.156 134.417C359.156 135.067 358.897 135.689 358.437 136.148C357.977 136.607 357.353 136.865 356.702 136.865Z" fill="#CCCCCC"/>
<path d="M294.403 189.028H236.554C235.903 189.028 235.279 188.77 234.818 188.311C234.358 187.852 234.1 187.229 234.1 186.58C234.1 185.93 234.358 185.308 234.818 184.849C235.279 184.39 235.903 184.132 236.554 184.132H294.403C295.054 184.132 295.678 184.39 296.138 184.849C296.598 185.308 296.857 185.93 296.857 186.58C296.857 187.229 296.598 187.852 296.138 188.311C295.678 188.77 295.054 189.028 294.403 189.028Z" fill="#CCCCCC"/>
</g>
<defs>
<clipPath id="clip0_486_11138">
<rect width="367" height="241" fill="white"/>
</clipPath>
</defs>
</svg>
