<svg width="70" height="70" viewBox="0 0 70 70" fill="none" xmlns="http://www.w3.org/2000/svg">
<g clip-path="url(#clip0_555_883)">
<path d="M35 70C54.33 70 70 54.33 70 35C70 15.67 54.33 0 35 0C15.67 0 0 15.67 0 35C0 54.33 15.67 70 35 70Z" fill="#FF7A59"/>
<path fill-rule="evenodd" clip-rule="evenodd" d="M42.6427 42.7205C40.0293 42.7205 37.9095 40.6239 37.9095 38.0372C37.9095 35.4505 40.0286 33.3532 42.6427 33.3532C45.2567 33.3532 47.3773 35.4498 47.3773 38.0372C47.3773 40.6246 45.2581 42.7205 42.6427 42.7205ZM44.0605 29.0199V24.85C44.6149 24.5961 45.0852 24.1892 45.4162 23.677C45.7472 23.1649 45.925 22.5689 45.9287 21.9591V21.8627C45.9287 20.1004 44.4713 18.6594 42.6919 18.6594H42.5941C40.8168 18.6594 39.3573 20.1011 39.3573 21.8627V21.9591C39.3612 22.5688 39.5391 23.1648 39.8701 23.6769C40.201 24.189 40.6713 24.596 41.2256 24.85V29.0199C39.6294 29.2607 38.1242 29.9157 36.8602 30.9196L25.3006 22.0213C25.3815 21.7286 25.4249 21.4267 25.4298 21.1231C25.4298 19.1263 23.7967 17.5055 21.7794 17.5C19.7621 17.4945 18.1256 19.1126 18.1235 21.1101C18.1215 23.1075 19.7539 24.7249 21.7712 24.7283C22.403 24.7256 23.0233 24.5586 23.5711 24.2437L34.9447 33.0005C33.9215 34.5246 33.387 36.3243 33.4123 38.1598C33.4375 39.9953 34.0215 41.7796 35.0862 43.2749L31.6259 46.6997C31.2165 46.5714 30.7841 46.5333 30.3586 46.5882C29.9331 46.6431 29.5245 46.7895 29.1611 47.0175C28.7976 47.2454 28.4879 47.5495 28.2532 47.9087C28.0186 48.2678 27.8646 48.6736 27.8018 49.0981C27.7391 49.5225 27.7691 49.9555 27.8899 50.3672C28.0106 50.7789 28.2191 51.1595 28.5011 51.4829C28.7831 51.8062 29.1318 52.0646 29.5233 52.2402C29.9148 52.4158 30.3396 52.5044 30.7687 52.5C32.4257 52.5 33.7696 51.1697 33.7696 49.5298C33.7667 49.2416 33.7206 48.9554 33.6329 48.6808L37.0509 45.2956C38.6599 46.5152 40.6237 47.1747 42.6427 47.1735C47.743 47.1735 51.8753 43.0835 51.8753 38.0372C51.8753 33.4694 48.4833 29.6974 44.0598 29.0199" fill="white"/>
</g>
<defs>
<clipPath id="clip0_555_883">
<rect width="70" height="70" fill="white"/>
</clipPath>
</defs>
</svg>
