<svg width="85" height="70" viewBox="0 0 85 70" fill="none" xmlns="http://www.w3.org/2000/svg">
<path d="M8.22223 1.91109C4.86668 2.8222 2.22223 5.73331 1.57779 9.22221C1.26668 10.9111 1.22223 68.5111 1.53334 68.4C1.66668 68.3555 4.51112 65.6222 7.91112 62.3333L14.0667 56.3333L45.3111 56.2222C80.2667 56.0889 77.4222 56.2444 80.1333 54.4889C81.6222 53.5333 82.9111 51.9333 83.6444 50.1555C84.1111 49 84.1111 48.8444 84.1778 29.5555C84.2222 11.9555 84.2 9.95554 83.8667 8.57776C83.1778 5.77776 81 3.28887 78.2222 2.15554L77 1.66665L43.2222 1.62221C14 1.57776 9.2889 1.62221 8.22223 1.91109ZM19.6889 14.8444C19.9556 15.0444 20.2889 15.4444 20.4222 15.7111C20.6 16.0444 20.6667 20.1778 20.6667 29.6667V43.1555L20.0222 43.8C19.1111 44.7111 17.7778 44.7111 16.8667 43.8L16.2222 43.1333L16.2667 29.3333L16.3333 15.5111L16.9556 14.9778C17.7111 14.3333 19 14.2666 19.6889 14.8444ZM31.3778 15.6666C33.0889 17.2666 32 20 29.6445 20C27.7556 20 26.6 18.1333 27.4222 16.4C27.8667 15.4444 28.4445 15.1555 29.7778 15.1333C30.5556 15.1111 30.9111 15.2444 31.3778 15.6666ZM43.8222 19.7111C44.1333 20 44.2222 20.4 44.2222 21.7111V23.3333H46.6445C48.9556 23.3333 49.0667 23.3555 49.6445 23.9111C50.4 24.6889 50.4222 25.7555 49.6889 26.6C49.1778 27.2 49.0667 27.2222 46.6889 27.2889L44.2222 27.3778V33.3333C44.2222 39.5778 44.3111 40.3111 45.1778 40.5778C45.4222 40.6444 46.4889 40.6667 47.5333 40.5778C49.5556 40.4444 49.9111 40.5333 50.4222 41.4889C51.3556 43.2667 48.8444 44.7778 45.2889 44.6444C42.0667 44.4889 40.2667 43.1333 39.7778 40.4667C39.6667 39.8222 39.5556 36.5778 39.5556 33.3111V27.3333H38.3111C36.7556 27.3333 36.2222 27.0667 36.2222 26.2667C36.2222 25.7555 36.8445 25.0444 39.4 22.4889C41.2 20.7111 42.7778 19.3333 43 19.3333C43.2222 19.3333 43.6 19.4889 43.8222 19.7111ZM65.0222 23.1333C68.0222 23.6889 70.3556 25.4889 71.6667 28.2667C72.6444 30.3333 73.1111 33.1333 72.6667 34.2C72.1333 35.5111 71.8445 35.5555 64.4445 35.5555C59.2667 35.5555 57.7778 35.6222 57.7778 35.8222C57.8 36.3778 58.6889 38.1111 59.2889 38.7333C61.1333 40.6889 65.2 41.0889 68.7556 39.6667C70.5333 38.9555 70.7778 38.9778 71.5778 39.7555C72.8667 41.0444 72.2445 42.4444 69.9333 43.5333C67.9778 44.4444 66.4667 44.7333 63.8222 44.7111C59.9556 44.6889 57.1556 43.4667 55.2889 41C51.9778 36.6667 52.6445 28.6 56.5556 25.2667C58.8445 23.3111 61.8889 22.5555 65.0222 23.1333ZM30.8667 23.4667C31.9556 24.2444 32 24.6889 32 33.8667C32 38.8 31.9111 42.6444 31.7778 42.9778C31.4222 43.9555 30.7556 44.4444 29.7778 44.4444C28.6 44.4444 27.8445 43.9333 27.5556 42.9111C27.4222 42.4444 27.3333 38.6889 27.3333 33.6667C27.3333 26.0667 27.3778 25.1555 27.7333 24.4444C28.3556 23.1778 29.8 22.7333 30.8667 23.4667Z" fill="#15C16B"/>
<path d="M60.7556 27.4223C59.5111 28 58.5778 29.0667 58.0889 30.3778C57.5778 31.8667 57.2667 31.7778 63.1111 31.7778C69.1778 31.7778 68.9111 31.8889 67.9778 29.8889C66.7333 27.2445 63.5111 26.1334 60.7556 27.4223Z" fill="#15C16B"/>
</svg>
