<svg width="70" height="70" viewBox="0 0 70 70" fill="none" xmlns="http://www.w3.org/2000/svg">
<g clip-path="url(#clip0_555_899)">
<path d="M35.1501 0C15.8454 0 0.150146 15.6953 0.150146 35C0.150146 54.3047 15.8454 70 35.1501 70C54.4549 70 70.1501 54.3047 70.1501 35C70.1501 15.6953 54.4549 0 35.1501 0Z" fill="#FDDD4C"/>
<path d="M21.588 42.9848C20.9184 41.9709 22.6027 40.4366 21.9176 39.1481C21.5227 38.4052 20.8772 37.9421 20.102 37.845C19.358 37.7516 18.5916 38.024 18.1031 38.5562C17.3318 39.3955 17.2119 40.5381 17.3611 40.9423C17.4157 41.0904 17.5015 41.1309 17.5629 41.1396C17.983 41.195 18.2194 40.1167 18.3644 39.8921C18.7654 39.2732 19.676 39.086 20.3048 39.4926C21.4972 40.264 20.4633 41.5104 20.5525 42.563C20.6393 43.5881 21.2779 44.0002 21.8513 44.0435C22.4091 44.0645 22.7991 43.7548 22.8976 43.5286C23.1336 42.9885 22.1389 43.8189 21.588 42.9848Z" fill="black"/>
<path d="M46.5012 33.6783C46.1884 33.6352 45.8467 33.6361 45.4911 33.6783C45.2211 33.3377 44.9792 32.786 44.8427 32.1422C44.5999 30.9969 44.6252 30.1671 45.3029 30.0593C45.9806 29.9517 46.3081 30.6447 46.5509 31.7901C46.7139 32.5601 46.6826 33.2675 46.5012 33.6783Z" fill="black"/>
<path d="M39.0787 34.36C39.1056 34.6192 39.115 34.8817 39.1074 35.1234C39.7632 35.1619 40.2276 35.4732 40.3512 35.6709C40.4146 35.7729 40.3893 35.8394 40.3689 35.87C40.3009 35.9756 40.1554 35.9595 39.8507 35.9251C39.5845 35.8954 39.2979 35.8691 39 35.8827C38.8379 36.3799 38.3573 36.4265 38.0195 36.0588C37.7837 36.1305 37.3204 36.4265 37.1822 36.1049C37.1811 35.9455 37.348 35.7134 37.6501 35.5086C37.4438 35.1151 37.3055 34.694 37.224 34.2578C36.7956 34.335 36.4102 34.4549 36.1081 34.549C35.9664 34.5931 35.4053 34.8467 35.3394 34.561C35.2955 34.3637 35.6026 34.0384 35.9274 33.8035C36.2901 33.546 36.6926 33.3629 37.11 33.2572C37.101 32.636 37.2594 32.2024 37.7109 32.1307C38.2705 32.0416 38.6174 32.4726 38.8574 33.2704C39.5337 33.4583 40.2092 33.9242 40.5074 34.4059C40.6233 34.5927 40.6459 34.7371 40.5706 34.8132C40.3831 35.0075 39.3447 34.4442 39.0787 34.36Z" fill="black"/>
<path d="M43.5263 37.1521C43.9552 37.3599 44.4273 37.2781 44.5813 36.9692C44.7353 36.6601 44.5122 36.2414 44.083 36.0336C43.654 35.8258 43.1822 35.9076 43.028 36.2165C42.874 36.5254 43.0973 36.944 43.5263 37.1521Z" fill="black"/>
<path d="M45.6383 35.6178C45.646 35.1453 45.9356 34.7679 46.2839 34.7736C46.6319 34.7804 46.9078 35.1674 46.9001 35.639C46.8922 36.1106 46.6026 36.488 46.2546 36.4821C45.9063 36.4764 45.6305 36.0894 45.6383 35.6178Z" fill="black"/>
<path fill-rule="evenodd" clip-rule="evenodd" d="M56.2906 41.4677C56.2878 41.4579 56.2974 41.492 56.2906 41.4677C56.9897 41.4677 58.0877 42.2609 58.0877 44.1772C58.0877 46.084 57.2862 48.2437 57.0969 48.7232C54.2099 55.553 47.319 59.3549 39.1106 59.1143C31.4583 58.8901 24.9321 54.9042 22.0762 48.4065C20.3493 48.4084 18.5688 47.6586 17.2154 46.4747C15.7889 45.2274 14.9094 43.6132 14.7378 41.9297C14.6042 40.619 14.767 39.3994 15.1834 38.3359L13.5794 36.9941C6.23902 30.8765 29.1971 5.68798 36.5395 12.0097C36.5764 12.0414 39.0376 14.4245 39.0435 14.4303C42.5837 12.9465 52.0696 10.1215 52.0801 16.698C52.0841 18.8819 50.6742 21.4286 48.415 23.7396C51.026 26.1296 50.3373 29.5248 50.7532 32.6398L51.6599 32.8881C53.3887 33.3665 54.6183 34.0046 55.2201 34.6283C55.8216 35.2511 56.12 35.8546 56.2283 36.562C56.3296 37.1327 56.316 38.1405 55.5534 39.2675C55.828 39.9947 56.0786 40.7196 56.2906 41.4677ZM21.9465 46.6346C22.203 46.6403 22.4575 46.6239 22.7071 46.5817C25.3896 46.1302 26.0915 43.2542 25.6499 40.4302C25.1507 37.2415 22.9655 36.1173 21.4824 36.0375C21.0699 36.0162 20.6867 36.0528 20.3708 36.1153C17.7235 36.6419 16.2287 38.8652 16.5231 41.7527C16.7893 44.3659 19.4669 46.569 21.9465 46.6346ZM15.9508 36.8989C16.8391 35.6256 18.2909 34.7044 19.9388 34.3877C22.0362 28.8303 25.5387 23.7098 30.1743 20.1861C33.6143 17.3534 37.3243 15.3216 37.3243 15.3216C37.3243 15.3216 35.3265 13.0347 34.723 12.8663C31.0108 11.8768 22.9937 17.3342 17.8746 24.5452C15.8035 27.4625 12.8383 32.6291 14.2561 35.2867C14.4306 35.6159 15.4203 36.4618 15.9508 36.8989ZM46.0466 45.3582C46.0522 45.4179 46.0153 45.4796 45.9617 45.5017C45.9617 45.5017 42.9788 46.8713 38.2409 45.4247C38.4113 46.8448 40.1335 47.3829 41.3369 47.5778C47.2077 48.5749 52.6966 45.2611 53.9318 44.4265C54.144 44.2833 53.9292 44.6516 53.8909 44.7057C52.3785 46.6315 48.3126 48.8617 43.0228 48.8608C40.7156 48.8597 38.4098 48.058 37.5632 46.8251C36.2498 44.9126 37.498 42.1205 39.6871 42.411C43.3872 42.8235 47.1806 42.5136 50.606 40.9443C53.5926 39.5755 54.7207 38.0703 54.5511 36.8508C54.288 34.9608 51.486 34.6652 50.0696 34.2059C49.4534 34.0046 49.1491 33.8438 49.08 32.6996C49.0498 32.1999 48.9618 30.4569 48.9297 29.7359C48.8732 28.4742 48.719 26.7485 47.6349 26.0362C47.3521 25.8503 47.0382 25.7608 46.7076 25.7435C46.444 25.7308 46.2876 25.7672 46.2036 25.7866C46.1848 25.791 46.1695 25.7945 46.1577 25.7965C45.5721 25.8947 45.2133 26.1909 44.7903 26.5402C44.766 26.5603 44.7413 26.5807 44.7166 26.601C43.364 27.7138 42.2222 27.8956 40.9517 27.8418C40.5559 27.8252 40.1482 27.7858 39.7179 27.744C39.3222 27.7057 38.9076 27.6655 38.4662 27.6397L37.927 27.6088C35.7994 27.501 33.5176 29.3144 33.1383 31.89C32.7146 34.765 34.3216 36.5259 35.3665 37.6711C35.6249 37.9542 35.8489 38.1994 35.9994 38.4148C36.0958 38.5448 36.2081 38.7277 36.2081 38.9018C36.2081 39.1098 36.0713 39.2743 35.9379 39.4147C33.7672 41.618 33.0731 45.1187 33.8913 48.0359C33.9936 48.3997 34.1231 48.7482 34.2763 49.0811C36.1954 53.5077 42.1491 55.5694 47.9643 53.6943C52.0401 52.3803 55.6412 49.2047 56.3744 44.824C56.549 43.6826 56.2926 43.2418 55.9435 43.0289C55.574 42.8047 55.1312 42.8826 55.1312 42.8826C55.1312 42.8826 54.9293 41.5189 54.358 40.2792C52.6624 41.5996 50.4802 42.5276 48.8186 42.9981C46.1566 43.7521 43.2809 44.0455 40.5301 43.69C39.4143 43.5458 38.6646 43.4489 38.3433 44.4795C42.0126 45.8057 45.8963 45.2379 45.8963 45.2379C45.9713 45.2302 46.0387 45.284 46.0466 45.3582ZM35.4601 19.6201C33.4533 20.6336 31.2127 22.4382 29.3931 24.5144C29.3288 24.5885 29.4244 24.6905 29.5034 24.6338C31.0751 23.5048 33.23 22.4557 36.053 21.7761C39.215 21.0148 42.2593 21.3343 44.1187 21.7549C44.2123 21.7761 44.2707 21.6173 44.1881 21.5711C42.9593 20.8906 41.0735 20.4286 39.7358 20.419C39.6704 20.418 39.6335 20.3429 39.6724 20.291C39.9034 19.9839 40.2204 19.6807 40.51 19.4613C40.5743 19.4112 40.5354 19.3083 40.4533 19.3131C38.7893 19.414 34.9881 21.1471 35.0019 21.0841C35.0992 20.6221 35.4063 20.0118 35.5654 19.7269C35.6034 19.6596 35.5293 19.5855 35.4601 19.6201Z" fill="black"/>
</g>
<defs>
<clipPath id="clip0_555_899">
<rect width="70" height="70" fill="white"/>
</clipPath>
</defs>
</svg>
