<svg width="60" height="60" viewBox="0 0 60 60" fill="none" xmlns="http://www.w3.org/2000/svg">
<g clip-path="url(#clip0_396_233)">
<circle cx="30.3333" cy="30.3333" r="38.3333" fill="white"/>
<path d="M60 30C60 46.5685 46.5685 60 30 60C13.4315 60 0 46.5685 0 30C0 13.4315 13.4315 0 30 0C46.5685 0 60 13.4315 60 30Z" fill="#F37F27"/>
<path d="M39.3333 16.6H20.6667C19.1939 16.6 18 17.7641 18 19.2V40.4C18 41.8359 19.1939 43 20.6667 43H39.3333C40.8061 43 42 41.8359 42 40.4V19.2C42 17.7641 40.8061 16.6 39.3333 16.6Z" fill="white"/>
<path d="M32.6667 20.5V15.3C32.6667 14.582 32.0697 14 31.3333 14H28.6667C27.9303 14 27.3333 14.582 27.3333 15.3V20.5C27.3333 21.218 27.9303 21.8 28.6667 21.8H31.3333C32.0697 21.8 32.6667 21.218 32.6667 20.5Z" fill="#093A52"/>
</g>
<defs>
<clipPath id="clip0_396_233">
<rect width="60" height="60" fill="white"/>
</clipPath>
</defs>
</svg>
