<svg width="350" height="279" viewBox="0 0 350 279" fill="none" xmlns="http://www.w3.org/2000/svg">
<g clip-path="url(#clip0_444_759)">
<path d="M224.378 140.158H166.932C165.62 140.162 164.324 139.867 163.143 139.295C161.962 138.723 160.928 137.89 160.118 136.859C159.294 135.818 158.718 134.603 158.435 133.307C158.151 132.01 158.168 130.667 158.483 129.377C163.764 107.276 163.764 84.2438 158.482 62.1428C158.167 60.8538 158.151 59.5099 158.435 58.2136C158.718 56.9173 159.294 55.7026 160.118 54.6621C160.928 53.6306 161.962 52.7973 163.143 52.2256C164.324 51.6539 165.62 51.3587 166.932 51.3627H224.378C226.448 51.3689 228.448 52.1087 230.022 53.4504C231.596 54.7921 232.643 56.6486 232.975 58.6892C236.761 83.2585 236.761 108.262 232.975 132.831C232.643 134.872 231.596 136.728 230.022 138.07C228.448 139.412 226.448 140.152 224.378 140.158Z" fill="#F2F2F2"/>
<path d="M195.816 112.018C204.967 112.018 212.385 104.606 212.385 95.4633C212.385 86.3206 204.967 78.909 195.816 78.909C186.665 78.909 179.246 86.3206 179.246 95.4633C179.246 104.606 186.665 112.018 195.816 112.018Z" fill="white"/>
<path d="M203.74 93.304H197.977V87.546C197.977 86.9734 197.749 86.4242 197.344 86.0192C196.939 85.6143 196.389 85.3868 195.816 85.3868C195.243 85.3868 194.693 85.6143 194.288 86.0192C193.882 86.4242 193.655 86.9734 193.655 87.546V93.304H187.891C187.318 93.304 186.768 93.5316 186.363 93.9365C185.958 94.3414 185.73 94.8906 185.73 95.4633C185.73 96.036 185.958 96.5852 186.363 96.9901C186.768 97.3951 187.318 97.6226 187.891 97.6226H193.655V103.381C193.655 103.953 193.882 104.502 194.288 104.907C194.693 105.312 195.243 105.54 195.816 105.54C196.389 105.54 196.939 105.312 197.344 104.907C197.749 104.502 197.977 103.953 197.977 103.381V97.6226H203.74C204.313 97.6226 204.863 97.3951 205.268 96.9901C205.674 96.5852 205.901 96.036 205.901 95.4633C205.901 94.8906 205.674 94.3414 205.268 93.9365C204.863 93.5316 204.313 93.304 203.74 93.304Z" fill="#E6E6E6"/>
<path d="M335.785 119.198H278.338C277.08 119.202 275.838 118.919 274.707 118.371C273.575 117.823 272.583 117.024 271.807 116.036C271.017 115.038 270.465 113.873 270.193 112.63C269.921 111.387 269.937 110.098 270.239 108.862C275.533 86.7054 275.533 63.6151 270.239 41.459C269.937 40.2228 269.921 38.9341 270.193 37.6909C270.465 36.4478 271.017 35.2829 271.807 34.285C272.583 33.2963 273.575 32.4976 274.707 31.9497C275.838 31.4017 277.08 31.1189 278.338 31.1227H335.785C337.768 31.1284 339.685 31.8373 341.194 33.1232C342.703 34.409 343.707 36.1883 344.025 38.1442C347.806 62.6771 347.806 87.6437 344.025 112.177C343.707 114.133 342.703 115.912 341.194 117.198C339.685 118.484 337.768 119.192 335.785 119.198Z" fill="#E6E6E6"/>
<path d="M278.338 35.4412C277.734 35.4392 277.137 35.5748 276.594 35.8378C276.05 36.1008 275.574 36.4842 275.201 36.9588C274.817 37.4451 274.549 38.0125 274.417 38.6178C274.286 39.2231 274.294 39.8505 274.442 40.4521C279.895 63.2703 279.895 87.0505 274.442 109.869C274.294 110.47 274.286 111.097 274.417 111.703C274.549 112.308 274.817 112.875 275.201 113.361C275.574 113.836 276.05 114.22 276.594 114.483C277.137 114.746 277.734 114.882 278.338 114.88H335.785C336.737 114.88 337.659 114.543 338.386 113.927C339.112 113.312 339.597 112.459 339.753 111.521C343.467 87.4224 343.467 62.8984 339.753 38.8003C339.597 37.8616 339.112 37.0087 338.386 36.3935C337.659 35.7784 336.737 35.4409 335.785 35.4412L278.338 35.4412Z" fill="white"/>
<path d="M323.248 56.2066H293.103C291.957 56.2054 290.858 55.75 290.048 54.9404C289.238 54.1309 288.782 53.0332 288.781 51.8883V50.2007C288.782 49.0558 289.238 47.9582 290.048 47.1486C290.858 46.339 291.957 45.8836 293.103 45.8824H323.248C324.394 45.8836 325.493 46.339 326.303 47.1486C327.114 47.9582 327.569 49.0558 327.571 50.2007V51.8883C327.569 53.0332 327.114 54.1309 326.303 54.9405C325.493 55.75 324.394 56.2054 323.248 56.2066Z" fill="#E6E6E6"/>
<path d="M323.248 77.5298H293.103C291.957 77.5285 290.858 77.0732 290.048 76.2636C289.238 75.454 288.782 74.3564 288.781 73.2115V71.5239C288.782 70.379 289.238 69.2813 290.048 68.4717C290.858 67.6622 291.957 67.2068 293.103 67.2056H323.248C324.394 67.2068 325.493 67.6622 326.303 68.4717C327.114 69.2813 327.569 70.379 327.571 71.5239V73.2115C327.569 74.3564 327.114 75.454 326.303 76.2636C325.493 77.0732 324.394 77.5285 323.248 77.5298Z" fill="#E6E6E6"/>
<path d="M323.248 98.853H293.103C291.957 98.8518 290.858 98.3964 290.048 97.5868C289.238 96.7773 288.782 95.6796 288.781 94.5347V92.8471C288.782 91.7022 289.238 90.6046 290.048 89.795C290.858 88.9854 291.957 88.5301 293.103 88.5288H323.248C324.394 88.5301 325.493 88.9854 326.303 89.795C327.114 90.6046 327.569 91.7022 327.571 92.8471V94.5347C327.569 95.6796 327.114 96.7773 326.303 97.5868C325.493 98.3964 324.394 98.8518 323.248 98.853Z" fill="#E6E6E6"/>
<path d="M321.63 39.2358H291.373C290.513 39.2348 289.689 38.8933 289.082 38.2861C288.474 37.6789 288.132 36.8556 288.131 35.9969V30.2389C288.132 29.3802 288.474 28.5569 289.082 27.9497C289.689 27.3425 290.513 27.001 291.373 27H321.63C322.49 27.001 323.314 27.3425 323.921 27.9497C324.529 28.5569 324.871 29.3802 324.872 30.2389V35.9969C324.871 36.8556 324.529 37.6789 323.921 38.2861C323.314 38.8933 322.49 39.2348 321.63 39.2358Z" fill="#CCCCCC"/>
<path d="M301.785 231.478H244.338C243.08 231.482 241.838 231.199 240.707 230.651C239.575 230.103 238.583 229.305 237.807 228.316C237.017 227.318 236.465 226.153 236.193 224.91C235.921 223.667 235.937 222.378 236.239 221.142C241.533 198.986 241.533 175.895 236.239 153.739C235.937 152.503 235.921 151.214 236.193 149.971C236.465 148.728 237.017 147.563 237.807 146.565C238.583 145.577 239.575 144.778 240.707 144.23C241.838 143.682 243.08 143.399 244.338 143.403H301.785C303.768 143.409 305.685 144.118 307.194 145.403C308.703 146.689 309.707 148.469 310.025 150.424C313.806 174.957 313.806 199.924 310.025 224.457C309.707 226.413 308.703 228.192 307.194 229.478C305.685 230.764 303.768 231.473 301.785 231.478Z" fill="#E6E6E6"/>
<path d="M244.338 147.721C243.734 147.719 243.137 147.855 242.594 148.118C242.05 148.381 241.574 148.764 241.201 149.239C240.817 149.725 240.549 150.293 240.417 150.898C240.286 151.503 240.294 152.131 240.442 152.732C245.895 175.551 245.895 199.331 240.442 222.149C240.294 222.75 240.286 223.378 240.417 223.983C240.549 224.588 240.817 225.155 241.201 225.642C241.574 226.116 242.05 226.5 242.594 226.763C243.137 227.026 243.734 227.162 244.338 227.16H301.785C302.737 227.16 303.659 226.823 304.386 226.208C305.112 225.592 305.597 224.74 305.753 223.801C309.467 199.703 309.467 175.179 305.753 151.081C305.597 150.142 305.112 149.289 304.386 148.674C303.659 148.059 302.737 147.721 301.785 147.721L244.338 147.721Z" fill="white"/>
<path d="M289.248 179.283H259.103C257.957 179.282 256.858 178.826 256.048 178.017C255.238 177.207 254.782 176.11 254.781 174.965V173.277C254.782 172.132 255.238 171.035 256.048 170.225C256.858 169.415 257.957 168.96 259.103 168.959H289.248C290.394 168.96 291.493 169.415 292.303 170.225C293.114 171.035 293.569 172.132 293.571 173.277V174.965C293.569 176.11 293.114 177.207 292.303 178.017C291.493 178.826 290.394 179.282 289.248 179.283Z" fill="#E6E6E6"/>
<path d="M289.248 200.606H259.103C257.957 200.605 256.858 200.15 256.048 199.34C255.238 198.531 254.782 197.433 254.781 196.288V194.6C254.782 193.456 255.238 192.358 256.048 191.548C256.858 190.739 257.957 190.283 259.103 190.282H289.248C290.394 190.283 291.493 190.739 292.303 191.548C293.114 192.358 293.569 193.456 293.571 194.6V196.288C293.569 197.433 293.114 198.531 292.303 199.34C291.493 200.15 290.394 200.605 289.248 200.606Z" fill="#E6E6E6"/>
<path d="M289.071 152.236H258.814C257.954 152.235 257.13 151.893 256.522 151.286C255.915 150.679 255.573 149.856 255.572 148.997V143.239C255.573 142.38 255.915 141.557 256.522 140.95C257.13 140.343 257.954 140.001 258.814 140H289.071C289.93 140.001 290.754 140.343 291.362 140.95C291.97 141.557 292.312 142.38 292.313 143.239V148.997C292.312 149.856 291.97 150.679 291.362 151.286C290.754 151.893 289.93 152.235 289.071 152.236Z" fill="#CCCCCC"/>
<path d="M63.8257 270.047H72.6579L75.4192 236.011H63.8242L63.8257 270.047Z" fill="#FFB8B8"/>
<path d="M61.573 267.166L78.9665 267.165H78.9672C80.4228 267.165 81.8642 267.452 83.2091 268.008C84.5539 268.565 85.7759 269.381 86.8052 270.409C87.8345 271.437 88.651 272.658 89.208 274.002C89.7651 275.345 90.0518 276.785 90.0518 278.24V278.6L61.5735 278.601L61.573 267.166Z" fill="#2F2E41"/>
<path d="M16.2783 270.047H25.1105L29.3127 236.011H16.2769L16.2783 270.047Z" fill="#FFB8B8"/>
<path d="M14.0259 267.166L31.4193 267.165H31.4201C32.8757 267.165 34.3171 267.452 35.662 268.008C37.0068 268.565 38.2288 269.381 39.2581 270.409C40.2874 271.437 41.1039 272.658 41.6609 274.002C42.218 275.345 42.5047 276.785 42.5047 278.24V278.6L14.0264 278.601L14.0259 267.166Z" fill="#2F2E41"/>
<path d="M17.8454 259.295C16.9444 259.295 16.0765 258.956 15.414 258.346C15.0584 258.022 14.7719 257.629 14.5719 257.192C14.3719 256.754 14.2624 256.281 14.25 255.8L10.708 128.97L61.0007 141.532L76.5181 188.04C78.5191 194.023 79.3853 200.327 79.0722 206.627L77.1454 251.71C77.1015 252.634 76.7031 253.505 76.0331 254.143C75.3631 254.781 74.4729 255.136 73.5474 255.135H65.1121C64.2415 255.132 63.4013 254.815 62.7456 254.242C62.09 253.67 61.6629 252.881 61.5426 252.019L55.5136 202.254C54.9868 198.372 53.6274 194.649 51.5285 191.34L39.6637 172.572C39.5843 172.446 39.4682 172.348 39.3311 172.292C39.194 172.235 39.0426 172.221 38.8977 172.254C38.7529 172.286 38.6215 172.362 38.5216 172.472C38.4218 172.582 38.3583 172.72 38.3398 172.867L29.0288 255.702C28.9288 256.542 28.5354 257.32 27.9177 257.899C27.3001 258.478 26.4978 258.82 25.6522 258.866L18.0504 259.289C17.9821 259.293 17.9138 259.295 17.8454 259.295Z" fill="#2F2E41"/>
<path d="M52.6315 46.8564C62.4037 46.8564 70.3256 38.9417 70.3256 29.1785C70.3256 19.4153 62.4037 11.5007 52.6315 11.5007C42.8594 11.5007 34.9375 19.4153 34.9375 29.1785C34.9375 38.9417 42.8594 46.8564 52.6315 46.8564Z" fill="#FFB8B8"/>
<path d="M60.7599 146.69C60.4554 146.689 60.1522 146.651 59.8572 146.575L9.95793 133.793C9.06579 133.564 8.29509 133.003 7.80429 132.225C7.31348 131.446 7.13986 130.509 7.31916 129.607L18.7788 67.9307C19.4928 64.3655 21.0622 61.0268 23.3522 58.2011C25.6421 55.3754 28.5844 53.1472 31.9262 51.7078C35.1823 50.268 38.7432 49.6511 42.2945 49.9116C45.8457 50.1721 49.2782 51.3019 52.289 53.2014C52.9876 53.6369 53.6913 54.1116 54.3801 54.6128C57.1529 56.6564 59.4141 59.3139 60.9863 62.3771C62.5586 65.4402 63.3991 68.8256 63.442 72.2678L64.3533 143.04C64.3594 143.516 64.2711 143.988 64.0934 144.43C63.9157 144.872 63.6522 145.274 63.3181 145.613C62.984 145.953 62.5859 146.222 62.1468 146.407C61.7077 146.592 61.2363 146.688 60.7599 146.69Z" fill="#F37F27"/>
<path d="M15.0921 147.415C14.4968 146.54 14.1009 145.545 13.9321 144.5C13.7634 143.456 13.826 142.387 14.1154 141.369C14.4048 140.351 14.9141 139.409 15.6074 138.609C16.3006 137.81 17.161 137.171 18.1279 136.739L15.9085 111.115L27.6699 117.484L27.9744 140.841C28.5927 142.512 28.576 144.351 27.9276 146.011C27.2791 147.67 26.0439 149.034 24.456 149.845C22.8681 150.655 21.0378 150.855 19.312 150.407C17.5862 149.96 16.0847 148.895 15.0921 147.415Z" fill="#FFB8B8"/>
<path d="M19.294 133.35C18.9621 133.35 18.6316 133.308 18.3101 133.226C17.6186 133.05 16.9876 132.69 16.4839 132.185C15.9802 131.68 15.6226 131.048 15.4487 130.357L9.66871 107.408C7.64876 99.3935 8.61168 90.9183 12.3783 83.5596L24.4876 59.8929C25.2531 57.0593 27.1026 54.6398 29.6373 53.1562C32.1721 51.6727 35.1889 51.2438 38.0372 51.9623C39.4568 52.3204 40.7912 52.9566 41.9629 53.8339C43.1346 54.7112 44.1204 55.8121 44.863 57.0729C45.6209 58.3518 46.1165 59.7685 46.3211 61.2405C46.5257 62.7126 46.4351 64.2106 46.0546 65.6474L28.8169 104.158L29.0217 127.216C29.027 128.029 28.7822 128.825 28.3203 129.495C27.8585 130.165 27.2019 130.677 26.4394 130.962L20.6708 133.102C20.2303 133.266 19.7641 133.35 19.294 133.35Z" fill="#F37F27"/>
<path d="M101.807 137.99C100.755 137.869 99.7416 137.52 98.8391 136.967C97.9366 136.413 97.1665 135.668 96.5832 134.785C95.9998 133.902 95.6174 132.902 95.4628 131.855C95.3082 130.808 95.3852 129.74 95.6884 128.727L74.8013 113.692L87.3051 108.94L105.223 123.946C106.894 124.568 108.279 125.78 109.114 127.354C109.95 128.927 110.179 130.753 109.758 132.484C109.337 134.215 108.295 135.731 106.83 136.746C105.364 137.761 103.577 138.203 101.807 137.99Z" fill="#FFB8B8"/>
<path d="M90.8726 127.01C90.2568 127.01 89.6494 126.867 89.0985 126.592L67.919 115.999C60.5214 112.3 54.7201 106.042 51.594 98.3901L41.539 73.7815C39.889 71.3531 39.2601 68.3742 39.7881 65.487C40.316 62.5997 41.9585 60.0354 44.3614 58.3469C45.562 57.5035 46.9186 56.9072 48.3521 56.5929C49.7857 56.2786 51.2675 56.2526 52.7112 56.5162C54.1719 56.7786 55.566 57.328 56.8126 58.1326C58.0592 58.9372 59.1336 59.9809 59.9735 61.2034L77.9443 99.3787L95.5697 114.265C96.1903 114.792 96.6342 115.496 96.8412 116.283C97.0482 117.069 97.0084 117.901 96.7271 118.664L94.5877 124.428C94.3084 125.184 93.8038 125.836 93.142 126.297C92.4766 126.761 91.6844 127.01 90.8726 127.01Z" fill="#F37F27"/>
<path d="M48.9161 47.127C49.8563 47.538 51.7815 40.0538 50.9191 38.5569C49.6366 36.3307 49.7124 36.3467 48.861 34.8739C48.0096 33.4011 47.8191 31.3852 48.9216 30.0893C50.0242 28.7934 52.5756 28.9653 53.0787 30.5901C52.755 27.5039 55.8104 25.0231 58.837 24.326C61.8635 23.6288 65.0559 24.0617 68.099 23.4413C71.6308 22.7213 75.3054 19.7636 73.8963 15.8834C73.6545 15.2374 73.2925 14.6429 72.8294 14.1315C71.2013 12.3026 68.9239 11.5217 66.6972 10.7666C62.0649 9.1958 57.3059 7.60523 52.4171 7.77863C48.3891 7.98905 44.5097 9.36808 41.2539 11.747C37.998 14.1258 35.5069 17.4013 34.0853 21.1727C33.7484 22.1161 33.4874 23.085 33.3048 24.0699C31.6268 33.0843 36.8663 41.9759 45.3762 45.4085L48.9161 47.127Z" fill="#2F2E41"/>
<path opacity="0.2" d="M28.0239 127.739L28.4252 104.038L40.9913 78.796L30.9056 104.707L28.0239 127.739Z" fill="black"/>
<path d="M141.977 187.219L88.9267 165.198C87.7639 164.719 86.7256 163.982 85.8909 163.042C85.0562 162.102 84.4471 160.985 84.11 159.774C83.7633 158.55 83.7009 157.262 83.9274 156.01C84.154 154.758 84.6635 153.574 85.4172 152.548C98.8153 134.117 107.683 112.794 111.302 90.3037C111.498 89.0464 111.978 87.8504 112.707 86.8065C113.435 85.7627 114.392 84.8986 115.505 84.2799C116.602 83.6645 117.824 83.3071 119.08 83.2349C120.335 83.1627 121.591 83.3776 122.751 83.8633L175.801 105.885C177.63 106.65 179.128 108.04 180.028 109.805C180.928 111.571 181.171 113.599 180.714 115.528C174.784 139.632 165.196 162.688 152.283 183.894C151.238 185.578 149.628 186.836 147.74 187.445C145.853 188.054 143.81 187.974 141.977 187.219Z" fill="#E6E6E6"/>
<path d="M121.092 87.8513C120.535 87.6179 119.932 87.5145 119.329 87.549C118.726 87.5834 118.139 87.7548 117.612 88.0502C117.071 88.352 116.606 88.7732 116.252 89.2818C115.898 89.7904 115.665 90.373 115.57 90.9851C111.843 114.147 102.71 136.107 88.9118 155.089C88.5443 155.588 88.2956 156.164 88.1846 156.773C88.0735 157.382 88.1031 158.009 88.271 158.605C88.433 159.187 88.7258 159.724 89.1268 160.175C89.5278 160.626 90.0265 160.98 90.585 161.21L143.635 183.231C144.514 183.596 145.495 183.638 146.403 183.349C147.31 183.059 148.085 182.457 148.59 181.65C161.274 160.82 170.692 138.173 176.517 114.496C176.733 113.569 176.613 112.596 176.178 111.749C175.743 110.902 175.022 110.237 174.142 109.872L121.092 87.8513Z" fill="white"/>
<path d="M149.339 136.872L121.501 125.316C120.443 124.875 119.603 124.034 119.166 122.976C118.729 121.917 118.729 120.729 119.168 119.671L119.816 118.113C120.257 117.056 121.099 116.217 122.158 115.78C123.217 115.343 124.407 115.344 125.466 115.782L153.304 127.338C154.362 127.778 155.202 128.62 155.639 129.678C156.076 130.736 156.076 131.925 155.637 132.982L154.989 134.541C154.548 135.598 153.706 136.436 152.647 136.873C151.587 137.31 150.398 137.31 149.339 136.872Z" fill="#F37F27"/>
<path d="M141.15 156.563L113.312 145.007C112.254 144.567 111.414 143.725 110.977 142.667C110.54 141.609 110.54 140.42 110.979 139.362L111.627 137.804C112.068 136.747 112.91 135.908 113.969 135.471C115.029 135.034 116.218 135.035 117.277 135.473L145.115 147.029C146.173 147.469 147.013 148.311 147.45 149.369C147.887 150.427 147.887 151.616 147.448 152.674L146.8 154.232C146.359 155.289 145.517 156.128 144.458 156.565C143.398 157.002 142.209 157.001 141.15 156.563Z" fill="#F37F27"/>
<path d="M160.494 109.198C160.077 109.197 159.665 109.116 159.279 108.96L131.227 97.6288C130.431 97.3061 129.795 96.6809 129.459 95.8904C129.124 95.0999 129.116 94.2087 129.437 93.4122L131.597 88.0738C131.92 87.2775 132.545 86.6418 133.337 86.3064C134.128 85.971 135.021 85.9634 135.818 86.2854L163.869 97.6162C164.666 97.9389 165.301 98.5641 165.637 99.3546C165.973 100.145 165.981 101.036 165.66 101.833L163.499 107.171C163.257 107.769 162.841 108.281 162.306 108.642C161.771 109.003 161.14 109.196 160.494 109.198Z" fill="#CCCCCC"/>
<path d="M101.578 279H0.720411C0.529346 279 0.346117 278.924 0.211014 278.789C0.0759107 278.654 0 278.471 0 278.28C0 278.089 0.0759107 277.906 0.211014 277.771C0.346117 277.636 0.529346 277.561 0.720411 277.561H101.578C101.769 277.561 101.952 277.636 102.087 277.771C102.222 277.906 102.298 278.089 102.298 278.28C102.298 278.471 102.222 278.654 102.087 278.789C101.952 278.924 101.769 279 101.578 279Z" fill="#CCCCCC"/>
</g>
<defs>
<clipPath id="clip0_444_759">
<rect width="350" height="279" fill="white"/>
</clipPath>
</defs>
</svg>
