<svg width="60" height="60" viewBox="0 0 60 60" fill="none" xmlns="http://www.w3.org/2000/svg">
<g clip-path="url(#clip0_423_943)">
<circle cx="30.3333" cy="30.3333" r="38.3333" fill="white"/>
<path d="M60 30C60 46.5685 46.5685 60 30 60C13.4315 60 0 46.5685 0 30C0 13.4315 13.4315 0 30 0C46.5685 0 60 13.4315 60 30Z" fill="#F37F27"/>
<path d="M24.75 21.8H23.3125C22.9313 21.8 22.5656 21.6472 22.296 21.3753C22.0265 21.1034 21.875 20.7346 21.875 20.35C21.875 19.9654 22.0265 19.5966 22.296 19.3247C22.5656 19.0528 22.9313 18.9 23.3125 18.9H39.125V17.45C39.125 17.0654 38.9735 16.6966 38.704 16.4247C38.4344 16.1528 38.0687 16 37.6875 16H21.875C21.1125 16 20.3812 16.3055 19.8421 16.8494C19.3029 17.3932 19 18.1309 19 18.9V42.1C19 43.695 20.2937 45 21.875 45H39.125C39.8875 45 40.6188 44.6945 41.1579 44.1506C41.6971 43.6068 42 42.8691 42 42.1V23.25C42 22.8654 41.8486 22.4966 41.579 22.2247C41.3094 21.9528 40.9437 21.8 40.5625 21.8H30.5V33.4L27.625 30.5L24.75 33.4V21.8Z" fill="white"/>
</g>
<defs>
<clipPath id="clip0_423_943">
<rect width="60" height="60" fill="white"/>
</clipPath>
</defs>
</svg>
