<svg width="270" height="273" viewBox="0 0 270 273" fill="none" xmlns="http://www.w3.org/2000/svg">
<g clip-path="url(#clip0_444_1145)">
<path d="M184.134 202.121C184.674 202.409 185.289 202.525 185.897 202.452C186.504 202.379 187.074 202.121 187.53 201.713C187.986 201.304 188.306 200.766 188.446 200.17C188.586 199.574 188.539 198.95 188.312 198.381C188.373 198.079 188.416 197.861 188.477 197.559C189.645 196.469 191.111 195.752 192.688 195.501C194.265 195.25 195.881 195.476 197.329 196.15C198.777 196.824 199.991 197.915 200.815 199.283C201.639 200.651 202.036 202.235 201.955 203.83C201.585 212.828 202.03 222.538 196.051 229.792C223.337 207.487 235.778 169.489 227.446 135.314C223.357 129.614 221.449 122.043 223.283 115.182C225.584 117.42 230.069 116.819 229.384 112.943C229.016 111.412 228.636 109.885 228.268 108.353C243.984 102.218 248.087 125.595 229.471 135.112C230.981 141.61 231.808 148.247 231.939 154.917C234.04 148.903 237.539 143.474 242.147 139.077C246.608 135.058 252.508 132.696 257.996 129.999C264.674 126.71 272.086 133.231 269.457 140.193C265.011 139.624 261.865 144.939 265.899 147.796C258.814 159.7 245.227 167.267 231.423 167.387C230.027 180.97 225.753 194.1 218.886 205.901C227.704 192.487 244.77 196.349 258.257 195.778C259.151 195.665 260.06 195.815 260.871 196.21C261.682 196.605 262.36 197.227 262.824 198.001C263.287 198.775 263.516 199.667 263.481 200.569C263.446 201.47 263.15 202.342 262.628 203.078C260.854 202.974 259.074 203.046 257.314 203.294C256.486 203.417 255.717 203.793 255.111 204.37C254.505 204.948 254.092 205.698 253.93 206.519C253.767 207.341 253.862 208.192 254.202 208.957C254.542 209.722 255.11 210.363 255.829 210.792C243.998 221.642 225.666 223.974 211.277 217.051C207.024 222.411 202.224 227.315 196.957 231.682L175.566 221.482C175.603 221.208 175.651 220.929 175.695 220.659C177.616 221.727 179.66 222.557 181.782 223.128C179.5 214.426 176.957 209.329 184.133 202.121H184.134Z" fill="#F2F2F2"/>
<path d="M146.336 181.535C145.945 182.005 145.419 182.345 144.829 182.506C144.238 182.668 143.613 182.644 143.037 182.438C142.46 182.232 141.961 181.854 141.607 181.355C141.253 180.856 141.061 180.26 141.057 179.648C140.886 179.39 140.764 179.206 140.594 178.948C139.101 178.379 137.473 178.269 135.918 178.632C134.363 178.994 132.951 179.813 131.864 180.984C130.777 182.154 130.064 183.623 129.817 185.201C129.57 186.779 129.799 188.395 130.476 189.842C134.211 198.036 137.461 207.196 145.733 211.658C112.052 201.297 86.2026 170.801 81.0334 136.006C82.671 129.185 81.5825 121.453 77.2972 115.79C76.0104 118.732 71.6296 119.867 70.8031 116.019C70.5662 114.462 70.3428 112.904 70.1058 111.347C53.2378 111.596 58.2522 134.793 79.0817 136.583C80.133 143.171 81.8698 149.63 84.2637 155.856C80.0498 151.079 74.7626 147.372 68.8369 145.038C63.1898 143 56.8352 143.038 50.7358 142.612C43.3106 142.086 38.9052 150.922 43.9653 156.377C47.868 154.172 52.7857 157.908 50.1266 162.076C61.1775 170.427 76.6133 172.308 89.443 167.211C95.8577 179.264 104.767 189.811 115.577 198.149C102.352 189.053 88.003 199.07 75.2971 203.63C74.4258 203.863 73.6412 204.345 73.0389 205.016C72.4367 205.688 72.0428 206.52 71.9054 207.412C71.768 208.304 71.893 209.216 72.2651 210.038C72.6372 210.86 73.2404 211.555 74.001 212.04C75.6049 211.274 77.2809 210.67 79.0043 210.235C79.8172 210.036 80.6716 210.094 81.4504 210.4C82.2293 210.706 82.8944 211.246 83.3547 211.945C83.8149 212.644 84.0478 213.469 84.0213 214.305C83.9948 215.142 83.7103 215.95 83.2068 216.619C98.2548 222.203 116.112 217.445 126.827 205.604C132.788 208.963 139.082 211.693 145.607 213.751L161.571 196.233C161.434 195.992 161.285 195.753 161.142 195.519C159.766 197.233 158.185 198.773 156.435 200.103C155.268 191.182 155.701 185.502 146.337 181.534L146.336 181.535Z" fill="#F2F2F2"/>
<path d="M150.445 107.51C151.053 107.448 151.629 107.201 152.092 106.802C152.556 106.402 152.886 105.87 153.037 105.276C153.188 104.683 153.153 104.058 152.937 103.485C152.721 102.913 152.334 102.42 151.829 102.075C151.71 101.79 151.626 101.585 151.508 101.3C151.869 99.7442 152.687 98.3316 153.856 97.2436C155.026 96.1555 156.493 95.4416 158.071 95.1933C159.648 94.945 161.264 95.1737 162.711 95.85C164.158 96.5263 165.37 97.6195 166.191 98.9893C170.9 106.665 176.68 114.477 175.76 123.834C185.979 90.0985 175.13 51.616 149.165 27.8932C142.594 25.4423 136.791 20.2207 134.489 13.5022C137.647 14.0773 141.035 11.0763 138.306 8.24144C137.147 7.17508 135.98 6.11971 134.821 5.05328C144.448 -8.80491 160.883 8.31214 150.734 26.5963C155.609 31.1477 159.995 36.1964 163.82 41.6602C162.213 35.4958 162.092 29.0377 163.466 22.8172C164.93 16.993 168.511 11.741 171.564 6.44184C175.275 -0.0135916 185.062 1.26584 186.759 8.51147C182.752 10.5187 183.103 16.686 188.044 16.8073C188.797 30.6417 181.735 44.5008 170.343 52.2998C176.755 64.3546 180.524 77.6381 181.401 91.265C181.245 75.211 197.564 68.8986 208.442 60.9019C209.122 60.3091 209.959 59.9271 210.853 59.8024C211.746 59.6777 212.656 59.8158 213.472 60.1999C214.288 60.5839 214.975 61.1972 215.449 61.965C215.923 62.7328 216.163 63.6219 216.14 64.5238C214.609 65.427 213.171 66.48 211.849 67.6674C211.23 68.2309 210.8 68.9721 210.619 69.7894C210.438 70.6066 210.514 71.46 210.837 72.2324C211.159 73.0047 211.713 73.6584 212.421 74.1037C213.13 74.5491 213.959 74.7643 214.795 74.7198C211.02 90.3255 197.102 102.487 181.299 104.764C180.755 111.587 179.504 118.334 177.566 124.898L154.123 128.361C154.001 128.113 153.885 127.855 153.771 127.606C155.961 127.422 158.12 126.97 160.201 126.261C153.456 120.309 148.504 117.496 150.444 107.51L150.445 107.51Z" fill="#F2F2F2"/>
<path d="M174.022 99.9904C163.35 99.9904 157.561 98.6857 155.539 95.9008C153.755 93.4436 154.951 90.2015 156.336 86.4476C157.331 83.7494 158.459 80.6913 158.459 77.6646C158.459 62.9434 165.921 55.4789 180.637 55.4789C187.959 55.4789 195.82 59.3698 201.667 65.8872C206.981 71.8121 209.629 78.9032 208.931 85.3422C208.358 90.6229 205.901 94.0956 201.198 96.2716L200.923 96.3989L200.845 96.106C200.439 94.5904 199.752 93.1647 198.819 91.9031C198.728 93.8834 198.229 95.8235 197.353 97.6017L197.303 97.703L197.195 97.7341C191.872 99.2507 185.555 99.6616 180.647 99.8499C178.258 99.9431 176.049 99.9899 174.022 99.9904Z" fill="#2F2E41"/>
<path d="M176.931 120.501C176.522 119.299 175.832 118.211 174.918 117.328C174.005 116.445 172.894 115.793 171.678 115.426C170.462 115.059 169.176 114.987 167.927 115.216C166.678 115.446 165.501 115.97 164.495 116.745L129.39 137.741L118.405 110.928C119.333 109.566 119.806 107.945 119.757 106.298C119.707 104.651 119.137 103.061 118.128 101.758C117.12 100.455 115.724 99.5045 114.143 99.0435C112.561 98.5826 110.874 98.6346 109.323 99.1921C107.773 99.7496 106.439 100.784 105.512 102.147C104.586 103.51 104.115 105.131 104.166 106.779C104.218 108.426 104.79 110.014 105.8 111.317C106.81 112.619 108.206 113.567 109.789 114.027C110.466 121.759 114.228 156.318 127.318 155.061C138.321 154.005 165.645 135.802 174.131 129.49C175.489 128.481 176.492 127.067 176.995 125.452C177.498 123.837 177.476 122.103 176.931 120.501Z" fill="#FFB6B6"/>
<path d="M203.385 273H172.831L167.707 247.657L166.045 273H137.663C137.674 253.098 138.711 233.21 140.768 213.415L141.12 212.217L141.676 210.299L142.027 209.095L147.901 188.919L148.365 187.318H183.731C185.766 189.23 187.644 191.304 189.344 193.519C189.921 194.254 190.522 195.049 191.139 195.906C191.567 196.513 192.011 197.151 192.454 197.819C196.395 203.688 199.341 210.167 201.172 216.995V217C201.483 218.168 201.759 219.364 201.998 220.586V220.591C202.213 221.677 202.401 222.779 202.549 223.906C202.661 224.727 202.758 225.558 202.829 226.4C203.254 231.062 203.105 235.759 202.386 240.385L203.385 273Z" fill="#2F2E41"/>
<path d="M41.3881 41.2707C43.3724 40.5024 44.5478 38.7601 44.0134 37.3792C43.4791 35.9983 41.4374 35.5018 39.4531 36.2702C37.4689 37.0386 36.2935 38.7809 36.8278 40.1618C37.3622 41.5426 39.4039 42.0391 41.3881 41.2707Z" fill="#E6E6E6"/>
<path d="M66.3718 38.0647C68.356 37.2963 69.5314 35.554 68.9971 34.1731C68.4627 32.7923 66.421 32.2958 64.4368 33.0642C62.4525 33.8326 61.2772 35.5748 61.8115 36.9557C62.3458 38.3366 64.3875 38.8331 66.3718 38.0647Z" fill="#3F3D56"/>
<path d="M39.2214 62.5935C41.2056 61.8251 42.381 60.0828 41.8467 58.7019C41.3124 57.3211 39.2707 56.8246 37.2864 57.593C35.3022 58.3614 34.1268 60.1037 34.6611 61.4845C35.1954 62.8654 37.2371 63.3619 39.2214 62.5935Z" fill="#FF6584"/>
<path d="M31.994 71.999C32.9043 71.7835 33.3912 70.5476 33.0815 69.2385C32.7717 67.9295 31.7827 67.043 30.8724 67.2585C29.9621 67.4741 29.4752 68.71 29.7849 70.019C30.0947 71.3281 31.0837 72.2146 31.994 71.999Z" fill="#E6E6E6"/>
<path d="M31.8453 87.923C32.7556 87.7074 33.2425 86.4715 32.9328 85.1625C32.623 83.8534 31.634 82.9669 30.7237 83.1825C29.8134 83.398 29.3265 84.634 29.6363 85.943C29.946 87.252 30.935 88.1385 31.8453 87.923Z" fill="#3F3D56"/>
<path d="M53.7726 54.9408C54.6829 54.7252 55.1697 53.4893 54.86 52.1803C54.5503 50.8712 53.5612 49.9848 52.6509 50.2003C51.7406 50.4158 51.2538 51.6518 51.5635 52.9608C51.8732 54.2699 52.8623 55.1563 53.7726 54.9408Z" fill="#E6E6E6"/>
<path d="M40.6146 51.7443C41.5249 51.5287 42.0118 50.2928 41.702 48.9837C41.3923 47.6747 40.4033 46.7882 39.493 47.0038C38.5827 47.2193 38.0958 48.4552 38.4055 49.7643C38.7153 51.0733 39.7043 51.9598 40.6146 51.7443Z" fill="#FF6584"/>
<path d="M54.5609 37.081C55.4712 36.8655 55.9581 35.6296 55.6483 34.3205C55.3386 33.0115 54.3496 32.125 53.4393 32.3406C52.529 32.5561 52.0421 33.792 52.3518 35.1011C52.6616 36.4101 53.6506 37.2966 54.5609 37.081Z" fill="#3F3D56"/>
<path d="M61.0474 147.294C62.0068 146.166 61.4711 144.134 59.8509 142.754C58.2307 141.374 56.1394 141.17 55.18 142.298C54.2206 143.425 54.7563 145.458 56.3766 146.837C57.9968 148.217 60.088 148.421 61.0474 147.294Z" fill="#E6E6E6"/>
<path d="M46.3333 126.843C47.2927 125.715 46.757 123.683 45.1368 122.303C43.5166 120.923 41.4253 120.719 40.4659 121.847C39.5065 122.974 40.0422 125.007 41.6625 126.386C43.2827 127.766 45.3739 127.97 46.3333 126.843Z" fill="#3F3D56"/>
<path d="M80.8228 139.047C81.7822 137.92 81.2465 135.887 79.6263 134.507C78.0061 133.128 75.9148 132.923 74.9554 134.051C73.996 135.178 74.5317 137.211 76.152 138.591C77.7722 139.97 79.8634 140.175 80.8228 139.047Z" fill="#FF6584"/>
<path d="M90.6465 139.273C91.6497 138.377 91.958 137.085 91.3351 136.387C90.7122 135.689 89.394 135.849 88.3907 136.745C87.3875 137.64 87.0792 138.932 87.7021 139.631C88.325 140.329 89.6433 140.169 90.6465 139.273Z" fill="#E6E6E6"/>
<path d="M104.715 131.822C105.718 130.926 106.027 129.634 105.404 128.936C104.781 128.237 103.463 128.398 102.459 129.293C101.456 130.189 101.148 131.481 101.771 132.179C102.394 132.878 103.712 132.717 104.715 131.822Z" fill="#3F3D56"/>
<path d="M65.282 128.237C66.2852 127.341 66.5935 126.049 65.9706 125.351C65.3477 124.653 64.0295 124.813 63.0262 125.709C62.023 126.604 61.7147 127.896 62.3376 128.595C62.9605 129.293 64.2788 129.133 65.282 128.237Z" fill="#E6E6E6"/>
<path d="M68.7373 141.334C69.7405 140.438 70.0489 139.146 69.4259 138.448C68.803 137.75 67.4848 137.91 66.4816 138.806C65.4783 139.701 65.17 140.993 65.7929 141.692C66.4158 142.39 67.7341 142.23 68.7373 141.334Z" fill="#FF6584"/>
<path d="M49.207 136.047C50.2103 135.151 50.5186 133.859 49.8957 133.161C49.2728 132.463 47.9545 132.623 46.9513 133.519C45.9481 134.415 45.6397 135.707 46.2626 136.405C46.8856 137.103 48.2038 136.943 49.207 136.047Z" fill="#3F3D56"/>
<path d="M159.896 16.1282C161.224 15.4747 161.54 13.3966 160.601 11.4866C159.662 9.57658 157.824 8.55795 156.496 9.21141C155.167 9.86487 154.852 11.943 155.791 13.853C156.73 15.763 158.568 16.7816 159.896 16.1282Z" fill="#E6E6E6"/>
<path d="M165.278 40.7437C166.606 40.0902 166.921 38.0121 165.982 36.1021C165.043 34.1921 163.205 33.1734 161.877 33.8269C160.549 34.4803 160.233 36.5584 161.172 38.4685C162.111 40.3785 163.949 41.3971 165.278 40.7437Z" fill="#3F3D56"/>
<path d="M138.473 15.8372C139.801 15.1838 140.117 13.1057 139.178 11.1957C138.239 9.28563 136.401 8.26698 135.073 8.92044C133.744 9.5739 133.429 11.652 134.368 13.562C135.307 15.4721 137.145 16.4907 138.473 15.8372Z" fill="#FF6584"/>
<path d="M127.213 8.02556C128.489 7.60221 129.285 6.53896 128.991 5.65071C128.697 4.76245 127.423 4.38556 126.147 4.8089C124.87 5.23225 124.074 6.29552 124.369 7.18377C124.663 8.07202 125.937 8.4489 127.213 8.02556Z" fill="#E6E6E6"/>
<path d="M111.343 9.27269C112.619 8.84935 113.415 7.78608 113.121 6.89783C112.826 6.00958 111.553 5.6327 110.277 6.05604C109 6.47939 108.204 7.54264 108.499 8.43089C108.793 9.31915 110.066 9.69604 111.343 9.27269Z" fill="#3F3D56"/>
<path d="M146.107 28.2337C147.384 27.8103 148.18 26.7471 147.885 25.8588C147.591 24.9706 146.318 24.5937 145.041 25.017C143.765 25.4404 142.969 26.5036 143.263 27.3919C143.557 28.2802 144.831 28.657 146.107 28.2337Z" fill="#E6E6E6"/>
<path d="M148.137 14.8413C149.414 14.418 150.21 13.3547 149.916 12.4665C149.621 11.5782 148.348 11.2014 147.071 11.6247C145.795 12.048 144.999 13.1113 145.293 13.9996C145.588 14.8878 146.861 15.2647 148.137 14.8413Z" fill="#FF6584"/>
<path d="M163.961 27.4546C165.238 27.0313 166.034 25.968 165.739 25.0798C165.445 24.1915 164.172 23.8146 162.895 24.238C161.619 24.6613 160.823 25.7246 161.117 26.6128C161.411 27.5011 162.685 27.878 163.961 27.4546Z" fill="#3F3D56"/>
<path d="M168.861 104.089L185.693 103.221L193.511 115.58C193.511 115.58 208.221 118.04 207.202 135.38C206.182 152.721 189.304 167.937 189.304 167.937L190.025 176.967L188.772 180.549L188.933 182.56L190.642 184.69L190.818 186.893L189.304 190.378L191.363 193.715L148.062 189.518L146.478 183.748L148.788 180.649L147.498 176.607L149.438 172.72L150.449 160.372C150.449 160.372 139.384 143.742 152.086 131.216L157.185 122.546L162.889 115.583L168.861 104.089Z" fill="#F37F27"/>
<path d="M177.229 100.599C187.079 100.599 195.065 92.6108 195.065 82.7567C195.065 72.9026 187.079 64.9142 177.229 64.9142C167.378 64.9142 159.393 72.9026 159.393 82.7567C159.393 92.6108 167.378 100.599 177.229 100.599Z" fill="#FFB6B6"/>
<path d="M174.84 81.6752C173.303 81.6752 171.767 81.6319 170.232 81.5452L169.958 81.5298L169.994 81.2573C170.22 79.5542 170.093 77.8228 169.62 76.1711C168.817 78.0518 167.622 79.7396 166.116 81.1218L166.031 81.1998L165.916 81.1873C161.747 80.7311 157.615 79.9773 153.553 78.9316L153.397 78.8918L153.366 78.7344C153.063 77.244 152.906 75.7275 152.897 74.2065C152.897 69.4553 154.619 65.4564 157.746 62.9464C161.149 60.2143 166.028 59.374 171.488 60.5791H188.947C190.866 60.5813 192.706 61.345 194.064 62.7027C195.421 64.0604 196.184 65.9013 196.186 67.8214V78.8816L195.996 78.9314C189.09 80.7469 181.981 81.669 174.84 81.6752Z" fill="#2F2E41"/>
<path d="M53.138 61.8286C52.3564 62.1145 51.7202 62.6989 51.3688 63.4536C51.0174 64.2082 50.9796 65.0715 51.2637 65.854L70.0984 117.554C70.3842 118.335 70.9684 118.972 71.7228 119.323C72.4771 119.675 73.3401 119.713 74.1223 119.429L147.223 92.7778C148.004 92.4919 148.641 91.9075 148.992 91.1528C149.343 90.3981 149.381 89.5349 149.097 88.7524L130.262 37.0528C129.977 36.2709 129.392 35.6344 128.638 35.2829C127.884 34.9314 127.021 34.8935 126.239 35.1777L53.138 61.8286Z" fill="#CCCCCC"/>
<path d="M120.017 99.8464L75.2715 116.16C74.4296 116.465 73.5008 116.425 72.6889 116.046C71.877 115.668 71.2482 114.983 70.9406 114.141L53.8577 67.2503C53.552 66.4081 53.5926 65.479 53.9708 64.6668C54.349 63.8546 55.0338 63.2256 55.875 62.9178L124.845 37.7729C125.687 37.4671 126.616 37.5078 127.427 37.8861C128.239 38.2644 128.868 38.9495 129.176 39.7911L137.43 62.4483C140.069 69.7181 139.718 77.7383 136.453 84.7494C133.189 91.7605 127.278 97.1899 120.017 99.8464Z" fill="white"/>
<path d="M87.8201 65.9717L77.1871 69.8482C77.0538 69.8968 76.9122 69.9187 76.7704 69.9125C76.6286 69.9064 76.4894 69.8724 76.3607 69.8124C76.2321 69.7525 76.1165 69.6678 76.0206 69.5632C75.9246 69.4585 75.8503 69.336 75.8017 69.2026C75.7531 69.0692 75.7312 68.9276 75.7373 68.7857C75.7435 68.6439 75.7775 68.5046 75.8374 68.3759C75.8973 68.2472 75.982 68.1316 76.0866 68.0356C76.1912 67.9397 76.3137 67.8653 76.447 67.8167L87.0799 63.9401C87.3492 63.8419 87.6465 63.8548 87.9063 63.9759C88.1662 64.0969 88.3673 64.3163 88.4654 64.5857C88.5636 64.8551 88.5507 65.1525 88.4297 65.4124C88.3087 65.6723 88.0894 65.8735 87.8201 65.9717Z" fill="#F37F27"/>
<path d="M113.169 61.4363L78.7006 74.0027C78.5672 74.0515 78.4255 74.0736 78.2836 74.0676C78.1417 74.0616 78.0023 74.0276 77.8735 73.9677C77.7447 73.9078 77.629 73.8231 77.533 73.7184C77.437 73.6137 77.3625 73.4911 77.3139 73.3576C77.2652 73.2241 77.2434 73.0823 77.2496 72.9404C77.2557 72.7984 77.2898 72.6591 77.3499 72.5303C77.4099 72.4015 77.4948 72.2859 77.5995 72.1899C77.7043 72.094 77.8269 72.0197 77.9605 71.9712L112.429 59.4047C112.562 59.3561 112.704 59.3342 112.846 59.3404C112.988 59.3465 113.127 59.3805 113.255 59.4405C113.384 59.5004 113.5 59.5851 113.596 59.6898C113.691 59.7944 113.766 59.9169 113.814 60.0503C113.863 60.1837 113.885 60.3254 113.879 60.4672C113.873 60.609 113.839 60.7483 113.779 60.877C113.719 61.0057 113.634 61.1213 113.53 61.2173C113.425 61.3132 113.302 61.3877 113.169 61.4363Z" fill="#F37F27"/>
<path d="M114.906 66.2051L80.4379 78.7716C80.3045 78.8202 80.1629 78.842 80.0211 78.8359C79.8793 78.8298 79.7401 78.7958 79.6115 78.7358C79.4828 78.6759 79.3672 78.5912 79.2713 78.4865C79.1754 78.3819 79.101 78.2594 79.0524 78.126C79.0038 77.9926 78.9819 77.8509 78.9881 77.7091C78.9942 77.5672 79.0282 77.428 79.0881 77.2993C79.1481 77.1706 79.2327 77.055 79.3373 76.959C79.4419 76.863 79.5644 76.7886 79.6977 76.74L114.166 64.1735C114.435 64.0758 114.732 64.0889 114.992 64.21C115.252 64.3312 115.452 64.5504 115.55 64.8196C115.649 65.0888 115.636 65.3859 115.515 65.6457C115.394 65.9055 115.175 66.1067 114.906 66.2051Z" fill="#F37F27"/>
<path d="M116.644 70.974L82.1752 83.5405C82.0418 83.5893 81.9001 83.6113 81.7582 83.6053C81.6163 83.5993 81.4769 83.5654 81.3481 83.5054C81.2194 83.4455 81.1036 83.3608 81.0076 83.2561C80.9116 83.1514 80.8371 83.0288 80.7885 82.8953C80.7398 82.7618 80.718 82.6201 80.7242 82.4781C80.7303 82.3361 80.7644 82.1968 80.8245 82.068C80.8845 81.9393 80.9694 81.8236 81.0741 81.7277C81.1789 81.6317 81.3016 81.5574 81.4351 81.5089L115.904 68.9424C116.037 68.8938 116.179 68.872 116.32 68.8781C116.462 68.8842 116.601 68.9182 116.73 68.9782C116.859 69.0381 116.974 69.1228 117.07 69.2275C117.166 69.3321 117.24 69.4546 117.289 69.588C117.338 69.7214 117.36 69.8631 117.353 70.0049C117.347 70.1468 117.313 70.286 117.253 70.4147C117.193 70.5434 117.109 70.659 117.004 70.755C116.9 70.851 116.777 70.9254 116.644 70.974Z" fill="#F37F27"/>
<path d="M118.381 75.7428L83.9125 88.3093C83.6432 88.4075 83.3459 88.3946 83.0861 88.2736C82.8262 88.1525 82.6251 87.9331 82.527 87.6637C82.4289 87.3943 82.4417 87.097 82.5627 86.837C82.6838 86.5771 82.903 86.3759 83.1723 86.2778L117.641 73.7113C117.774 73.6627 117.916 73.6408 118.058 73.6469C118.199 73.6531 118.339 73.6871 118.467 73.747C118.596 73.807 118.712 73.8917 118.807 73.9963C118.903 74.101 118.978 74.2235 119.026 74.3569C119.075 74.4903 119.097 74.6319 119.091 74.7738C119.085 74.9156 119.051 75.0549 118.991 75.1836C118.931 75.3123 118.846 75.4279 118.741 75.5239C118.637 75.6198 118.514 75.6942 118.381 75.7428Z" fill="#F37F27"/>
<path d="M227.75 88.987L208.878 134.164C208.073 136.076 206.549 137.594 204.634 138.391C202.72 139.189 200.569 139.201 198.645 138.426C197.65 138.025 196.747 137.425 195.992 136.664C195.236 135.902 194.643 134.995 194.249 133.996C193.855 132.998 193.669 131.93 193.701 130.858C193.733 129.785 193.984 128.73 194.437 127.757L215.478 81.4306L227.077 52.7416C226.075 51.7416 225.405 50.4571 225.158 49.0627C224.91 47.6683 225.098 46.2316 225.696 44.9478C226.293 43.664 227.271 42.5952 228.497 41.8868C229.723 41.1784 231.137 40.8647 232.547 40.9883C233.958 41.1118 235.296 41.6667 236.38 42.5775C237.464 43.4882 238.241 44.7107 238.606 46.0789C238.972 47.4471 238.907 48.8946 238.421 50.2248C237.936 51.555 237.052 52.7033 235.892 53.5139L227.75 88.987Z" fill="#FFB6B6"/>
<g clip-path="url(#clip1_444_1145)">
<path d="M112.318 225.457C111.04 225.963 108.843 226.721 108.843 226.721C108.843 226.721 112.577 234.101 106.289 237.341C100.106 240.527 94.0262 229.604 93.2598 227.328C98.7779 226.418 101.946 222.271 100.311 220.046C98.6757 217.821 94.997 218.428 88.6615 226.721C91.2161 220.248 97.3984 211.55 99.2377 209.376C97.3473 208.263 96.07 207.049 94.1795 209.831C92.7244 211.971 89.6956 217.331 87.331 222.51C84.9889 226.113 81.7394 230.17 81.1671 229.873C80.4518 229.503 82.1542 226.974 83.2783 224.844C84.4023 222.714 84.7436 220.596 82.4955 219.658C80.2474 218.719 76.1253 223.535 76.1253 223.535C76.1253 223.535 76.9427 221.345 74.7294 220.38C72.516 219.415 69.007 223.535 65.8044 227.581C62.6019 231.627 61.5821 230.075 63.0802 227.48C64.8827 224.357 67.6111 222.085 67.6111 222.085C66.3379 220.871 65.2383 221.031 64.2676 221.703C64.0979 220.839 63.2845 219.745 59.9471 220.839C58.3002 221.381 56.7999 222.288 55.5603 223.491C54.3208 224.694 53.3748 226.16 52.7941 227.779C50.8832 229.527 48.631 230.781 47.9914 230.464C47.0717 230.009 50.8526 224.547 51.7722 223.08C52.6919 221.614 51.3124 219.642 49.1665 220.653C46.3972 221.952 42.6777 225.457 42.6777 225.457C42.6777 225.457 44.4026 221.387 50.1659 212.681C59.8388 213.753 61.9582 209.274 61.9582 209.274C61.8151 209.177 61.6888 209.058 61.5842 208.92C59.7673 210.282 56.4892 210.381 52.0318 209.922C64.1 192.594 75.3813 190.138 83.8607 194.558C92.4955 199.059 88.8168 212.764 80.131 213.472C71.0527 214.212 68.1752 206.24 68.1752 206.24L65.2118 208.162C65.2118 208.162 67.7051 212.6 72.5181 214.23C84.3206 218.226 90.1452 209.679 91.2182 204.672C92.2829 199.696 88.2548 189.602 74.4085 191.17C61.2919 192.655 52.5407 204.078 48.8211 209.533C46.2419 209.183 43.3664 208.724 40.2375 208.263C34.7521 207.454 28.1795 206.038 22.968 207.353C18.1346 208.566 14.5887 212.309 14.1289 216.102C12.7616 227.367 23.8877 225.963 23.8877 225.963V222.726C13.7202 223.687 14.6051 213.46 19.2893 210.792C23.1213 208.607 32.2669 209.703 41.7539 211.283C39.5384 213.22 37.7186 215.56 36.3932 218.175C34.1451 222.777 30.1333 231.463 26.379 238.353C23.1642 244.249 17.1822 245.959 15.956 243.157C14.6787 240.218 18.6128 239.01 18.6128 239.01C18.0398 238.221 17.4258 237.461 16.7735 236.735C11.6131 240.224 13.8101 248.178 22.2915 244.927C31.1306 241.539 35.9845 227.682 39.1522 220.198C41.0366 215.748 42.8126 213.083 43.9407 211.655L47.0819 212.204C43.7792 217.511 39.3566 225.716 38.5391 227.822C37.6195 230.185 37.364 230.565 39.9186 232.531C41.8091 229.543 43.5973 226.772 48.1446 223.131C45.6922 226.469 43.0864 230.565 45.5389 232.531C47.3782 234.004 50.8076 231.663 52.4242 230.391C52.8002 232.578 55.5511 234.153 59.4975 229.44C59.3708 230.654 59.7019 231.726 60.8995 232.369C64.3411 234.222 68.5982 226.94 71.7312 223.57C73.1251 222.069 74.1163 221.917 73.4684 223.333C72.7654 224.875 70.6583 228.562 70.3006 229.133C69.0233 231.166 69.9941 231.728 71.8334 232.3C72.5487 230.581 76.3296 225.795 78.1363 224.007C79.9429 222.219 81.6433 221.108 80.554 223.064C79.4647 225.02 76.0926 231.627 78.6472 232.531C80.7195 233.267 82.9676 231.386 84.6946 229.333C83.8526 232.582 85.0298 232.796 86.5666 233.852C86.5666 233.852 87.47 230.634 90.184 226.948C91.7904 233.508 97.0019 239.571 103.468 239.718C110.121 239.864 114.821 233.144 112.318 225.457ZM60.4438 226.558C59.0929 228.188 56.9061 230.561 55.9946 230.043C55.4448 229.729 56.53 226.554 58.3428 224.715C60.4295 222.599 63.0945 221.67 63.5502 222.287C62.093 223.463 61.1161 225.218 60.4438 226.552V226.558ZM93.5664 223.181C99.4932 217.766 101.071 224.553 90.6377 226.351C91.5231 225.214 92.5027 224.152 93.5664 223.175V223.181Z" fill="#093A52"/>
<path d="M93.3945 263.284C82.851 271.159 63.2721 261.915 49.3584 257.562C54.9398 248.546 59.8959 238.049 59.8959 238.049C59.8959 238.049 57.6294 238.201 56.5237 238.252C55.6204 240.663 46.4564 252.112 46.254 251.299C45.4018 247.876 51.159 237.544 51.159 237.544C51.159 237.544 48.9763 237.453 48.1608 238.065C46.3215 239.451 42.371 248.382 43.2559 251.687C44.1408 254.993 47.139 253.306 51.3633 248.653C50.6215 249.766 48.7637 253.01 46.4584 256.696C39.8183 254.788 32.6265 253.198 27.1452 253.777C21.3737 254.384 17.4886 257.408 18.5268 262.611C21.0427 275.219 32.9698 275.152 40.6665 268.813C42.7756 267.077 45.1627 263.984 47.5375 260.41C56.4113 263.06 65.8104 266.304 72.9573 268.275C87.8765 272.387 94.0077 263.891 94.0077 263.891C93.7825 263.711 93.577 263.507 93.3945 263.284ZM35.4223 270.494C28.6126 274.539 23.4318 268.269 21.388 264.627C19.3443 260.986 19.2115 255.84 27.2474 256.063C31.7068 256.188 37.9197 257.632 44.619 259.552C41.5657 264.219 38.0853 268.908 35.4223 270.494Z" fill="#093A52"/>
<path d="M70.9831 240.37V239.281C70.9831 239.281 65.8473 236.526 60.1003 242.012C54.2614 247.587 55.8596 255.666 61.582 254.604C64.7028 254.026 67.3514 251.323 69.0416 248.586C69.7105 248.643 70.3842 248.596 71.0383 248.447C70.3557 250.892 70.7522 252.917 71.9028 253.67C74.9929 255.693 80.7153 247.575 80.7153 247.575C80.7153 247.575 77.6252 255.616 82.8878 257.183C88.3221 258.802 93.7441 250.508 93.7441 250.508C93.7441 250.508 90.9851 249.699 90.3985 249.422C90.3985 249.497 87.5782 254.327 84.5739 255.268C81.4306 256.249 80.8686 252.784 82.9123 248.815C84.9561 244.846 88.3037 240.724 88.3037 240.724L84.1651 240.319C84.1651 240.319 78.2118 248.653 76.3213 250.255C72.1133 253.821 72.6426 251.064 73.9711 248.333C75.4201 245.354 79.8468 239.914 79.8468 239.914H75.7859C74.8069 240.926 73.0841 243.556 71.866 246.27C71.3002 246.577 70.671 246.751 70.0267 246.78C70.7849 245.162 71.1446 243.699 70.9913 242.872C70.5315 240.394 66.9795 239.662 65.2178 244.136C64.6456 245.59 65.0134 246.659 65.8105 247.387C64.0549 249.95 61.6638 252.693 59.6997 252.001C57.3924 251.192 63.1659 237.966 70.9831 240.37Z" fill="#093A52"/>
</g>
</g>
<defs>
<clipPath id="clip0_444_1145">
<rect width="270" height="273" fill="white"/>
</clipPath>
<clipPath id="clip1_444_1145">
<rect width="99" height="82" fill="white" transform="translate(14 191)"/>
</clipPath>
</defs>
</svg>
